<?xml version="1.0" standalone="no"?>
<!DOCTYPE svg PUBLIC "-//W3C//DTD SVG 1.1//EN" "http://www.w3.org/Graphics/SVG/1.1/DTD/svg11.dtd" >
<svg xmlns="http://www.w3.org/2000/svg" xmlns:xlink="http://www.w3.org/1999/xlink" version="1.1">
<metadata>
Created by FontForge 20200427 at Thu Oct 26 17:57:33 2000
 By www
(c) Apostrophic Labs. All rights reserved. apostrofe@mail.com. Some of the uppercase letters are loosely based on Disney's Hercules titling.
</metadata>
<defs>
<font id="Diogenes" horiz-adv-x="505" >
  <font-face 
    font-family="Diogenes"
    font-weight="400"
    font-stretch="normal"
    units-per-em="1000"
    panose-1="2 0 6 5 4 0 0 2 0 4"
    ascent="800"
    descent="-200"
    x-height="506"
    cap-height="800"
    bbox="-121 -509 1005 1055"
    underline-thickness="20"
    underline-position="-143"
    unicode-range="U+0020-FB02"
  />
<missing-glyph horiz-adv-x="500" 
 />
    <glyph glyph-name=".notdef" horiz-adv-x="500" 
 />
    <glyph glyph-name=".null" horiz-adv-x="0" 
 />
    <glyph glyph-name="nonmarkingreturn" horiz-adv-x="500" 
 />
    <glyph glyph-name="space" unicode=" " horiz-adv-x="300" 
 />
    <glyph glyph-name="space" unicode="&#xa0;" horiz-adv-x="300" 
 />
    <glyph glyph-name="Ccedilla" unicode="&#xc7;" horiz-adv-x="574" 
d="M335 59q-5 3 -5 18q0 3 1 3h4l-3 1q18 -6 33.5 -13t24.5 -16l54 -49q34 12 34 44q0 3 -1 11t-1.5 17t-1.5 17t-1 10l-16 -7l-18 18t-16 17l2 6q-86 49 -140 86.5t-86.5 66t-47.5 51t-21 42.5q12 17 34.5 35t51.5 39q3 10 15 24t26 28.5t26.5 28t18.5 23.5h1q9 9 35 31
t56 50t56.5 58t37.5 55q-2 22 -17 36t-35 14q-7 0 -22 -7v1q-38 -20 -73.5 -48t-70.5 -64l-124 -127q-40 -19 -80 -61q-6 -24 -23.5 -44t-43.5 -46l-38 -40q39 -43 66 -70.5t55.5 -51.5t66.5 -50t99 -65q-48 -27 -48 -60q0 -6 1 -10v-1q0 -8 9.5 -22.5t19.5 -25.5v1
q5 -7 10.5 -14.5l5.5 -7.5q68 -12 68 -35v-1q-2 -24 -117 -30q-27 -2 -27 -27q0 -33 68 -60l30 3q23 2 50 5.5t49.5 12.5t37.5 24.5t15 42.5q0 11 -11.5 29t-25.5 37t-26.5 36.5t-14.5 26.5zM420 138l-1 -3q-1 1 -1 3q0 1 2 0z" />
    <glyph glyph-name="exclam" unicode="!" horiz-adv-x="216" 
d="M167 809q-45 -25 -64 -44.5t-24 -30.5v8h-4q-16 0 -23 -34q7 -8 8.5 -17.5t1.5 -24.5v-36q0 -31 -3 -60.5t-3 -60.5q6 -32 13 -43l-1 -23q-1 -3 -1 -8v-7q0 -3 1 -6q0 -11 -0.5 -17t-0.5 -10v-14q0 -47 4 -93.5t6 -80.5l77 -47v38q0 45 6 119q4 37 6.5 60t4 37t2 20.5
t0.5 9.5v25q2 19 5 35.5t3 40.5q0 11 -2 17t-4 10.5t-4 8.5t-2 10q0 17 9.5 48t12.5 73q-1 1 -1 5q0 2 1 8t1 14v28q0 39 -20 42h-5zM134 134q-27 -10 -49 -10l-7 4q-11 -2 -18.5 -7t-7.5 -17t3.5 -29t7.5 -31v1q3 -13 6 -22.5t9 -15.5t16 -9t27 -3q5 0 11 1t11 1h6
q20 17 21 46l2 50q1 2 1 6l1 19l-5 -6l-2 4t-3 4h-1q-5 5 -12.5 8t-16.5 6z" />
    <glyph glyph-name="quotedbl" unicode="&#x22;" horiz-adv-x="450" 
d="M242 769q-3 -1 -11 -1.5t-23 -0.5q4 -26 4.5 -37t0.5 -20l9 -43v-89q0 -8 3 -12t10 -10v1q2 -2 9 -8.5t14 -12.5l17 -17q8 -8 21 -20t21 -15l4 -4q8 -7 19.5 -15.5t19.5 -8.5h10l56 96q-14 8 -31 22.5t-34 30.5l-4 2q0 4 -1 8t-3 9q-4 43 -6 73.5t-2 48.5v17
q-8 6 -15.5 10t-15.5 6q-6 -1 -11 -1.5t-9 -2.5h-22q-3 -3 -29 -6h-1zM45 761q-4 0 -6.5 -0.5t-6 -1.5t-11 -1.5t-21.5 -0.5q0 -15 1 -34t1 -36l9 -30v-94h-7q16 -14 20.5 -18t8.5 -6l4 -3q1 -1 9.5 -9t9.5 -9v2q29 -29 55 -50.5t39 -21.5h9l56 93q-6 5 -16 12.5t-21.5 17.5
t-21.5 21.5t-15 25.5q-4 38 -6 66t-2 46q0 3 0.5 5.5t0.5 5.5v11q-20 17 -30 18q-8 -2 -14.5 -6.5t-9.5 -8.5h-9q-5 5 -8.5 5.5t-13.5 0.5h-4z" />
    <glyph glyph-name="numbersign" unicode="#" horiz-adv-x="905" 
d="M569 53q49 0 49 20q0 6 -5 11q-9 72 -9 106q0 15 1 30.5t4 29.5q10 -1 20 -1h25q13 0 31.5 1t36 2t31.5 2.5t19 1.5q0 32 7 64t16 63q-13 0 -27 1.5t-26 1.5q-9 0 -26.5 -1t-37 -2t-37.5 -2t-27 -1q0 10 0.5 28t1 37.5t1.5 37.5t2 29q14 0 35.5 1.5t43.5 4t41.5 5.5
t29.5 5h3q3 0 10 8.5t13.5 20.5t11.5 25.5t5 23.5q0 31 -31 31l-155 -1v138l6 4q-4 6 -9 12t-13 6q-7 0 -18 -2.5t-23.5 -6t-25.5 -6t-24 -2.5l-21 -160q-72 -4 -124 -6.5t-87 -2.5q3 44 7 85t5 73v1q0 32 -62 32q-23 0 -34.5 -8t-11.5 -22v-14q0 -12 -2 -32.5t-4 -42.5
t-4.5 -42.5t-3.5 -32.5q-9 0 -24.5 0.5t-33 1t-33.5 1t-25 0.5h-20q-32 -29 -32 -54q0 -19 31 -55q4 -1 21.5 -4t39 -6.5t44 -6.5t36.5 -4q-2 -44 -5 -76t-7 -52h-3q-6 0 -23 2t-36 4t-35.5 4t-20.5 2v-17q0 -5 3 -18t6.5 -27t7 -25t4.5 -12q9 -13 52 -13q14 0 31 0.5
t36 2.5l12 -157q-1 -3 -1 -7q0 -31 70 -31q35 0 44 12.5t9 29.5v15q0 9 -3 27t-6.5 37.5t-6.5 37t-3 25.5v8l192 5q1 -4 1 -10t-1.5 -24t-3.5 -38t-3.5 -38.5t-1.5 -25.5q0 -14 -0.5 -26.5t6 -21.5t23.5 -14.5t51 -5.5zM301 358q-5 7 -9.5 43t-4.5 91q62 8 107.5 11.5
t74.5 3.5h7q19 0 23.5 -4t4.5 -28q0 -20 -2.5 -45.5t-8.5 -59.5q-39 -9 -77 -12t-76 -3t-39 3z" />
    <glyph glyph-name="percent" unicode="%" horiz-adv-x="632" 
d="M316 574q0 45 -9 84.5t-27 68.5t-45.5 45.5t-64.5 16.5q-65 0 -111 -94h2q-13 -31 -19 -64t-6 -67q0 -26 5 -56t13.5 -56t19.5 -43.5t23 -17.5q1 0 10 -5.5t21 -12t24.5 -12t20.5 -5.5q73 0 121 99h-2q13 29 18.5 59t5.5 60zM490 442q-26 0 -53 -22t-49.5 -56.5t-37 -76
t-14.5 -79.5q0 -131 139 -198q33 0 60.5 19t47 49.5t30.5 69.5t11 79q0 75 -19 132q-8 25 -16 36.5t-17.5 17t-20.5 8t-26 8.5l1 -1q-20 14 -36 14zM177 60v-31q1 -16 8.5 -24t16.5 -8q15 0 26 7t23 27.5t26 57.5t35 98t51 149t74 209q16 44 27 68t18.5 35.5t12 14t6.5 4
t2.5 5.5t0.5 19v25t-2 16l-7 50q-11 24 -32 24q-15 0 -27.5 -12t-23.5 -32.5t-20.5 -47.5t-19.5 -56q-17 -51 -29.5 -84t-21 -55t-14.5 -37t-10 -29.5t-7 -32.5t-7 -45q-3 -24 -15.5 -53t-27.5 -59.5t-28.5 -62.5t-19.5 -62l-8 -40t-7 -38zM106 561q0 63 67 116
q68 -10 68 -90q0 -22 -6 -45t-15 -41.5t-20.5 -30.5t-23.5 -12h-4q-1 0 -3 0.5t-3 0.5l-4 -3q-8 2 -17.5 12.5t-18 25.5t-14.5 33t-6 34zM495 344q9 -6 18.5 -20t16.5 -33t11.5 -40t4.5 -40q0 -86 -65 -91h-4q-26 0 -38.5 27.5t-12.5 69.5q0 25 4.5 48.5t12 42t17.5 30
t20 11.5q3 0 6.5 -1.5t8.5 -3.5z" />
    <glyph glyph-name="quoteright" horiz-adv-x="156" 
d="M0 473q6 -15 14.5 -22.5t22.5 -7.5t29 21t28.5 49t25.5 56t21 43q-15 14 -37 25.5t-53 20.5z" />
    <glyph glyph-name="quoteright" unicode="&#x2019;" horiz-adv-x="156" 
d="M0 473q6 -15 14.5 -22.5t22.5 -7.5t29 21t28.5 49t25.5 56t21 43q-15 14 -37 25.5t-53 20.5z" />
    <glyph glyph-name="parenleft" unicode="(" horiz-adv-x="292" 
d="M266 801h-54q-6 -5 -24.5 -24t-42.5 -49t-50.5 -68.5t-48.5 -82.5t-36.5 -90.5t-14.5 -92.5q0 -43 9.5 -82t27 -77t43.5 -78.5t59 -86.5q11 -17 33.5 -46.5t60.5 -54.5h5q31 0 31 45q0 8 -1 19.5t-2.5 23t-2.5 21t-1 13.5q-27 15 -53 45.5t-47 70.5t-34 86t-14 90v4
q0 135 89 270q8 8 27 39t49 90z" />
    <glyph glyph-name="parenright" unicode=")" horiz-adv-x="312" 
d="M129 777q-13 16 -25.5 22.5t-27.5 6.5h-57l-17 -62q80 -101 119.5 -195t39.5 -186q0 -39 -3 -65t-10.5 -47t-19.5 -41t-29.5 -47t-41 -65t-53.5 -95l70 -1q186 191 186 390q0 149 -100 311q-7 46 -31 74z" />
    <glyph glyph-name="asterisk" unicode="*" horiz-adv-x="328" 
d="M54 446q0 -18 10.5 -26.5t24 -11.5t26 -2.5t17.5 0.5q4 17 8 34.5t9 31.5q13 -22 31 -44.5t30 -34.5l47 50q-23 29 -45 59q3 -1 6 -1.5t12 -0.5q30 0 45 15t15 42q0 24 -13 28.5t-27 4.5q-5 0 -10 -1t-11 -3q11 11 17.5 20.5t6.5 20.5q0 12 -5.5 20.5t-13 14t-14.5 8.5
t-10 3q-6 0 -12.5 -4.5t-12.5 -9.5t-11 -10t-8 -6q-12 -2 -27 -22q0 6 -10.5 26t-20.5 37h-10q-13 0 -35 -17v1l-5 -5l-6 -6t-6 -5h4q-4 -8 -4 -16v-10q2 -2 5 -7.5t7 -12.5t8.5 -14t8.5 -11q-5 1 -8 1h-7q-22 0 -34 -4t-17.5 -10t-6.5 -12t-1 -10q0 -14 7 -22t17.5 -12
t23 -4.5t23.5 -0.5h8l-26 -53v-8z" />
    <glyph glyph-name="plus" unicode="+" horiz-adv-x="462" 
d="M358 443q-54 3 -86.5 5t-45.5 4q1 5 1.5 10t0.5 12t-1 24.5t-2 37t-2 36.5t-1 22l-78 -17q0 -17 -6 -25t-6 -14v-2v-38t-4.5 -29t-16 -19t-35.5 -7q-8 3 -16 5t-14 2q-12 0 -22 -6.5t-16.5 -16t-10.5 -19.5t-4 -17q0 -9 4.5 -18.5t11.5 -17t15.5 -12t15.5 -4.5
q17 0 32.5 4.5t23.5 4.5q11 -2 17 -2t11 -1v-22q0 -10 3 -26.5l6 -33t6 -30t3 -17.5q0 -2 -0.5 -3.5t-0.5 -3.5v-14h77v19q0 18 1 37v23q3 5 3.5 14.5t0.5 23.5q-1 11 -1 18v13q6 0 20.5 0.5t30 1.5t28.5 2.5t17 3.5q4 -2 15 -3t19 -1q13 0 20 9t7 24q0 9 -2.5 22.5
t-9.5 33.5z" />
    <glyph glyph-name="comma" unicode="," horiz-adv-x="247" 
d="M70 -37q-5 -14 -7.5 -29.5t-2.5 -34.5q2 -2 4 -6l-1 1q2 -4 3 -4l14 1l-13 -4q1 -2 3 -5t5 -6l3 -3q3 -5 7 -8.5t6 -5.5v6q2 0 4 -0.5t4 -0.5q20 0 30 13t19 30l18 33q28 50 28 76q0 1 -0.5 3.5t-4 10.5t-11 25t-21.5 48v8q-17 10 -30 10q-17 0 -38 -13l-2 3
q-41 -41 -41 -71q0 -14 6 -25.5t16 -13.5l13 -15q-7 -8 -11 -23z" />
    <glyph glyph-name="hyphen" unicode="-" horiz-adv-x="497" 
d="M389 372h-49q-7 0 -15 0.5t-16 0.5q-42 0 -61.5 -1.5t-31.5 -3t-22.5 -3t-33.5 -1.5q-19 0 -29 6q-31 0 -55 -2t-43 -2h-28v-15q0 -2 0.5 -3.5t0.5 -3.5q0 -11 -0.5 -15t-2.5 -21q0 -28 12.5 -35t32.5 -7q5 0 12.5 1t12.5 1h5q5 0 18 -7q46 33 101 33q18 0 45.5 -5.5
t49.5 -5.5q18 0 35 3t35 8q4 3 8 3l14 -2q6 -1 17 -1.5t10 -0.5q39 0 39 38q0 19 -6 30.5t-24 11.5q-13 0 -16 -1t-7 -1h-4z" />
    <glyph glyph-name="hyphen" unicode="&#xad;" horiz-adv-x="497" 
d="M389 372h-49q-7 0 -15 0.5t-16 0.5q-42 0 -61.5 -1.5t-31.5 -3t-22.5 -3t-33.5 -1.5q-19 0 -29 6q-31 0 -55 -2t-43 -2h-28v-15q0 -2 0.5 -3.5t0.5 -3.5q0 -11 -0.5 -15t-2.5 -21q0 -28 12.5 -35t32.5 -7q5 0 12.5 1t12.5 1h5q5 0 18 -7q46 33 101 33q18 0 45.5 -5.5
t49.5 -5.5q18 0 35 3t35 8q4 3 8 3l14 -2q6 -1 17 -1.5t10 -0.5q39 0 39 38q0 19 -6 30.5t-24 11.5q-13 0 -16 -1t-7 -1h-4z" />
    <glyph glyph-name="period" unicode="." horiz-adv-x="198" 
d="M134 91l-29 5q-9 5 -18 8.5t-11 3.5q-5 0 -14 -4.5t-9 -20.5q0 -10 1 -14q-1 -5 -1.5 -10t-0.5 -10l1 -11q0 -2 -0.5 -4t-0.5 -5v-4q0 -16 4.5 -21.5t26.5 -5.5h14q10 0 18 -3l9 -2h6q22 0 22 42q0 7 -0.5 14t-1.5 14v3q-2 11 -6.5 17t-8.5 7z" />
    <glyph glyph-name="slash" unicode="/" horiz-adv-x="374" 
d="M31 130q-2 -2 -8 -15t-12.5 -29t-11.5 -30.5t-5 -18.5q0 -9 5.5 -16.5t13 -13t14.5 -8.5t11 -4q3 -1 6 -1h7q11 0 21.5 5t19 11.5t14 13.5t6.5 12q0 8 -3 13l85 167v15q0 24 3.5 46.5t11.5 46.5t19.5 50t28.5 57q24 46 39 75.5t23 47.5l-2 3q26 65 46.5 133t22.5 139
l-16 2q-9 0 -24.5 -11t-31.5 -26t-28.5 -30t-13.5 -23v-5q-10 -35 -30.5 -89.5t-46 -118t-52.5 -129t-50.5 -121.5t-40.5 -96t-21 -52z" />
    <glyph glyph-name="zero" unicode="0" horiz-adv-x="591" 
d="M549 599v1h-1q-1 2 -3 8l-5 15q-4 8 -4 19q0 3 1 5q-2 20 -15.5 30.5t-21.5 14.5q-16 24 -37 45h5q-9 7 -17.5 12t-18.5 11t-23.5 14.5t-33.5 21.5l-61 -15q-19 19 -37 19q-8 0 -20 -7t-25 -18t-26 -23t-22.5 -22.5t-15.5 -17t-5 -5.5l-3 -3t-4 -6q-32 -44 -52.5 -75.5
t-33 -60t-17.5 -60.5t-5 -77q0 -91 23.5 -168.5t60.5 -134.5t83.5 -89.5t93.5 -32.5h7q115 42 169 132q13 42 26.5 68.5t25 49.5t18.5 48t7 63q0 12 -1.5 35.5t-4 49.5t-4 49t-1.5 33q0 29 3 53q-2 5 -3.5 10t-2.5 8h1zM320 159q-9 -8 -15.5 -13.5t-8.5 -9.5q-5 0 -10 4
q-26 6 -49 24.5t-40 51.5t-26.5 80.5t-9.5 111.5q0 36 21 62q3 16 6.5 28t9 25.5t14.5 30.5t22 42l74 70q8 -6 22 -13t22 -7h7q2 0 3.5 0.5t3.5 0.5t3 -1l15 -16h9q12 0 22 -19t16.5 -47t10 -61.5t3.5 -61.5q0 -57 -10 -109.5t-29 -102.5l-57 -58q-4 -4 -13 -4.5t-16 -7.5z
M497 694v0q1 0 1 -1z" />
    <glyph glyph-name="one" unicode="1" horiz-adv-x="229" 
d="M201 100v154q0 12 0.5 25t0.5 25q0 89 -6 150.5t-6 101.5q0 17 2 29t5 21q-2 48 -2.5 86.5t-0.5 66.5v48q-14 -3 -18.5 -3.5t-7.5 -0.5t-10.5 1t-16.5 2t-16.5 2t-8.5 1q-31 0 -51.5 -16.5t-20.5 -43.5q0 -6 1 -15t2.5 -18t2.5 -16.5t1 -9.5q0 -3 -0.5 -7.5t-3.5 -11.5
q47 -79 47 -206q0 -12 -1 -37.5t-2 -53t-2 -52.5t-1 -37q0 -77 12 -129q7 -10 7 -25q0 -3 -1 -12t-1.5 -20t-1.5 -21.5t-1 -14.5q0 -54 46 -54q25 0 39 6.5t14 31.5v4t-2 7h1q-3 16 -3 25q0 8 3 11z" />
    <glyph glyph-name="two" unicode="2" horiz-adv-x="576" 
d="M547 23v104q-21 10 -41.5 14t-40.5 4q-14 0 -37 -3.5t-48 -7t-47 -7t-33 -3.5q-23 0 -47 6q9 15 25.5 41t37 57.5t42.5 66t42.5 67t37 60.5t24.5 47q32 29 32 66q0 33 -23 77t-61 89q-13 15 -27.5 32.5t-31 32.5t-33.5 24.5t-35 9.5q-12 0 -23 -6t-22 -14.5t-20.5 -17.5
t-18.5 -15l-4 -4q-9 -15 -29 -35t-42.5 -41t-43.5 -41.5t-32 -37.5q10 -74 42 -98h8q17 0 38.5 20t46 48.5t50 60t49.5 54.5q3 -2 8 -5.5t9.5 -8t8 -8.5t5.5 -5h-4q32 -20 46 -39t14 -36q0 -12 -5 -31.5t-9 -39.5l-12 -39q-42 -64 -83 -123.5t-73 -109.5t-52 -89t-20 -61
q0 -35 18 -78q21 0 49 3t57 6.5t55.5 6.5t43.5 3q14 0 26.5 -2.5t23.5 -5.5h-1q11 -3 23 -5t26 -2q17 0 46 4.5t54 4.5z" />
    <glyph glyph-name="three" unicode="3" horiz-adv-x="482" 
d="M393 212q61 30 61 71q0 19 -2.5 30.5t-16.5 25.5t-44 34.5t-85 56.5l-4 20h1l12 10l12 10h-1q30 25 54 53.5t26 66.5q-17 27 -43.5 46.5t-60.5 28.5q-45 48 -98.5 82.5t-117.5 54.5q-11 -5 -17 -15.5t-10.5 -23.5t-9 -27t-12.5 -26q40 -25 76 -43t66.5 -33t55 -29
t42.5 -32l7 -16q-14 -16 -37 -31t-46.5 -27t-42 -21t-22.5 -13q-6 -17 -6 -31q0 -37 30 -37h8q4 -2 7.5 -4.5t8.5 -4.5h-1q38 -21 74.5 -42.5t53.5 -50.5q-14 -11 -27.5 -27.5t-27 -34t-27 -33t-28.5 -23.5q-37 -11 -70 -44t-56 -78q5 -21 22.5 -34.5t49.5 -20.5
q17 6 30.5 15.5t24.5 23.5l28.5 31.5t19 19.5t23.5 21.5t41 38.5q45 45 79 62z" />
    <glyph glyph-name="four" unicode="4" horiz-adv-x="654" 
d="M508 191q11 0 26 -2t32 -2q50 0 59 43q-6 51 -52 51q-22 0 -42 -4t-26 -4q-9 0 -13 1l-1 1q-2 20 -4.5 59.5t-5.5 85.5t-5 90t-2 73v20q0 6 -0.5 12.5t-0.5 12.5q0 18 4 43t4 44q0 10 -3 25.5t-9 29.5t-15.5 24t-23.5 10q-10 0 -20 -10.5t-17 -15.5q-8 -22 -25.5 -53.5
t-40 -66.5t-47.5 -71t-47.5 -67.5t-40.5 -56.5t-26 -37q-11 -15 -19.5 -28t-17.5 -25.5t-20.5 -27t-26.5 -33.5v1q-34 -38 -34 -81q28 -48 103 -48q41 11 87 11q10 0 28 -1.5t39 -3t41.5 -2.5t35.5 -1l-4 -104q-3 -8 -3.5 -14.5t-0.5 -11.5q0 -48 73 -57q15 11 23 20
t11.5 18t4.5 19.5t1 24.5v58q0 8 -1 16.5t-1 16.5t4.5 13t18.5 5zM361 536q-4 -17 -8 -32t-4 -26q0 -12 4 -22.5t9.5 -20.5t9.5 -19t4 -18q0 -5 -3 -18.5t-6.5 -29t-7.5 -31.5t-5 -27q-8 -2 -16 -2h-15q-8 0 -24 1.5t-34 3t-34.5 3t-23.5 1.5h-11l86 140h-1q24 38 46.5 72
t44.5 63q-2 -7 -5 -17t-6 -21z" />
    <glyph glyph-name="five" unicode="5" horiz-adv-x="522" 
d="M493 368q0 20 -25 38.5t-61.5 35.5t-79 32t-77.5 28q-6 7 -15.5 16t-23.5 22l-3 3q-14 14 -20 22.5t-6 20.5q0 29 2.5 61.5t14.5 52.5h15q57 0 114.5 -4t107.5 -29q0 12 8 18t17 11t17 12t8 21q0 1 -3 8.5t-21 36.5v-2q-8 10 -22 10h-8q-2 0 -4.5 -0.5t-5.5 -0.5
q-106 4 -176 11.5t-108 7.5h-19q-43 -27 -43 -66q0 -7 2 -17.5t4.5 -22t5.5 -21t5 -15.5q-12 -19 -16.5 -45.5t-4.5 -45.5q13 -13 15 -28q0 -1 -1 -8.5t-2 -16.5t-2 -17t-1 -10q0 -42 45 -62h16q37 0 75.5 -22t82.5 -66q-10 -46 -53 -94t-111 -111q-70 -46 -91 -103
q37 -14 57.5 -21.5t27.5 -7.5q14 0 29.5 9.5t29 21.5t23.5 23.5t13 16.5l188 198q3 8 16 20.5t27.5 26.5t25.5 28t11 24z" />
    <glyph glyph-name="six" unicode="6" horiz-adv-x="537" 
d="M374 15q63 94 98.5 156t35.5 97q0 32 -20.5 55.5t-52.5 52.5v-1q-3 3 -7 5.5t-6 5.5l-14 11q-16 36 -43 61t-69 25q-9 0 -14 -1t-10 -7q27 40 39 62t20.5 38.5t20 33.5t38.5 46q59 65 80 116q-15 12 -30 18.5t-27.5 8.5t-22.5 2h-14q-12 -8 -23.5 -21t-21.5 -26.5
t-18 -25.5t-14 -16q-7 -17 -26 -48t-44.5 -69t-54 -80.5t-54.5 -83t-45.5 -76.5t-26.5 -60q1 -11 2.5 -20t7 -18.5t16.5 -22.5t31 -33q20 -37 59 -79t105 -89q17 -10 35.5 -21t32.5 -11q16 0 33 11zM235 413q8 -20 30 -36t46.5 -29.5t44.5 -27t23 -28.5q12 -23 12 -46
q0 -54 -58 -133q-45 20 -65 62q-15 9 -23.5 15t-17 17t-19.5 31t-30 56q2 50 55 126q5 5 8 12q-2 -6 -4 -10.5t-2 -8.5z" />
    <glyph glyph-name="seven" unicode="7" horiz-adv-x="510" 
d="M482 775q-23 11 -44.5 16t-41.5 5q-6 0 -9 -1t-8 -3t-14 -5t-26 -6h-1q-11 0 -23 4t-23 4q-13 0 -31 1.5t-37.5 4t-40 4t-37.5 1.5q-20 0 -37.5 -7.5t-31 -18t-21.5 -21.5t-8 -18q0 -16 8.5 -23.5t20.5 -10t25.5 -2t23.5 0.5q13 0 35 0.5t45.5 1.5t45 1.5t32.5 0.5
q2 0 9 -1t17 -3q-14 -60 -27.5 -112t-36.5 -106q-13 -15 -27.5 -45.5t-29.5 -65t-29 -66.5t-26 -49q-2 -7 -2.5 -19.5t-2.5 -27.5t-6 -30.5t-11 -28.5h-9q-17 -29 -21 -54t-4 -46q0 -20 1.5 -30.5t5.5 -15t10.5 -5t15.5 -0.5q26 0 44 14t34 40q23 68 49 142.5t55 151
t61.5 153t67.5 147.5q-5 3 4 17.5t21 34t23 40.5t12 36z" />
    <glyph glyph-name="eight" unicode="8" horiz-adv-x="550" 
d="M331 33q29 25 58.5 52t55.5 54.5t46 54.5t31 51q-46 94 -170 192q2 2 4.5 5t5.5 6l4 4h-1q14 15 30 35t32.5 41t33 41.5t31.5 36.5q-3 19 -9.5 31.5t-18 25t-28.5 29.5t-41 45q-17 21 -31.5 34t-28.5 20.5t-28.5 10.5t-31.5 3h-8q-27 -13 -47.5 -26.5t-41.5 -35
t-47 -54.5t-63 -84q-2 -6 -3 -12.5t-1 -16.5q0 -38 35.5 -72t101.5 -73q-7 -6 -13.5 -13t-12.5 -15l1 -1q-15 -17 -37 -41t-42 -50.5t-34.5 -51t-14.5 -42.5v-7q8 -28 28 -57t54 -56v-1q4 -2 33 -23.5t85 -59.5q13 -8 23 -8q6 0 15 4t18 9t16 9t9 5zM296 137q-18 -3 -26 -11
q-20 13 -45.5 34t-50.5 44l-19 16q12 23 38 51t77 69l2 -2q16 -20 34.5 -39t40.5 -19q8 -8 22 -24.5t19 -30.5l-71 -83q-3 -2 -8 -2.5t-13 -2.5zM189 581q2 4 4 7t4 8v-1q8 15 18.5 34.5t23 36t27 28t29.5 11.5q9 0 19.5 -9t20.5 -21.5t17.5 -25t12.5 -19.5
q-14 -26 -36.5 -58.5t-55.5 -71.5q-58 37 -84 81z" />
    <glyph glyph-name="nine" unicode="9" horiz-adv-x="531" 
d="M408 345q34 51 53 81t28 50t11 36t2 39t-13.5 46t-35.5 46t-50 46.5t-57 47.5q-17 7 -22 18t-8.5 20.5t-11.5 16.5t-31 7q-35 0 -67 -30t-76 -90q-70 -96 -76 -102q-6 -21 -6 -38q0 -15 3 -27.5t11.5 -25.5t25 -27.5t43.5 -34.5q14 -10 24.5 -18t18.5 -16t13.5 -17.5
t10.5 -22.5q6 -11 14 -20t19 -14h32q8 0 18 5q-26 -43 -51.5 -85t-47.5 -78t-38 -63.5t-23 -42.5q8 -13 12 -23.5t8 -17.5t10.5 -11t18.5 -4q31 0 53.5 23.5t28.5 65.5q37 50 62.5 92.5t43.5 75.5t30 57t20 36v-1zM313 426q-23 6 -46 17t-42.5 25.5t-34.5 31.5t-22 35
q8 37 33 68t64 57h2q14 0 23 -3t19 -11.5t24 -24t39 -40.5q9 -9 15.5 -16t6.5 -12q0 -6 -19 -23l10 -9q-8 -23 -24 -54.5t-36 -67.5q-1 6 -4 13t-8 14z" />
    <glyph glyph-name="colon" unicode=":" horiz-adv-x="241" 
d="M168 471l-7 1h-10l3 -1q-4 1 -7 2t-6 1q-10 0 -24 -1.5t-26.5 -5t-21 -9.5t-8.5 -16q0 -7 1 -11v-2q0 -8 2 -11l-1 4q0 -1 0.5 -1.5t0.5 -1.5t-2 -7v-39q0 -20 6.5 -31.5t14.5 -13.5h6t8 1h3q5 0 7.5 -2t6.5 -2t9 2l-1 -1q3 1 8 2t10 1h11q12 0 19.5 10.5t7.5 27.5v12
q-12 10 -12 17l3 19q2 9 3.5 18t1.5 14v7t-2 10l-4 2v5zM96 137q-14 0 -19 -8t-5 -22v-10t1 -10q-1 -5 -1.5 -9.5t-0.5 -10.5v-25q0 -20 6 -27.5t25 -7.5h15q9 0 18 -6q4 2 7 2q0 -1 2 -3h7q24 0 24 41v9q0 38 -7 50.5t-13 16.5l-28 6q-28 14 -31 14z" />
    <glyph glyph-name="semicolon" unicode=";" horiz-adv-x="289" 
d="M118 152h-14v-4h-6q-8 0 -29 -13v-14q0 -11 -2 -37t-5 -69h2q-3 -5 -5 -10l-10 -7q-20 -17 -35 -28t-23 -15l55 -85h9q6 0 12 3.5t11.5 8t10 8t6.5 3.5q1 1 7 5t13 10t13.5 12t10.5 11l6 4q2 2 5 4q7 5 20.5 16t13.5 21q-1 12 -1 24v21v26l8 28q0 14 1 31.5t1 31.5
q-24 0 -37 2t-20 5t-10.5 5t-7.5 2zM71 426q-2 -2 -3 -4v-6q0 -2 0.5 -3.5t0.5 -4.5v-9q0 -3 -0.5 -6t-0.5 -8v-5q0 -17 7.5 -30t17.5 -17q4 0 10 1t10 1h2l1.5 -0.5t3.5 -1.5h-1q2 -2 4.5 -2.5l2.5 -0.5h2q2 0 7 2l-1 -1q4 1 9.5 2t10.5 1h13q14 0 21 11t7 28v12
q-12 10 -12 18q0 1 1.5 8t3 15.5l3 17t1.5 11.5t-0.5 7t-2.5 11l-4 1v5l-7 1h-12l3 -1l-6 2t-8 1t-10 -1.5t-12 -3.5h-4q-9 0 -20 -0.5t-20.5 -3t-16 -8.5t-6.5 -16q0 -2 1.5 -11t3.5 -12zM71 426l-1 4q0 -1 0.5 -1.5t0.5 -1.5v-1z" />
    <glyph glyph-name="semicolon" unicode="&#x37e;" horiz-adv-x="289" 
d="M118 152h-14v-4h-6q-8 0 -29 -13v-14q0 -11 -2 -37t-5 -69h2q-3 -5 -5 -10l-10 -7q-20 -17 -35 -28t-23 -15l55 -85h9q6 0 12 3.5t11.5 8t10 8t6.5 3.5q1 1 7 5t13 10t13.5 12t10.5 11l6 4q2 2 5 4q7 5 20.5 16t13.5 21q-1 12 -1 24v21v26l8 28q0 14 1 31.5t1 31.5
q-24 0 -37 2t-20 5t-10.5 5t-7.5 2zM71 426q-2 -2 -3 -4v-6q0 -2 0.5 -3.5t0.5 -4.5v-9q0 -3 -0.5 -6t-0.5 -8v-5q0 -17 7.5 -30t17.5 -17q4 0 10 1t10 1h2l1.5 -0.5t3.5 -1.5h-1q2 -2 4.5 -2.5l2.5 -0.5h2q2 0 7 2l-1 -1q4 1 9.5 2t10.5 1h13q14 0 21 11t7 28v12
q-12 10 -12 18q0 1 1.5 8t3 15.5l3 17t1.5 11.5t-0.5 7t-2.5 11l-4 1v5l-7 1h-12l3 -1l-6 2t-8 1t-10 -1.5t-12 -3.5h-4q-9 0 -20 -0.5t-20.5 -3t-16 -8.5t-6.5 -16q0 -2 1.5 -11t3.5 -12zM71 426l-1 4q0 -1 0.5 -1.5t0.5 -1.5v-1z" />
    <glyph glyph-name="less" unicode="&#x3c;" horiz-adv-x="598" 
d="M-12 375q222 -109 460 -164q18 -16 58 -16h14q56 31 56 57q0 10 -25 21t-56 21t-58 17t-31 9q-74 23 -129.5 38.5t-95.5 26.5q16 5 35 10t38.5 11t38 12.5t33.5 15.5l1 -1q6 3 36 11t67.5 21t74.5 29.5t56 35.5v8q0 13 -12 28.5t-37 15.5q-40 0 -82 -11.5t-84 -28.5
t-84 -36t-82 -33q-57 -7 -104 -31.5t-88 -66.5z" />
    <glyph glyph-name="equal" unicode="=" horiz-adv-x="580" 
d="M433 544q-6 -1 -14 -1h-17q-19 0 -47.5 1t-47.5 1q-48 0 -83.5 -6t-62.5 -6q-15 0 -27 7q-31 0 -55 -1.5t-43 -1.5h-28v-17q0 -2 0.5 -4.5t0.5 -4.5q0 -13 -2 -23.5t-2 -21.5q0 -20 7 -33h1q11 -29 29 -29q3 0 9.5 2t14 5t15 5.5t11.5 3.5q4 -2 5 -2q2 0 7 -1
q29 9 58.5 13t57.5 4q8 0 22.5 -0.5t30.5 -1t30.5 -1t23.5 -0.5q23 0 40.5 2t33.5 6q2 0 8.5 -1t14 -2.5t15 -2.5t11.5 -1q43 0 43 66q0 39 -35 39h-9q-4 0 -5 3zM346 260q32 1 58.5 2.5t46 7t30.5 16.5t11 31q0 12 -5.5 20.5t-12 14t-13 8t-8.5 2.5h-6q-3 0 -7 -2h-1
q-3 0 -8.5 3t-16.5 12q-19 -6 -40 -8t-44 -2q-29 0 -64.5 2.5t-64.5 2.5q-62 0 -100 -11q-5 -5 -10 -5q-2 0 -8 1t-14 2.5t-15.5 2.5t-11.5 1q-39 0 -39 -47q0 -32 6.5 -47.5t23.5 -15.5q5 0 19 3.5t19 3.5q10 0 33 -0.5t49 -1.5t49 -1.5t32 -0.5q38 0 64 3t48 3z" />
    <glyph glyph-name="greater" unicode="&#x3e;" horiz-adv-x="626" 
d="M77 578h-5q-2 0 -3 0.5t-2 0.5q-23 0 -35.5 -15.5t-12.5 -29.5v-8q18 -18 55 -34.5t75 -29.5t68 -22t36 -10v1q15 -9 34 -15.5t38.5 -12t38.5 -10.5t35 -11q-61 -17 -156 -45t-239 -73q0 -1 -0.5 -5.5t-0.5 -6.5v-3q0 -28 57 -57h14q20 0 33.5 4t22.5 11q119 29 234.5 70
t227.5 95q-42 42 -89.5 66.5t-101.5 31.5q-86 37 -166 67t-158 41z" />
    <glyph glyph-name="question" unicode="?" horiz-adv-x="418" 
d="M140 242q-21 21 -21 29q0 1 8 8t17.5 15t17.5 14.5l8 6.5q13 12 33.5 23t51.5 21q18 6 35 14t32 17t26.5 17t17.5 13q12 10 22.5 32.5t19 49.5t13.5 54t5 47q0 87 -146 156q-56 27 -103.5 40t-86.5 13h-16q-10 8 -20 8q-19 0 -19 -22t22 -76q37 -9 72.5 -20t52.5 -16
q4 11 5 11q17 0 37 -10.5t37.5 -26.5t29 -35t11.5 -35q0 -27 -5.5 -50.5t-22.5 -44.5t-49 -41.5t-85 -42.5q-43 -18 -62 -36v7q-14 -22 -24 -35.5t-17 -23t-10.5 -18t-3.5 -20.5q0 -4 6.5 -22.5t16.5 -39.5t23 -38t27 -17q22 0 75 36l-1 2q1 1 1 2q0 5 -9 13t-22 21z
M187 102q2 2 5 6.5t3 10.5q0 23 -91 23h-28q-27 -11 -27 -47q0 -15 3 -31t12 -34v-7q9 -8 16.5 -11.5t15.5 -5.5v1q10 -3 18.5 -5t16.5 -2q33 0 56 30q-3 21 -3 44q0 25 2 28h1zM188 104l-1 -1q0 1 1 1z" />
    <glyph glyph-name="A" unicode="A" horiz-adv-x="637" 
d="M27 8q13 -8 25 -8q29 0 49 26q18 54 47.5 137.5t68.5 190.5q7 5 18 5t31 -5.5t43 -5.5q4 0 11 0.5t15 0.5t16 0.5t14 0.5q11 0 20.5 -2t18.5 -5q18 -39 43 -96t57 -128q-1 -6 -1 -11v-9q0 -13 4 -28.5t12 -31.5v1l8 -23q17 -3 32.5 -4t29.5 -1q11 0 27.5 1t37.5 5v22
q0 23 -13.5 56.5t-29 64.5t-29 54t-13.5 26q-2 8 -5 14.5t-5 12.5q-21 58 -36 100.5t-28.5 77t-27 64t-30.5 62.5q-15 34 -33 79t-35 93v2q0 5 -6 14.5t-14 19.5t-17 17t-15 7t-12 -1t-12 -6h1q-16 -10 -25 -26t-13.5 -33t-6 -32.5t-1.5 -24.5q0 -2 2 -2q-9 -17 -21 -45
t-25.5 -58.5t-28 -59t-28.5 -46.5q-13 -48 -34 -108.5t-53 -137.5q-10 -24 -20 -48.5t-18 -47t-13 -42t-5 -31.5q0 -29 23 -47zM340 519q5 -19 10.5 -35t11.5 -29q-9 -1 -23.5 -2.5t-29.5 -3.5t-28.5 -3.5t-20.5 -1.5h-3q14 38 30.5 75.5t35.5 61.5q3 -11 7.5 -26.5
t9.5 -35.5z" />
    <glyph glyph-name="B" unicode="B" horiz-adv-x="513" 
d="M495 232q31 17 31 44q0 12 -9 23t-33.5 26.5t-66.5 40t-108 65.5q0 -1 18 12t59 45q48 35 49 72q-12 23 -40.5 48t-59.5 47.5t-57 39t-31 21.5q-12 1 -28 10t-31 20.5t-26 22t-13 13.5q-6 1 -15.5 4t-20.5 6t-21.5 5.5t-17.5 2.5q-3 0 -7.5 -0.5t-15.5 -4.5
q-12 -80 -12 -172q0 -17 1.5 -53t3 -78.5t3 -84t1.5 -68.5q0 -49 -3 -94q0 -5 1.5 -14t5.5 -15l1 -8q-1 -1 -11 -4l-5 -204h30q143 78 250 136t178 96zM157 212q0 13 -1 37.5t-2 54.5t-3 62.5t-3 62t-2 54t-1 38.5q0 74 9 134q13 -9 31.5 -23t38 -29.5t38 -30t32.5 -23.5
q-61 -46 -92.5 -80.5t-31.5 -41.5q0 -2 0.5 -5t5.5 -11l59 -31q15 -9 27 -19.5t20 -21.5q74 -34 102 -53l-228 -127q0 13 0.5 26t0.5 27z" />
    <glyph glyph-name="C" unicode="C" horiz-adv-x="517" 
d="M464 3q68 27 70 74q-45 29 -80 55t-62.5 47.5t-48.5 39t-38 29.5q-57 38 -90 68.5t-44 65.5q7 12 20 24t30 24l35 26q4 12 18.5 28.5t30.5 32.5l23 22q0 9 12.5 22.5t31.5 30t43 36t46 40t40.5 42t27.5 42.5q-1 4 -3 10h2l-2 2q-3 4 -6 7t-8 7l-5 5l-12.5 12.5t-16.5 6.5
q-8 0 -23 -7v1q-75 -39 -146 -113l-122 -124q-41 -22 -80 -61q-9 -31 -39 -61l-66 -68q88 -97 186 -178t207 -149q15 -32 64 -39h5z" />
    <glyph glyph-name="D" unicode="D" horiz-adv-x="669" 
d="M643 320q11 11 23 20l19 21h-4q4 10 4 17q0 5 -8 23q-63 65 -120 112t-110 82q-15 26 -36.5 44.5t-50.5 34.5t-67.5 32t-86.5 37q-32 14 -48 24.5t-24 18t-12 11t-13 3.5q-6 0 -20 -4t-40 -13q-7 -34 -7 -66q0 -13 2.5 -38.5t6 -52.5t6 -51.5t2.5 -36.5q0 -30 -2.5 -69
t-5.5 -83t-6.5 -92.5t-4.5 -99.5q-2 -45 -3.5 -96.5t-3.5 -97.5h77q11 14 26.5 22t35.5 13l80 17q46 41 87 70t83.5 56t90.5 56.5t108 70.5q5 5 10.5 9t7.5 6h4zM492 341q-9 -5 -16 -10t-16 -11l-250 -172l-47 -11q-7 27 -7 61q0 26 5.5 52t17.5 50q-7 15 -7 28
q0 11 7.5 31.5t11.5 52.5q-23 77 -23 159q0 18 1 36.5t4 35.5q75 -49 152 -70q15 -12 43.5 -39.5t59.5 -58t59.5 -58.5t44.5 -42q-14 -17 -39 -34h-1z" />
    <glyph glyph-name="F" unicode="F" horiz-adv-x="548" 
d="M517 692l6 4l6 4h-1q14 9 26.5 20t12.5 27v6q-26 47 -94 47q-15 0 -42.5 -2t-59.5 -13q-5 -2 -10 -3t-9 -1q-33 0 -64 3.5t-65 3.5h-14q-87 -3 -158 -28q11 -24 11 -43v-16q-1 -5 -1 -10v-8q0 -21 5.5 -37.5t17.5 -27.5q-3 -9 -9 -29.5t-12 -44.5t-10.5 -47.5t-4.5 -37.5
q0 -20 3.5 -39t7.5 -37.5t7.5 -37t3.5 -39.5q0 -6 -2.5 -25.5t-5 -49t-5 -67t-2.5 -79.5q0 -19 1.5 -39.5t6.5 -46.5q41 2 80 11t78 23q-13 23 -13 39q0 17 -7 32v5v4q0 3 1 8v6q0 12 -9 23q-9 66 -15 122t-9 104l27 5q42 13 66.5 20.5t41 12t30 7t34.5 5.5q18 2 34 5
t29.5 10t24 20t18.5 36q-5 17 -22.5 27.5t-49.5 12.5q-62 -20 -126.5 -37.5t-113.5 -25.5q8 50 12 93.5t4 82.5q0 12 -0.5 24t-1.5 23q11 -2 22 -2h23q18 0 44.5 3t53.5 7.5t50 8.5t35 6q29 -18 50 -26t35 -8q8 0 13 0.5t8 1.5z" />
    <glyph glyph-name="G" unicode="G" horiz-adv-x="627" 
d="M508 668q34 11 60 31t33 43q-6 10 -15.5 25t-22 28t-26.5 22.5t-28 9.5h-7q-28 -21 -46.5 -35t-32.5 -25.5t-25.5 -21t-23.5 -20.5h1q-3 -2 -5.5 -4t-5.5 -4l-84 -85q-21 -21 -60 -51.5t-80 -64t-78.5 -67.5t-55.5 -63q34 -54 96 -107.5t158 -116.5q47 -30 79.5 -52
t50.5 -37q15 -3 34 -14.5t40 -24t41 -23t36 -10.5q10 0 20.5 2t24.5 6q3 86 19 148q-6 8 -8 14t-2 11q0 10 4 21.5t8.5 23t8.5 23.5t4 24q0 9 -4 26t-9.5 35t-9.5 33.5t-4 21.5q0 10 6 23.5t20 29.5q-35 17 -65 17q-17 0 -35 -3l-15 4q-10 6 -15 8t-7 2q-4 0 -3 -3.5
t-3 -3.5h-1q-11 1 -16.5 2.5t-8.5 2.5t-5.5 2t-5.5 1q-7 0 -17 -5.5t-10 -24.5q0 -10 1 -15q-1 -5 -1.5 -11.5t-0.5 -11.5l1 -12q0 -2 -0.5 -4.5t-0.5 -6.5v-5q0 -18 5 -24t30 -6h57q0 -28 4 -51.5t4 -52.5q0 -23 -2.5 -39t-6 -28t-7.5 -22t-8 -21q-222 113 -342 248
q11 16 17 27t14 21q54 51 134 109.5t190 126.5h-1q4 2 5.5 2.5t3.5 1.5z" />
    <glyph glyph-name="H" unicode="H" horiz-adv-x="555" 
d="M61 537q0 -12 0.5 -34t0.5 -46t0.5 -45.5t0.5 -32.5q0 -148 -24 -245q2 -10 2 -14q1 -1 -1 -11l-4.5 -22.5t-5 -24.5t-2.5 -16q0 -10 3 -20t8 -21q3 1 10.5 2t10.5 2h-1q29 4 50 10t41 27q-6 52 -6 106q0 28 1.5 61t5.5 71l6 67q1 13 2.5 26t2.5 27q24 -2 54.5 -11
t57 -19t45 -18t20.5 -8q11 -6 24 -11.5t27 -10.5h-1q10 -4 18 -7t13 -6q6 -41 6 -86q0 -6 -1 -22.5t-1.5 -37.5t-1.5 -44.5t-1 -45.5q0 -11 0.5 -18.5t1.5 -15t3.5 -17t5.5 -24.5q16 -4 28.5 -5t22.5 -1q41 0 53 17.5t12 47.5q0 16 -3 30q-11 57 -17.5 118.5t-6.5 129.5
q0 59 6 137.5t14 166.5l12 119q-30 18 -90 38q-26 -5 -34 -16.5t-8 -33.5v-17q1 -7 1 -11v-8q0 -3 -0.5 -6.5t-2.5 -12.5l3 -9q0 -12 8 -23t11 -16q-4 -37 -11 -87t-7 -113q-15 1 -39.5 8t-50.5 14.5t-51 14t-43 8.5q-10 4 -25 7.5t-29.5 7t-24.5 8.5t-10 14v8q-2 15 -3 27
t-1 20q0 55 41 79q0 31 -3.5 51.5t-3.5 34.5q0 2 0.5 5t0.5 6v15q-16 7 -32 9.5t-33 2.5q-23 0 -56 -3q-8 -18 -8.5 -37.5t-8.5 -39.5l22 -48q-2 -26 -3 -56.5t-1 -65.5z" />
    <glyph glyph-name="I" unicode="I" horiz-adv-x="169" 
d="M39 398q0 -48 2 -94t6 -91l-4 -170q13 -22 27 -32.5t28 -10.5q13 0 20.5 6.5t11.5 15.5t5.5 19.5t1.5 18.5q0 5 -0.5 8t-0.5 5v40q0 33 -0.5 79.5t-1.5 92.5t-1.5 84t-0.5 54q0 196 27 328q2 4 2.5 7t0.5 8q0 32 -41 34q-7 -4 -17 -4q-4 0 -14.5 1t-14.5 1q-24 0 -34 -12
t-10 -40q0 -48 20 -79q-12 -150 -12 -269z" />
    <glyph glyph-name="J" unicode="J" horiz-adv-x="429" 
d="M420 406q0 33 -25 74l-10 112q0 2 0.5 3.5t0.5 3.5q0 12 -1.5 27t-1.5 23q0 15 4 26t9.5 20t9.5 17.5t4 19.5q0 32 -22.5 50t-67.5 18q-31 0 -50 -15.5t-19 -48.5t17 -57v-14q0 -29 1 -71.5t2.5 -92.5t3.5 -103.5t4 -102.5t3.5 -91t2.5 -69q-8 3 -15 3h-14
q-6 0 -12.5 2.5t-15.5 11.5q-13 13 -25 17.5t-24 4.5q-8 0 -13.5 -0.5t-10.5 -1.5l-7 -2l-2 6v-1q-6 8 -16 20t-24 18l-61 18q-14 -5 -21.5 -17t-10.5 -19l-2 -5q-5 -10 -5 -14q7 -22 14 -36t16.5 -22.5t23 -12.5t34.5 -5q23 -1 46 -6t43 -25t33.5 -27.5t25.5 -10.5
t23.5 -4.5t26.5 -8.5l10 14l3 -4t3 -8q0 -3 -5 -3h-3q1 -1 5 -1q5 0 9.5 -1.5t9 -4.5t7.5 -10h16q29 0 42 12.5t13 47.5q2 14 4.5 21t4.5 12v-1q5 7 5 20q0 7 -3.5 13.5t-8 14t-8 19t-3.5 29.5q0 32 3.5 78.5t5.5 88.5q18 19 18 51z" />
    <glyph glyph-name="K" unicode="K" horiz-adv-x="542" 
d="M527 798h-6q-3 1 -5.5 1.5t-7.5 0.5q-15 0 -25 -8.5t-18.5 -20.5t-16 -24t-16.5 -19q-17 -14 -44 -45t-56.5 -65t-57 -64t-44.5 -42l-6 -12q-11 -3 -30 -9.5t-34 -22.5l-31 -29q-2 5 -2 11v13v24q2 9 2 16v13v9t-1 9q8 35 12.5 67t4.5 62q0 15 -1 29t-3 28l4 3v7
q9 16 9 22q0 18 -26 27h-5q-22 0 -72 -19q-4 -16 -7 -44t-5.5 -58t-5 -57t-5.5 -42q2 -28 3.5 -64.5t1.5 -79.5q0 -26 -0.5 -58t-1.5 -66t-1.5 -66t-0.5 -58q0 -38 1 -72t4 -63q12 0 18 -5t10.5 -11t9.5 -11t14 -5q5 0 10 1t12 5l25 26v265q21 -19 55.5 -50t72.5 -63.5
t74 -61.5t59 -43q7 -4 18 -15.5t23.5 -23.5t26.5 -21.5t28 -9.5q6 0 16 1t20.5 6t18 14.5t7.5 27.5q0 41 -59 67h-8q-7 0 -9 1v3q0 8 -8 16v-5l-12 -5q-9 10 -36 36.5t-63 59.5t-77 67.5t-78 61.5q21 16 44.5 41.5t49.5 58.5q26 35 54 61t57 51h-1q17 15 35 31t36.5 35.5
t37.5 43t40 54.5v8q-2 17 -6 30t-22 24zM463 149q1 -2 5 -4q-1 4 -5 4z" />
    <glyph glyph-name="L" unicode="L" horiz-adv-x="471" 
d="M426 4l36 21q0 1 1 9.5t5.5 19.5t14.5 16q-7 4 -17 9.5t-20.5 10t-21 7.5t-17.5 3q-6 0 -20 -1.5t-30.5 -3t-32.5 -3t-27 -1.5h-6q-22 11 -63 14l-56 4q-5 42 -7 76t-3.5 71.5t-4 83.5t-6.5 112q-4 62 -6 109t-2 82v12q20 20 20 54v7q0 6 -1.5 18.5t-1.5 19.5t2.5 16
t6.5 20q-14 5 -24 8t-16 3q-9 0 -22.5 -5.5t-26.5 -12.5t-24 -14t-14 -9q-6 -14 -10 -22.5t-4 -13.5l21 -316q-5 -22 -7.5 -46t-2.5 -53q0 -13 1.5 -33.5t3.5 -44.5t4.5 -50t4.5 -48t3.5 -39t1.5 -23q0 -14 -2 -32t-6 -39q92 2 173.5 3t138.5 1h64z" />
    <glyph glyph-name="M" unicode="M" horiz-adv-x="931" 
d="M885 8q48 0 48 51q0 2 -0.5 6t-2.5 15q-17 53 -36.5 123t-40.5 149t-43 164t-43 168q25 45 25 62q0 16 -13 36h-12q-6 0 -11 -2h-8q-9 0 -23 9v-1q-8 5 -15 8.5t-19 3.5q-23 -51 -48 -104t-47.5 -104t-39.5 -98t-23 -86q-4 -8 -11.5 -22t-16 -29l-17 -30t-14.5 -25l-9 21
q-17 15 -32 41.5t-28.5 55t-24.5 54t-21 37.5q-8 10 -17 39t-20 63.5t-25.5 68.5t-33.5 53q-2 17 -11.5 31t-15.5 19q0 -6 -1 -7t-8 -1v19h-10q-72 0 -72 -60q0 -6 1.5 -19t4 -27t4 -26t1.5 -17q0 -17 -8 -30q-12 -116 -31.5 -210.5t-37.5 -162.5t-32 -106.5t-15 -42.5v1
q-9 -23 -13.5 -44t-4.5 -43q11 0 22 -1t22 -3l39 -5q9 0 16.5 1.5t16.5 6.5q10 27 19.5 67t17.5 82.5t16 81.5t16 62l3 20t8 50.5t13.5 67t19.5 69.5l45 -56q42 -112 77 -194.5t67 -137.5l4 -24t6.5 -21.5t12 -15t21.5 -5.5h10q11 13 21 32.5t20 39.5t19.5 37t20.5 25
q3 30 14 63.5t26 68.5t33.5 72t38.5 75l14 29q32 -80 57 -193l50 -234l20 -26q13 -18 27.5 -26.5t37.5 -8.5z" />
    <glyph glyph-name="N" unicode="N" horiz-adv-x="570" 
d="M46 321l-1 -140q-9 -17 -12.5 -37.5t-3.5 -43.5q0 -27 9 -97q15 -2 27.5 -3t24.5 -1q37 0 65 14v42q0 9 -3 15t-6.5 12t-6.5 13t-3 16q0 11 2 25.5t4.5 29t4.5 28.5t3 24q-7 6 -7.5 16t1.5 21.5t4.5 23t2.5 19.5q0 23 6.5 51t6.5 58v18q0 2 -0.5 4t-0.5 4v10
q0 11 -2.5 19.5t-4.5 20.5q21 -27 49 -64t54.5 -75t48.5 -73.5t31 -57.5q35 -32 56.5 -52.5t33 -36.5t15 -30t3.5 -33q0 -32 21.5 -46t59.5 -14h10q12 0 17 8t7 19.5t1.5 24.5t-0.5 22q0 34 -2 76.5t-5 87t-5 89t-2 82.5q0 52 4 94t13 75q-11 30 -11 74q0 6 1 18t2 27.5
t2 33t1 34.5v17l-19 20q-21 -8 -41.5 -9t-36 -5t-25.5 -14.5t-10 -36.5q0 -28 19 -43l-4 -384l-24 22q-6 26 -26.5 48.5t-44.5 33.5q-13 25 -33.5 51.5t-44.5 56t-50 62.5t-48 70v1q-20 36 -45 72t-71 62q0 -25 1.5 -47t3 -43.5t3 -43.5t1.5 -47q0 -15 -1 -32.5t-3 -35.5
q-8 -74 -12 -128.5t-4 -91.5z" />
    <glyph glyph-name="O" unicode="O" horiz-adv-x="795" 
d="M469 6q55 12 106.5 42t94 73t73 95t43.5 108q-1 5 -4 43t-6 112q-4 91 -32.5 151.5t-75.5 97.5t-110 52.5t-136 15.5q-51 0 -100 -11.5t-95 -33.5q-7 -15 -27 -29.5t-42 -28t-41 -26t-23 -24.5q-32 -70 -49 -138t-17 -134q0 -161 104 -274q136 -98 266 -98q39 0 71 7z
M663 492q-1 -17 -8.5 -39t-15.5 -41q20 -36 20 -73q0 -40 -24 -81.5t-69 -83.5q-5 -5 -16 -5q-4 0 -7 1h-9q-30 0 -32 -26q-25 -11 -54.5 -17t-64.5 -6q-21 0 -45.5 2t-48.5 8t-45 17t-34 29v-1q-5 9 -12 28.5t-16 42.5t-19.5 45t-21.5 36q12 27 12 64q0 9 -2 27.5t-2 40.5
v19q17 43 41 82t54 77q10 1 27.5 5t36 8.5t35 8.5t24.5 4q10 0 25 -4q31 14 68 14q28 0 52.5 -5.5t46.5 -17.5t44 -32.5t46 -50.5q11 -16 16.5 -27.5t5.5 -21.5q0 -7 -2 -12.5t-4 -10.5z" />
    <glyph glyph-name="P" unicode="P" horiz-adv-x="440" 
d="M455 524q-54 60 -107.5 105t-107.5 73q-4 -1 -6.5 -2t-4.5 -2v1q0 17 -6.5 26t-19 15t-30.5 12t-41 18q-23 11 -45.5 20.5t-45.5 9.5l-2 -97q10 -56 17 -119.5t7 -134.5v-129v-62t1 -61q-10 -9 -14 -20.5t-5.5 -24.5t-3 -25t-5.5 -21v-6q0 -11 -4.5 -26t-4.5 -33
q0 -9 2.5 -18.5t10.5 -20.5q5 0 15.5 0.5t22.5 0.5t23.5 0.5t18.5 0.5q12 0 24 -3l-1 1q6 -3 17 -3q7 12 8.5 16.5l2.5 7.5v26q0 9 5.5 23.5t5.5 27.5q0 9 -4.5 14t-10 11t-10 15t-4.5 25q0 9 4 28t9 41t9 42.5t4 31.5q0 16 -3 30q95 33 164 76.5t115 96.5v13zM175 481
q0 11 -3 33t-6.5 46t-6.5 46t-3 33v7l8 -1q17 -11 32.5 -22.5t33.5 -26.5t40 -34t52 -46q-71 -50 -150 -71q3 18 3 36z" />
    <glyph glyph-name="Q" unicode="Q" horiz-adv-x="655" 
d="M628 284v14q0 3 2 6l1 2q3 5 6 8.5t9 9.5q-2 29 -6.5 59.5t-10.5 61.5l-12 47q-2 6 -3.5 12t-3.5 12l-8 29q2 8 3 17t1 18q0 33 -13.5 57.5t-38.5 48t-61.5 50t-81.5 62.5q-6 1 -12.5 1.5t-17.5 0.5q-18 0 -44.5 -7t-54.5 -15.5t-53.5 -16.5t-40.5 -10q-40 -38 -78.5 -95
t-74.5 -135q-2 -26 -3 -50.5t-1 -47.5q0 -35 3 -77.5t11.5 -80.5t23.5 -65t39 -31q14 -2 21.5 -3l7.5 -1q19 -20 43.5 -31.5t53 -18.5t59 -11.5t61.5 -10.5q13 0 26.5 3t25.5 6.5t21 6.5t13 3q8 0 20.5 -11.5t22.5 -40.5v1q4 -10 7.5 -18.5t7.5 -15.5h-4q12 -14 23 -20.5
t19 -6.5q7 0 13.5 5t12.5 11t13.5 11.5t18.5 7.5v14q0 2 0.5 3t0.5 3q0 29 -26 67q-29 20 -29 39q0 8 10 24t23 34t26.5 35t19.5 27zM443 271q-14 14 -27.5 28.5t-33.5 31.5l-66 -67q0 -2 3.5 -10.5t10 -20.5t15 -26t18.5 -26h-8q-49 0 -89.5 11.5t-70 39.5t-47 75
t-18.5 118h-28q6 2 17 17.5t13 48.5q25 78 65.5 129.5t97.5 78.5h6q2 0 4.5 0.5t4.5 0.5q30 0 61 -8.5t58 -26t47 -44.5t29 -63q2 -11 5 -19t5 -14l-5 -3q0 -9 0.5 -13t1.5 -9l9 -61q0 -8 -9 -36q26 -9 26 -15q0 -3 -4 -16.5t-4 -24.5v-2q-11 -29 -25.5 -54.5t-33.5 -49.5
q-6 6 -13 14t-15 16z" />
    <glyph glyph-name="R" unicode="R" horiz-adv-x="558" 
d="M539 9q14 9 20 18t9 20h-1l6 15q-57 48 -101.5 94.5t-79 89t-60 79.5t-45.5 66l1 -1q-2 3 -3.5 6t-3.5 6v10q11 6 32.5 13.5t45.5 15t46.5 16t35.5 16.5q54 39 88 84q-14 44 -37 77.5t-61 59.5t-95 46t-139 38q-26 5 -53 11t-49 12q-33 -10 -41 -33.5t-8 -52.5v-37
q9 -24 9 -69q0 -12 -1.5 -28t-3 -33.5t-2.5 -35.5t-1 -34q0 -27 3.5 -50t11.5 -41q-20 -34 -20 -74q0 -11 3.5 -32t7.5 -44.5t7.5 -45t3.5 -33.5q-31 -21 -31 -62v-18q1 -5 1 -9v-5q0 -16 -7 -34l25 -29q10 -3 20 -4t22 -1q20 0 38 5.5t37 16.5q1 13 1 30v34q0 15 -1 47
t-2 67.5t-2 67.5t-1 47v36q14 -2 25.5 -7.5t23.5 -15.5t25.5 -26.5t31.5 -41.5q35 -52 62 -72q11 -2 17 -15t13 -32t17.5 -39.5t31.5 -37.5q14 -11 24.5 -22.5t19.5 -20.5t17.5 -15t17.5 -6q4 0 10 2t14 5h-1q6 2 11 4t8 2h7zM172 464l-9 -3q1 7 1 16v20q0 18 -1.5 41.5
t-1.5 49.5q0 49 14 77q32 -4 58.5 -6t53 -11t57 -28t70.5 -57q-97 -44 -154 -66.5t-88 -32.5z" />
    <glyph glyph-name="S" unicode="S" horiz-adv-x="413" 
d="M344 660q31 9 48 39.5t25 80.5q-11 2 -23 5.5t-24 6.5t-21.5 6t-15.5 5l-115 -108q-25 -24 -40.5 -42t-28.5 -34.5t-27 -33t-36 -36.5q-12 -12 -18 -23t-6 -25q0 -17 16.5 -37t39 -40t46 -37.5t37.5 -28.5q17 -13 33 -24.5t29 -22.5l6 -38q-12 -24 -31 -42.5t-42 -34
t-48.5 -29t-50.5 -25.5q-40 -28 -59 -57.5t-19 -58.5v-17q14 -5 23.5 -7t16.5 -2q32 0 57.5 17.5t60.5 47.5l21 18q6 6 13 9.5t13.5 7.5t12.5 9t11 16t14.5 19t20.5 14q2 10 18 21t34.5 25.5t33.5 33.5t16 43q-17 30 -39.5 59t-47.5 56t-52 51t-53 43q10 10 28.5 31t39 46
t40.5 50t33 43h10z" />
    <glyph glyph-name="T" unicode="T" horiz-adv-x="673" 
d="M662 694q0 6 1 7q2 9 5 23t3 20q0 15 -7 23.5t-18 12.5t-25.5 5t-29.5 1q-10 0 -33.5 -2t-50.5 -5t-53 -5t-40 -2h-8q-28 8 -68.5 7.5t-100.5 1.5q-54 2 -93.5 6t-65.5 9h1q-8 2 -18 3t-15 2q-25 -54 -25 -82q0 -29 12 -36t27 -7h11q14 -5 24 0.5t12 5.5q1 0 2.5 -0.5
t3.5 -0.5q21 -3 34 -4l19.5 -1.5t8.5 0l2 0.5h25q41 0 70 -8q-2 -7 -4 -15.5t-4 -16.5q-2 -5 -2.5 -11t-1.5 -8q24 -54 24 -119q0 -16 -2 -43.5t-4.5 -56.5t-4.5 -54t-3 -35q2 -14 3 -31.5t1 -38.5q0 -14 -0.5 -32.5t-1.5 -38t-1.5 -38t-0.5 -32.5v-24q0 -34 5.5 -54
t34.5 -20l21 3q5 1 9.5 1.5t6.5 0.5t5.5 -0.5t10.5 -2.5q26 37 32 83.5t8 100.5q5 15 7.5 30.5t2.5 32.5q0 11 -2.5 33t-5.5 45v-1q-3 22 -6 42.5t-3 28.5q0 26 7 47.5t7 48.5q0 10 -2.5 28.5t-5 38t-5 37t-2.5 24.5q0 28 11 50l63 5q22 8 54 8q8 0 19 -1t23 -1.5t23 -1.5
t20 -1q14 0 25 1t22 5z" />
    <glyph glyph-name="U" unicode="U" horiz-adv-x="593" 
d="M558 380v26q0 2 -0.5 5t-0.5 6q0 28 7 77t15 103t15 104.5t7 81.5q-26 9 -52 13t-52 4h-13q-22 -3 -35 -6t-19.5 -7t-8.5 -10t-2 -15q0 -8 1 -12q-2 -5 -2 -15q0 -8 6 -20t20 -27q8 -11 8 -17q0 -18 -2 -38.5t-2 -40.5q0 -15 1 -46t1.5 -65t1.5 -65t1 -46q0 -29 -2 -61.5
t-5 -67.5q-27 -48 -42.5 -71.5t-30 -33.5t-34 -12t-56.5 -6q-39 2 -65.5 13t-38.5 31q-6 29 -11.5 73.5t-10 95t-7.5 102.5t-6 96.5t-5 76.5t-3 43v6q0 6 2 18t4.5 25t4.5 25.5t2 18.5q0 9 -2 18t-8 23l-96 -22q-10 -73 -14.5 -126t-4.5 -88v-12q19 -48 19 -122
q0 -9 -0.5 -29t-1.5 -42.5t-1.5 -44.5t-0.5 -35q0 -55 12 -103t41 -83t78 -55.5t123 -20.5q37 0 65.5 3.5t51 14.5t40.5 30.5t35 51.5q9 18 16 27t12.5 19t10 26t10.5 48q3 19 7.5 40t8.5 42.5t6.5 41.5t1.5 36z" />
    <glyph glyph-name="V" unicode="V" horiz-adv-x="619" 
d="M570 656q1 2 9 12t17.5 23t18 27t10.5 24q-26 47 -64 47h-8q-28 -11 -45 -28t-28 -40t-19.5 -52.5t-18.5 -64.5h1q-5 -13 -8.5 -28t-8.5 -30t-11 -27t-15 -19q-6 -23 -14.5 -41.5t-17 -38t-16 -43.5t-11.5 -59v1q-9 -39 -25 -63q-30 60 -45.5 106t-27 89.5t-24 89
t-35.5 103.5q-16 41 -31 79t-15 66q-15 0 -19.5 -1.5t-5.5 -3.5q-11 11 -26.5 13.5t-26.5 2.5q-31 0 -51 -26q10 -22 11.5 -46t4.5 -44.5t14 -35t42 -16.5q96 -224 162 -517q9 -17 10 -35.5t5 -35t16.5 -29.5t45.5 -17q25 61 55.5 139.5t63 165.5t66 177t64.5 173z" />
    <glyph glyph-name="W" unicode="W" horiz-adv-x="894" 
d="M750 688l-38 -67q-11 -20 -23.5 -52.5t-23.5 -66.5t-19.5 -62.5t-12.5 -38.5q-14 -18 -24 -39.5t-18 -42.5t-15.5 -40.5t-17.5 -34.5q-4 22 -12.5 56t-17.5 71t-17.5 72.5t-12.5 60.5q6 8 12 22.5t12 30t11.5 29t11.5 20.5q16 19 28 39t23 40t22.5 39.5t27.5 38.5
q-26 0 -37.5 1t-19.5 2.5t-16.5 2.5t-26.5 1q-15 0 -30.5 -18t-29.5 -43t-25.5 -52t-18.5 -45q-11 19 -20.5 44.5t-19.5 52t-21.5 51t-25.5 42.5q-29 -6 -58 -17t-58 -30q7 -25 25.5 -58.5t40.5 -66t42.5 -60t31.5 -39.5l-10 -3q12 -23 12 -46q0 -14 -8.5 -38t-19 -49
t-20.5 -47.5t-13 -34.5q-10 -20 -16.5 -34.5t-11.5 -24.5q-9 24 -18.5 50.5t-17.5 52.5t-14.5 49.5t-9.5 41.5l-12 64q-5 26 -14.5 49t-19.5 43.5t-17 40t-8 38.5q-1 25 -4 42t-9.5 28t-16 18.5t-24.5 13.5q-14 -3 -26.5 -5.5t-24 -6.5t-22 -10t-19.5 -18q7 -56 25 -102
t41 -96.5t48 -114t48 -154.5q23 -94 44.5 -164.5t44.5 -121.5q51 105 93 193.5t71 148.5q7 -15 16 -36.5t17.5 -42t14.5 -36t7 -17.5q6 -20 8 -31t2 -22q0 -10 -1 -22.5t-1 -34.5q0 -29 3.5 -47t12 -28t22 -13.5t34.5 -3.5q22 38 35.5 70.5t25.5 65.5t24.5 69t33.5 81
q14 33 22.5 60t11.5 47q69 77 103 195q55 46 55 98q0 7 -2 15l19 28q-14 23 -28 31t-26 8q-17 0 -27.5 -8.5t-11.5 -9.5zM422 351l-2 3q0 1 2 -3z" />
    <glyph glyph-name="X" unicode="X" horiz-adv-x="549" 
d="M524 725h-3q2 7 4 15.5t4 19.5l-16 22l-88 1q-16 -15 -28 -38.5t-23.5 -49t-24.5 -50t-31 -41.5q21 -15 21 -22q0 -3 -5.5 -16.5t-13 -30.5t-16 -35.5t-15.5 -31.5q-14 26 -25 52t-21.5 50t-21 45t-23.5 36q-21 25 -31.5 45.5t-18.5 35t-17 22.5t-27 8q-20 0 -45.5 -9.5
t-50.5 -9.5q10 -61 66 -126q17 -3 30 -17t22 -30t15 -30t8 -17q2 -9 16 -27.5t30.5 -40t29.5 -43t13 -35.5q0 -6 -11 -26t-25.5 -44.5t-29.5 -49.5t-23 -41l-17 -36q0 -8 -7 -16t-16.5 -15.5t-19 -13t-14.5 -9.5q0 -25 -9 -57.5t-9 -63.5q22 0 41.5 -3.5t35.5 -3.5
q38 0 54 36v6q0 2 4 7.5t9 11.5t9 13t4 12q0 9 -6 17l82 152q17 -27 39.5 -65.5t45 -77.5t43 -73.5t34.5 -53.5q44 0 69.5 1t42.5 7q-79 108 -133.5 203t-85.5 182q41 84 74 158t61 142q28 12 44 49z" />
    <glyph glyph-name="Y" unicode="Y" horiz-adv-x="576" 
d="M255 30q0 -29 10.5 -40.5t39.5 -11.5h7q6 0 11 1h16q7 0 11.5 -0.5t9.5 -2.5q47 2 47 34q0 4 -0.5 5l-1.5 3v3q-33 132 -33 334l-1 4v32t-1 31q22 36 42.5 77t39.5 78.5t36 66.5t31 40h4q17 0 26.5 5.5t14.5 16t7 25.5t4 35v-1q0 5 1 14.5t2 14.5q-31 3 -49.5 4t-20.5 1
q-42 0 -65 -17l-69 -142v1q-17 -32 -32.5 -61t-29.5 -53q-3 7 -3.5 9.5t-2.5 7.5t-7 15.5t-18 31.5q-12 21 -29 49.5t-37.5 57.5t-43 56t-45.5 45q-11 -3 -17 -3q-13 0 -31 2.5t-22 2.5q-8 0 -16 -2t-22 -8v-12q0 -5 2 -9v1q1 -4 1 -7q0 -4 -2 -14.5t-5 -27.5
q25 -13 42.5 -24t33.5 -28t33.5 -43t44.5 -69q13 -22 27.5 -38.5t27.5 -30t23.5 -25t15.5 -23.5l2 -141q1 -47 5 -94t9 -98q-23 -28 -23 -78z" />
    <glyph glyph-name="Z" unicode="Z" horiz-adv-x="687" 
d="M668 19q3 14 6.5 31t6.5 33.5t5.5 30t3.5 21.5l-73 2q-89 -24 -196 -24q-10 0 -62.5 2.5t-150.5 8.5q14 17 29 40.5t26 55.5h1q38 68 102.5 167t157.5 233q31 17 53 57t50 96q-101 22 -159 22h-17t-15 -1l-21 -10h-20t-45 0.5t-59.5 1.5t-64.5 3t-60 4.5t-45 6.5
q-11 -4 -18.5 -10.5t-21.5 -8.5h-8q-5 0 -8.5 0.5t-6.5 0.5h-8q-16 0 -18.5 -6.5t-2.5 -18.5v-3q0 -6 2 -16.5t4.5 -21t4.5 -19.5t2 -11q0 -6 -7 -19l20 -20l40 3q45 5 85.5 11t66.5 26q15 5 27 5t19.5 -2.5l15 -5t16.5 -5t22 -2.5q3 0 10.5 0.5t16.5 0.5t17.5 0.5t14.5 0.5
q7 0 17 -2l-10 -29q-14 -13 -32 -38.5t-37 -53.5t-37.5 -52.5t-32.5 -36.5q-16 -22 -39 -59t-48.5 -80.5t-52 -90t-50 -87t-41.5 -71.5t-26 -44l48 -35q2 0 14 0.5t30 3.5t30 8q21 -2 45.5 -3.5t53.5 -1.5q19 0 55.5 2t75 4.5t73 4.5t49.5 2q27 -11 57 -11q7 0 20 1.5
t28 3.5t29 3.5t24 1.5h19z" />
    <glyph glyph-name="bracketleft" unicode="[" horiz-adv-x="314" 
d="M280 16l9 125q-28 -13 -54.5 -19.5t-55.5 -6.5h-15q3 9 3 23q0 38 -26 96q0 6 3.5 25.5t7.5 43.5t7.5 48t3.5 41q0 8 -0.5 14.5t-1.5 13.5l-16 88v-1q-1 5 -1 15v23q0 15 0.5 28t1 29.5t1.5 38.5t2 54l88 -11l39 46v71l-238 -23v-30q0 -5 0.5 -10.5t0.5 -10.5
q0 -30 -1.5 -51t-4.5 -45.5t-6.5 -59t-7.5 -91.5q5 -18 14 -32t9 -23q0 -18 1 -54.5t2.5 -75.5t2.5 -74t1 -51q0 -40 -3 -78t-11 -76q68 -10 105.5 -14.5t48.5 -4.5q42 0 83 9z" />
    <glyph glyph-name="backslash" unicode="\" horiz-adv-x="374" 
d="M122 431q16 -31 28 -57t20 -50t11.5 -46.5t3.5 -46.5v-15l84 -167q-3 -3 -3 -13q1 -5 7 -12t14.5 -13.5t18.5 -11.5t21 -5q-3 0 6 0.5t20 4.5t21 12.5t10 25.5q0 7 -5 19t-11.5 25.5t-12.5 26t-8 21.5q-3 5 -19 42.5t-39.5 93.5t-51 123.5t-53.5 133t-47 122.5t-31 92
q1 2 1 5q-2 8 -14 23t-28 30t-32 26t-24 11l-17 -2q2 -71 22.5 -139t47.5 -133l-2 -3q7 -18 22 -47.5t40 -75.5z" />
    <glyph glyph-name="bracketright" unicode="]" horiz-adv-x="314" 
d="M25 769l-8 -126q52 26 110 26h14q-2 -5 -2 -10v-12q0 -19 5.5 -43.5t19.5 -53.5q0 -6 -3.5 -25t-7.5 -43t-7.5 -48.5t-3.5 -41.5q0 -8 0.5 -14t1.5 -13l16 -89v1q1 -5 1 -15v-23t-0.5 -28t-1 -31.5t-1.5 -39t-2 -50.5l-88 10l-39 -45v-72l238 24v29q0 6 -0.5 11.5
t-0.5 10.5q0 30 1.5 51.5t4 46.5t6.5 59t9 89q-12 26 -18 63.5t-9 80t-3.5 86t-0.5 81.5q0 39 3.5 77.5t10.5 76.5q-67 10 -105 14t-49 4q-21 0 -41.5 -2t-40.5 -6z" />
    <glyph glyph-name="asciicircum" unicode="^" horiz-adv-x="479" 
d="M414 346l-3 3q-23 48 -43.5 98t-42.5 99q-66 145 -135 192q-20 -6 -31 -18t-17.5 -24.5t-10.5 -22.5t-8 -12q-4 -8 -11 -21t-14 -24h1q-11 -17 -19 -32.5t-8 -30.5q-12 -20 -29 -70t-37 -132h1q-2 -5 -2 -10q0 -29 35 -29l35 7q15 17 29 38.5t25 41.5t18 36.5t7 22.5
l5 29q0 13 4 29t24 45q3 14 5.5 24.5t4.5 20.5q23 -38 51 -107.5t64 -163.5l2 -4q20 -20 43 -20q6 0 15 6.5t23 6.5h10l13 16v0q1 0 2 1h-3q-2 1 -2.5 1.5l-0.5 0.5v3z" />
    <glyph glyph-name="underscore" unicode="_" horiz-adv-x="587" 
d="M20 14q57 -9 101.5 -14t76.5 -5q10 0 15 2l112 10q7 0 16.5 0.5t23.5 0.5q23 0 46.5 -0.5t43 -1t32.5 -1t16 -0.5q34 12 34 35q0 20 -28 42h-7q-1 0 -3 -0.5t-7.5 -1t-18.5 -1.5h-10q-9 -1 -16 -1h-15q-24 11 -70 11h-15q-6 0 -13 -1l-126 -8h1q-3 0 -12.5 0.5t-20.5 1
t-21.5 1t-16.5 0.5q-16 0 -30 -0.5t-26 -0.5h-61q-25 -29 -25 -41q0 -16 19 -25z" />
    <glyph glyph-name="quoteleft" horiz-adv-x="169" 
d="M86 653q-77 -4 -89 -45q12 -38 34 -79.5t53 -87.5q21 7 33.5 14.5t18.5 13.5z" />
    <glyph glyph-name="quoteleft" unicode="&#x2018;" horiz-adv-x="169" 
d="M86 653q-77 -4 -89 -45q12 -38 34 -79.5t53 -87.5q21 7 33.5 14.5t18.5 13.5z" />
    <glyph glyph-name="b" unicode="b" horiz-adv-x="451" 
d="M455 270q-45 53 -114 95.5t-165 77.5q3 12 3 29q0 14 -4 36.5t-8.5 46t-8.5 45t-4 32.5q0 17 4.5 25.5t9.5 14t9.5 10.5t4.5 15q0 12 -6 27h1q-2 8 -4 14t-2 11v24q-1 3 -2.5 8t-8.5 17q-12 -2 -18.5 -5t-9.5 -5.5t-5.5 -4t-6.5 -1.5l-3.5 1t-7.5 3h1q-17 6 -39 7.5
t-31 1.5q-8 -11 -10.5 -20.5t-2.5 -18.5l5 -29q2 -9 3 -17t1 -13v-7q5 -11 10.5 -35t5.5 -43l2 -8q1 -4 3.5 -10t7.5 -11q-1 -31 -1 -61v-61v-129q0 -72 -7 -135.5t-18 -119.5l2 -97q21 0 43 9t43 19.5t39.5 19.5t33.5 10q14 4 22 17.5t8 25.5v1q6 -2 11 -4q105 57 214 179
v13zM259 207q-3 -3 -5 -4l-3 -3q-25 -23 -46.5 -39t-38.5 -24l-9 -2v7q0 10 3 32t6 46t6 46.5t3 33.5q0 8 -1 17t-3 18q41 -10 78 -27.5t73 -43.5q-23 -21 -38.5 -34.5t-23.5 -21.5z" />
    <glyph glyph-name="e" unicode="e" horiz-adv-x="450" 
d="M221 487q-2 -4 -4 -7.5t-6 -8.5q-32 -20 -66 -42t-61.5 -46t-45 -50.5t-17.5 -55.5q0 -22 3 -40.5t11 -40.5t22 -49t37 -66q6 -25 19.5 -48.5t28.5 -41.5t28 -29t18 -11q10 0 20 -6.5t15 -6.5q4 0 20 -9t37 -11h8q22 0 41.5 10.5t36.5 33.5q-7 20 -17 28.5t-22.5 12
t-27 6t-30.5 10.5t-32.5 24.5t-32.5 49.5q-2 2 -4 8q14 -5 29.5 -7t20.5 -2q10 3 16 10.5t10 16t8 16t10 11.5q36 30 65 48t49.5 33t31.5 32t11 45q0 4 -2.5 9.5l-5 11t-3.5 9t1 4.5q-7 14 -22 38.5t-40 63.5h1q-9 16 -25 30t-33.5 24t-34 16t-26.5 6q-8 0 -14 -3v1
q-11 -2 -17 -10t-9 -17zM135 250q1 14 -2 21t-5 12l16.5 16.5t27.5 26.5t28 26t19 16h-1q16 8 39 8h8q17 -12 28 -19.5t18 -14.5t11 -16t7 -24q-17 -35 -47.5 -64.5t-81.5 -37.5q-3 -3 -9.5 -5.5t-13 -4.5t-12 -5t-5.5 -7q-9 18 -15 35t-10 37z" />
    <glyph glyph-name="f" unicode="f" horiz-adv-x="350" 
d="M30 4q20 -2 36 -2h28q14 0 22 1t15 9q0 32 -3 51t-3 39v7q0 9 8 21.5t8 32.5v30q0 2 0.5 5t0.5 6q0 9 -6 16t-13 9q0 6 6 12t6 20q0 5 -2.5 17t-2.5 17q0 -1 1 3t1.5 9.5t1.5 11t1 8.5l4 86q5 0 11.5 -0.5t14.5 -0.5h13q15 -1 29 -1h25h18q23 1 41.5 4.5t29.5 8.5
q-5 17 -5 20q0 1 0.5 7t1.5 13t2 13.5t1 8.5q0 29 -24 30q-4 0 -13.5 -2t-20.5 -4.5t-20.5 -4.5t-12.5 -2q-4 0 -10 -1.5t-20 -1.5q-6 0 -18.5 6t-26.5 4q8 46 12 77t17 49.5t40 26.5t82 8h26q30 39 30 68q0 51 -65 68h-7q-11 0 -33.5 -7.5t-46 -17t-41 -17l-17.5 -7.5l2 -1
q-5 2 -8 3t-4 1h-1q-20 0 -37.5 -23t-30 -53.5t-20.5 -61.5t-10 -47q0 -33 -6 -65t-6 -65q0 -11 4 -27t4 -40q0 -14 -4.5 -33.5t-4.5 -41.5v-59q0 -29 -1 -55q0 -22 2.5 -28.5t2.5 -13.5q0 -12 -2 -31.5t-4 -39.5t-4 -36.5t-3 -23.5z" />
    <glyph glyph-name="h" unicode="h" horiz-adv-x="478" 
d="M27 757l11 -114q8 -88 14 -166.5t6 -137.5q0 -136 -25 -248q-1 -7 -1.5 -14.5t-0.5 -15.5q0 -15 2.5 -27t9.5 -20.5t20 -13t33 -4.5h21t20 6.5t14.5 23.5t5.5 51q0 22 -1 46t-1.5 45t-1.5 37t-1 22q0 23 1 44t4 41q8 3 19.5 7.5t24 10t23.5 10.5t19 10l-4 7q2 0 3 0.5
t2 0.5h1q5 2 11 6h-1q48 17 82 20l6 -53q6 -58 9 -109.5t4 -89.5q0 -24 -1.5 -51t-5.5 -56q12 -13 24.5 -21t29.5 -11l24 -3q3 0 14.5 -2t19.5 -4q10 21 10 41q0 9 -2 20t-4.5 22t-4.5 19.5t-2 12.5q0 5 2 15q-11 49 -17 109.5t-6 135.5q0 6 7.5 23.5t7.5 32.5
q0 3 -7.5 14.5t-19.5 25.5t-27 26.5t-30 15.5q1 -1 1 -2q0 -4 -6 -11l-12 15q-5 -3 -15 -6.5t-22 -7t-24.5 -7.5t-21.5 -7v7l-27 -9q-23 -12 -47.5 -17t-39.5 -5q-7 60 -9.5 111t-7.5 88q3 5 11 17.5t8 22.5v1q2 0 3.5 0.5t2.5 0.5q-3 8 -5 15.5t-2 10.5t1.5 14.5t1.5 22.5
q0 20 -9 32.5t-35 17.5q-22 -6 -43.5 -16t-38.5 -19zM368 497h-1q0 1 -1 1l0.5 -0.5t1.5 -0.5z" />
    <glyph glyph-name="i" unicode="i" horiz-adv-x="176" 
d="M161 468q0 28 -9.5 40t-33.5 12q-5 0 -15 -1t-15 -1q-10 0 -17 4q-41 -2 -41 -34q0 -7 3 -13q14 -66 20.5 -148.5t7.5 -182.5l1 -99q0 -9 1.5 -19.5t5.5 -19.5t11.5 -15.5t19.5 -6.5q29 0 55 44l-1 152q0 51 -6.5 101.5t-6.5 106.5q20 31 20 80zM133 691l-33 5
q-25 15 -31 15q-25 0 -25 -31v-18q-1 -5 -1 -11v-12l1 -6q-1 -3 -1 -8v-11q0 -22 7.5 -29t24.5 -7h15q11 0 19 -5q2 1 7 1q-2 -2 -2 -3h12q24 0 24 42v9q0 36 -5.5 50t-11.5 17v2z" />
    <glyph glyph-name="j" unicode="j" horiz-adv-x="218" 
d="M205 124q0 18 -5.5 37t-18.5 38l-10 112q0 2 0.5 4t0.5 4q0 3 -0.5 8t-0.5 10v31q0 16 4 27.5t9 20.5t9 17t4 19q0 32 -24 50.5t-66 18.5q-29 0 -48 -16t-19 -50q0 -15 3.5 -28.5t13.5 -26.5v-16q0 -28 1 -69.5t3 -90t4 -101t4 -101t3 -90t1 -69.5q-19 -23 -27 -23
q-5 0 -10.5 6t-13 14t-17.5 16.5t-24 13.5l-64 22q-8 -5 -14.5 -12.5t-11 -15t-7 -13l-2.5 -5.5q-3 -6 -3 -11q13 -36 28.5 -52t34.5 -25.5t41 -19.5t47 -35l38 10q8 -4 10 -4q9 0 13 8l1 -1q1 -2 10 -4.5t16 -16.5h16q28 0 40.5 13.5t13.5 45.5q3 17 5.5 25t4.5 12.5t3 7
t1 8.5q0 7 -3.5 14t-8 15.5t-8 20t-3.5 27.5q0 35 3 80.5t6 86.5v1q17 20 17 52zM77 719q-13 0 -20 -9t-7 -24v-8q0 -3 1 -8q-2 -6 -2 -13v-11v-25q0 -23 8 -30.5t28 -7.5h18q11 0 20 -6q5 1 6.5 1.5t2.5 0.5v-1q0 -1 1 -1h9q28 0 28 43v8q0 38 -8.5 51.5t-14.5 17.5l-35 6
q-29 16 -35 16z" />
    <glyph glyph-name="l" unicode="l" horiz-adv-x="154" 
d="M141 402q0 48 -1.5 94t-6.5 91l4 170q-25 43 -55 43q-13 0 -20.5 -6t-11.5 -15t-5.5 -19.5t-1.5 -19.5v-53q0 -33 1 -79.5t1.5 -92.5t1.5 -84t1 -54q0 -100 -7 -182.5t-21 -148.5q-3 -5 -3 -12q0 -32 41 -34q7 4 17 4q5 0 15 -1t15 -1q24 0 33.5 12t9.5 40q0 47 -20 78
q6 75 9.5 142.5t3.5 127.5z" />
    <glyph glyph-name="o" unicode="o" horiz-adv-x="523" 
d="M90 449q-14 -17 -25.5 -44.5t-16.5 -62.5v1l-19 -88q-5 -20 -5 -40q0 -38 18 -78t50.5 -73t77.5 -54.5t99 -21.5q21 0 50 11t55.5 24t44.5 23.5l18 10.5h-1q35 12 46.5 50t19.5 93v-1q1 4 1 7q0 4 1 8l6 41q2 9 3 18t1 20v10q-2 25 -11.5 39.5t-20.5 25t-22.5 19.5
t-18.5 24q-12 36 -39.5 57t-57.5 32t-56.5 14.5t-36.5 3.5q-94 0 -160 -69h-1zM395 258q0 -81 -34.5 -127t-91.5 -46q-8 0 -21 6.5t-27 14.5t-27.5 15t-22.5 9q-8 1 -13.5 7.5t-9 20.5t-5 36.5t-1.5 56.5q0 59 15.5 101t52.5 49q13 3 22.5 6.5t17 7t14.5 6t15 2.5
q24 0 45 -11t36.5 -32t25 -52t9.5 -70z" />
    <glyph glyph-name="p" unicode="p" horiz-adv-x="437" 
d="M452 252q-55 60 -108 104.5t-107 73.5q-4 -1 -6.5 -2t-4.5 -2v1q0 16 -6 24.5t-18 14.5t-30 12t-41 18q-23 11 -45.5 21.5t-48.5 10.5l-2 -97q11 -56 18 -119.5t7 -134.5v-129v-61t1 -61q-5 -5 -7 -12.5t-4 -13.5l-8 -42q-3 -27 -10 -41v-5q0 -2 -1.5 -9.5t-3 -17.5
t-2.5 -19t-1 -14q0 -8 2.5 -17.5t9.5 -20.5q5 0 16 0.5t23 0.5q13 0 24.5 0.5t18.5 0.5q11 0 23 -3l-1 1q6 -3 17 -3q7 11 8.5 15.5l2.5 7.5v26q0 8 2.5 18l4.5 18l-1 -1q2 5 3 9.5t1 6.5q0 10 -4.5 15t-9.5 10.5t-9.5 14.5t-4.5 26q0 11 4 32.5t8.5 45.5t8.5 46t4 35
q0 16 -3 28q96 35 165 78.5t115 95.5v14zM171 209q0 11 -3 33t-6 46t-6 46t-3 33v6l7 -1q33 -18 69.5 -49t88.5 -79q-36 -26 -73 -44t-77 -28q3 18 3 37z" />
    <glyph glyph-name="q" unicode="q" horiz-adv-x="430" 
d="M6 237q43 -52 113 -95t165 -78q-2 -6 -2 -13v-15q0 -13 4 -35.5t9 -46t9 -45t4 -32.5q0 -14 -4.5 -23t-10 -15.5t-10 -12.5t-4.5 -15q0 -23 5 -31.5t5 -19.5v-26l2.5 -7.5t9.5 -15.5q11 0 21 2.5t18 2.5q6 0 17.5 -0.5t23.5 -0.5q13 0 23.5 -0.5t15.5 -0.5q8 11 11 20
t3 18q0 4 -1.5 12t-3.5 17t-3.5 17.5t-1.5 12.5v6q-4 8 -5.5 17.5t-3.5 22.5l-6 33h2q-3 8 -7 18t-8 17v123q0 106 5.5 204.5t19.5 178.5l-2 97q-22 0 -44.5 -9t-43 -19.5t-39 -19.5t-31.5 -10q-6 -1 -12 -5.5t-10.5 -10.5t-7 -13t-2.5 -13v-1q-4 2 -8 3q-110 -59 -215 -178
v-15zM201 302q3 3 5 4l5 4q25 23 46 37.5t38 24.5l10 1v-6q0 -11 -3 -32.5t-6.5 -45.5t-6.5 -46t-3 -34v-19t2 -18q-40 10 -77 28t-72 43q21 21 37.5 36t24.5 23z" />
    <glyph glyph-name="s" unicode="s" horiz-adv-x="323" 
d="M246 442q60 15 69 100q-23 5 -41.5 8.5t-35.5 9.5q-29 -23 -65.5 -51t-68.5 -55.5t-54 -52.5t-22 -41q0 -14 16.5 -31.5t41 -36t53 -37t51.5 -33.5l6 -26q-12 -19 -21 -29.5t-19 -18t-24 -14.5t-35 -19q-37 -21 -56.5 -45.5t-18.5 -48.5v-18q12 -4 21 -5t17 -1
q18 0 30.5 4.5t26.5 12.5h-1l5 4.5t12.5 9t16.5 8.5t17 4h1q11 4 21 12t27 31l3 2q4 10 21 23t35 28.5t32.5 33t15.5 36.5q-31 46 -71 87t-85 71q23 24 41 43t31 35h7z" />
    <glyph glyph-name="t" unicode="t" horiz-adv-x="438" 
d="M362 650q-8 -2 -22 -6t-29.5 -8.5l-31 -9t-26.5 -8.5l5 139q-31 43 -64 43q-14 0 -23 -6t-13.5 -15t-6 -19.5t-1.5 -19.5q0 -4 0.5 -7t0.5 -5v-37v-48q0 -25 1 -54v-6q-4 0 -7 0.5t-7 2.5q-9 -6 -26 -11.5t-36 -11t-36 -9t-25 -4.5q14 -30 18 -51.5t7 -35t9 -20t23 -6.5
q8 0 14 1.5t17 6.5h-2h1q0 1 1 1v-1h1q0 1 1 1l-2 -1l10 4q2 0 4 1t4 1h2q2 -2 6.5 -2.5t9.5 -0.5q4 6 7.5 10.5t7.5 9.5q0 -31 1 -54t1 -37q0 -100 -8.5 -182.5t-25.5 -148.5q-2 -4 -2 -12q0 -15 11.5 -24t36.5 -10q7 4 19 4q5 0 16.5 -1t16.5 -1q29 0 39.5 12t10.5 40
q0 48 -24 78q8 75 11.5 142.5t3.5 127.5q0 29 -1 58.5t-2 58.5q4 0 9 0.5t10 1.5l1 -4h9q15 0 28.5 5.5t25.5 12t22 13t18 9.5q27 4 40 9.5t13 30.5q0 13 -8 32h1q-7 31 -28 31q-5 0 -15 -6v1q-12 -6 -17 -6z" />
    <glyph glyph-name="y" unicode="y" horiz-adv-x="581" 
d="M530 403q21 0 30.5 8t13.5 22t5 34.5t5 45.5q-31 3 -49 4t-20 1q-44 0 -66 -18l-69 -139q-9 -16 -20 -41.5t-23 -52.5t-23 -52.5t-18 -41.5q-5 8 -9 24t-11 49q-15 77 -51.5 145.5t-96.5 116.5q-5 -2 -10 -2h-8l-42 3h1q-5 1 -12 1q-8 0 -15.5 -2t-21.5 -7q0 -17 1.5 -21
t1.5 -7q0 -8 -8 -42q19 -10 35.5 -20t30 -22.5t25.5 -29.5t23 -41q19 -40 42 -78.5t30 -71.5q3 -18 11.5 -31.5t17 -25t15 -22.5t6.5 -24v-7q-17 -35 -23 -56.5t-12.5 -39t-19.5 -36t-43 -46.5q-74 -68 -74 -124q0 -10 2 -20.5t6 -24.5l112 -2q32 78 77.5 179.5t95.5 204.5
l58 118q4 6 12.5 31t21 55t28 59.5t33.5 46.5h5z" />
    <glyph glyph-name="z" unicode="z" horiz-adv-x="430" 
d="M283 -10q7 0 19.5 1.5t27 3.5t28.5 3.5t25 1.5h18q4 16 7 27.5t5 22t4.5 22.5t4.5 31l-70 4q-118 -23 -156 -23h-16q5 8 18 24t21 30l6 8q20 31 29 53t17 33l-3 2q6 4 22.5 24t54.5 73q29 17 51.5 57t48.5 94q-51 11 -79.5 16.5t-55.5 5.5h-17q-8 0 -14 -1l-26 -11
q-10 1 -29 2.5t-39 3.5h-5q-19 0 -31 -7t-13 -9v20h-6q-3 1 -7 2l-8 2q-6 0 -20.5 -1.5t-29.5 -6.5t-26.5 -14t-11.5 -23q0 -15 5 -24.5t7 -12.5v-2q0 -8 -6 -20l21 -22q33 5 49.5 10t20 8l3.5 3q5 2 29 2h15q5 -1 9.5 -1.5t11.5 -0.5q4 0 12 0.5t17 0.5t16.5 0.5t11.5 0.5
q7 0 17 -2l-11 -42l-7 -7q-11 -8 -21.5 -19.5t-26.5 -37.5l-1 1l-3 -7q-4 -2 -4 -5q0 -2 0.5 -5t0 -6.5t-5.5 -5.5q-1 -6 -4 -14.5t-11 -19.5q-57 -69 -95 -126t-56 -87l48 -34l8.5 0.5t19.5 1.5t23 3.5t20 6.5q11 -4 19.5 -4.5t24.5 -1.5h50v6q0 1 2 1q11 -4 23 -6.5
t24 -2.5zM261 246q4 0 5.5 -0.5l1.5 -0.5h-8z" />
    <glyph glyph-name="braceleft" unicode="{" horiz-adv-x="318" 
d="M283 750q2 7 2.5 10.5t0.5 6.5q0 10 -4 21h3q-26 56 -78 65q-27 -21 -45 -54t-31 -75.5t-23.5 -93.5t-23.5 -109q-8 -33 -23 -48t-30 -24.5t-26.5 -19t-11.5 -30.5q0 -14 14 -42q25 -1 41 -6t26 -16.5t14 -31.5t4 -50v-25q0 -51 7 -92.5t23 -74t42 -57.5t65 -44
q60 9 60 51q0 15 -11 34q-24 10 -41 27.5t-29.5 46t-21.5 69.5t-17 100q-11 71 -23 102q10 8 18 19.5t16 32t17.5 53t22.5 82.5q-4 5 -6.5 11t-2.5 14q0 20 6 43t15.5 43.5t22 36t25.5 20.5z" />
    <glyph glyph-name="bar" unicode="|" horiz-adv-x="204" 
d="M108 726q2 15 3.5 28.5t1.5 22.5v12q-4 6 -5.5 19t-4.5 27t-8.5 27t-17.5 18q-11 -1 -23 -4.5t-23 -9.5t-18 -13.5t-7 -15.5t3 -12q19 -94 19 -232q0 -20 -1.5 -57t-3.5 -83t-4 -96.5t-4 -97.5t-3.5 -86.5t-1.5 -62.5v-27q0 -5 -1 -15t-1.5 -20.5t-1.5 -19.5t-1 -13
q0 -24 7.5 -37.5t28.5 -13.5q13 0 28.5 5t28.5 13.5t21.5 20.5t8.5 26q-8 28 -13 52t-5 46q0 6 1 16.5t2 22.5t2 23.5t1 18.5q0 8 -0.5 15t-1.5 14q6 73 6 147q0 47 -4 118.5t-12 169.5v1q0 1 1 10t2 22t1 21z" />
    <glyph glyph-name="braceright" unicode="}" horiz-adv-x="318" 
d="M132 326q-11 -31 -16.5 -60.5t-6.5 -58.5q-2 -71 -20.5 -120t-56.5 -76l-4.5 -1.5t-4.5 -4.5v-1q0 -1 -2 -7h-4q0 -5 5.5 -12.5t16 -14t26 -11.5t35.5 -5q32 0 61 61t58 176q9 33 16.5 61t16.5 49t21 32.5t29 11.5q7 20 9.5 35.5t2.5 26.5q0 27 -25 74q-33 7 -53 32
t-31.5 60t-17 77t-9.5 82q-24 98 -108 119q-29 -5 -47.5 -26.5t-18.5 -50.5q0 -25 19 -44.5t57 -48.5l8 14q4 -1 6.5 -10.5t5 -32t5 -61t6.5 -96.5q13 -18 13 -26q0 -2 -1 -5v-9q0 -28 47 -54q-11 -13 -20.5 -31t-17.5 -44z" />
    <glyph glyph-name="asciitilde" unicode="~" horiz-adv-x="567" 
d="M116 289q7 2 16 4.5t20 2.5q34 0 78 -17.5t104 -45.5q13 -6 26 -6q42 0 68 3t42.5 8t26.5 12.5t20 15.5l7 6q29 35 29 49q0 6 -4 14t-9.5 16t-11.5 15.5t-9 11.5l4 30q-23 -20 -48.5 -35.5t-49 -26.5t-43 -16.5t-31.5 -5.5l0.5 -1t0.5 -2q-12 18 -40 31t-58.5 21.5
t-58 13t-39.5 5.5q-40 0 -69 -9t-48 -23.5t-28 -32.5t-9 -35q0 -22 17 -64q30 9 50 24.5t27 22.5l4 4q2 1 5.5 3t10.5 7zM518 380v-1q1 0 1 -1q-1 1 -1 2z" />
    <glyph glyph-name="exclamdown" unicode="&#xa1;" horiz-adv-x="177" 
d="M55 -282q-2 0 7 4t21.5 10.5t25 16t19.5 21.5l14 15h8q16 0 21 32q-6 14 -7 27t-1 41v12q0 32 3 61t3 61q-4 15 -7.5 25t-5.5 15l1 86q0 51 -4 96.5t-6 77.5l-76 49v-39q0 -24 -2 -53t-4 -66q-5 -35 -7.5 -58t-3.5 -37.5t-1.5 -21.5t-0.5 -10v-27q-2 -22 -5.5 -37.5
t-3.5 -37.5q0 -11 2 -17.5t4 -10.5t4 -7.5t2 -9.5q0 -28 -9 -57t-12 -62v-3q0 -1 0.5 -2t0.5 -3q0 -11 -2 -25t-2 -25q0 -19 6 -29t15 -12h3zM59 409q15 -11 31 -16q16 5 28 7.5t22 2.5l7 -4q15 2 20 9l9 -10q-2 6 -3 11.5t-2 11.5v7q0 22 -3 41t-10.5 33t-20.5 22t-33 8
q-5 0 -11 -0.5t-12 -1.5h-7q-19 -17 -19 -46l-3 -52v-7l-1 -16l3 4q1 -1 2 -1.5t2 -1.5z" />
    <glyph glyph-name="cent" unicode="&#xa2;" horiz-adv-x="513" 
d="M351 121q14 0 25 2.5t24 11t30.5 24t44.5 42.5q0 9 2.5 14.5t4.5 19.5l3 10q0 2 -0.5 4t-0.5 4v8l-2 -2q-11 20 -57 31q-34 -28 -83 -28q-34 0 -67.5 11.5t-60.5 31t-43.5 44.5t-16.5 52q0 104 244 173h-1q15 3 21.5 12.5t6.5 23.5q0 28 -36 75q-61 -14 -95 -27l2 123
h-99q4 -26 5.5 -42t1.5 -33q0 -60 -15 -63q-69 -49 -105 -107t-36 -125q0 -38 13 -75t35 -68.5t49.5 -54.5t57.5 -32q5 -20 7.5 -39.5t2.5 -36.5q0 -42 -17 -69q29 -45 73 -45q21 0 63 28q-8 7 -11.5 15.5t-3.5 17.5q0 14 1.5 32t5.5 41q12 -4 27 -4z" />
    <glyph glyph-name="sterling" unicode="&#xa3;" horiz-adv-x="567" 
d="M299 379l-1 -1q2 4 2 5q0 2 1 5q6 40 15.5 68.5t24.5 49t37 35t54 26.5q2 0 10 6t20.5 13.5t27.5 13.5t30 7q7 25 7 43q0 28 -29 66q-25 -1 -53.5 -10t-57 -23.5t-55 -33t-47.5 -38t-34 -38.5t-15 -35q-5 -43 -15.5 -69.5t-39.5 -44.5h16q-5 -10 -8.5 -25t-5.5 -35
q-23 -2 -46.5 -2.5t-46.5 -1.5q-8 2 -16 2q-26 0 -26 -25q0 -21 34 -71q17 0 34 2t31 2h24q0 -20 2 -32.5t2 -16.5q0 -15 -5 -26t-14 -22l2 -1q-14 -22 -22 -49t-12.5 -52t-6.5 -44.5t-4 -26.5q3 0 26.5 -0.5t58.5 -1t77 -1t82 -1t73.5 -1t51.5 -0.5h28q13 8 20.5 19.5
t7.5 26.5q0 26 -13 41t-33.5 22.5t-44 9.5t-44.5 2q-15 0 -37 -2.5t-45 -5.5t-44 -6l-35 -5q11 38 20 83t18 98q17 0 48 1t61.5 4t53 8.5t22.5 14.5q0 12 -14 43q-71 27 -110 27q-19 0 -44 -3z" />
    <glyph glyph-name="yen" unicode="&#xa5;" horiz-adv-x="658" 
d="M629 345q-2 28 -8.5 46t-20.5 28t-35.5 13.5t-53.5 3.5q-21 0 -44.5 -1.5t-51.5 -5.5v3q0 26 9.5 59t27 68.5t41.5 71t53 67.5h4q16 0 25 8t14 19.5t6.5 24.5t1.5 23q0 5 -0.5 8.5t-0.5 5.5v10q-19 2 -32.5 2.5t-24.5 0.5q-23 0 -39 -3.5t-26 -12.5q-27 -51 -59 -106.5
t-67 -114.5q-15 34 -38.5 68.5t-52 67t-60.5 63t-63 57.5q0 -17 -12 -22.5t-27.5 -11t-29.5 -16.5t-18 -37q24 -12 55 -38t64 -61t66.5 -76.5t62.5 -84.5v-11q0 -5 -0.5 -11t-1.5 -14h-144q-12 0 -14 -4.5t-2 -12.5q0 -5 1.5 -21t6.5 -39l151 -16l-3 -46q-19 2 -35 2h-28
q-41 0 -57.5 -3t-15.5 -3v19q-8 0 -13.5 -9.5t-11.5 -26.5h1q-2 -5 -2 -9v-6v-9q0 -8 4 -16t20.5 -14t49.5 -9.5t90 -3.5h7q-1 -14 -2.5 -42t-3.5 -57.5t-4 -53t-3 -29.5q15 -30 49 -30q16 0 39 5t51 14q-3 23 -4 39t-1 30v14q0 7 1 14q-9 63 -9 91q0 7 4 9.5t20 2.5
q5 0 19 -1t30.5 -2.5t32 -2.5t23.5 -1q82 0 82 35q0 7 -4.5 16t-15 16.5t-26.5 13t-38 5.5q-10 0 -24 -0.5t-30 -0.5q-15 0 -29.5 -0.5t-25.5 -0.5h-15q1 0 1 2v19q0 7 1 15t1 13l30 4q14 2 27.5 4t21.5 2q11 0 40 -7t83 -10z" />
    <glyph glyph-name="section" unicode="&#xa7;" horiz-adv-x="522" 
d="M78 0q-39 0 -39 -33q0 -5 6.5 -19.5t20 -33.5t33 -40t46.5 -38t61 -28.5t75 -11.5q38 0 73.5 11.5t63 33.5t44 53.5t16.5 71.5q0 72 -61 128q31 21 51 39.5t31 38.5t13 43.5t-2 54.5v6q0 15 -12 32.5t-30.5 34.5t-42 33.5t-46.5 30.5t-43.5 24t-33.5 16q-32 19 -49 36
t-31 34v-1q-1 2 -2 3t-2 3l-15 17q-10 14 -10.5 28.5t-5.5 31.5v-1q-3 13 -3 16q0 1 13 4.5t29 7t29.5 6.5t15.5 3q5 0 11.5 -5t12.5 -12l-1 1q9 -12 17 -16.5t15 -8.5t11 -10.5t4 -22.5v-1l-5 4v-19t1 -11.5t3 -7.5t6 -7l65 -23l59 54q-5 43 -10.5 71.5t-13.5 46t-19 26.5
t-26 14q-45 14 -79 20t-59 6q-39 0 -72 -12t-57 -34t-38 -51.5t-14 -65.5q0 -57 47 -111q-46 -18 -69 -58t-23 -82q0 -76 65 -136q13 -25 37 -41.5t64 -30.5q24 -9 52 -26.5t53 -39t41.5 -43.5t16.5 -38q0 -31 -25.5 -49.5t-60.5 -18.5q-15 0 -29 13l-13 14q-6 5 -11.5 11
t-12.5 11h1q-18 16 -25.5 29t-13 22t-14 13.5t-28.5 4.5q-12 0 -25 -3.5t-26 -11.5h-5zM249 212q-11 5 -20 17t-18.5 25t-20 23t-23.5 11q-11 2 -19 16t-8 25q0 20 13 38.5t41 35.5q33 -20 75 -53t83 -63q-1 1 6.5 -4t17 -14t17.5 -22t8 -29q0 -41 -52 -71
q-18 13 -45.5 31.5t-53.5 33.5h-1zM82 -18l-8 -5l1 6z" />
    <glyph glyph-name="quotesingle" unicode="'" horiz-adv-x="289" 
d="M184 744v2q0 27 -61 27q-45 0 -63 -23v-11q0 -2 0.5 -5t0.5 -6q0 -19 -2.5 -53.5t-10.5 -77.5l-1 -1l-36 -32t-26 -24l51 -94h9q3 0 5 0.5t5.5 3t11 8t20.5 16.5l50 48q10 4 16 12.5t11 16.5q-1 -1 -2 -1q-2 0 -4.5 5t-2.5 11h18q0 4 0.5 13.5t0.5 20.5t0.5 22.5
t0.5 19.5q0 2 -0.5 4.5t-0.5 4.5v7z" />
    <glyph glyph-name="quotedblleft" horiz-adv-x="392" 
d="M187 514l-110 126q-17 -4 -30 -5t-22 -5t-15 -12.5t-7 -27.5q10 -20 22 -33t25 -23t25.5 -18.5t22.5 -18.5v1q26 -20 43 -20q8 0 17 3.5t17 11.5l9 7zM305 510l-88 124q-10 6 -23 8t-25 -3.5t-20.5 -21t-8.5 -43.5q35 -20 63 -47.5t51 -57.5q21 1 33 9.5t20 23.5z" />
    <glyph glyph-name="quotedblleft" unicode="&#x201c;" horiz-adv-x="392" 
d="M187 514l-110 126q-17 -4 -30 -5t-22 -5t-15 -12.5t-7 -27.5q10 -20 22 -33t25 -23t25.5 -18.5t22.5 -18.5v1q26 -20 43 -20q8 0 17 3.5t17 11.5l9 7zM305 510l-88 124q-10 6 -23 8t-25 -3.5t-20.5 -21t-8.5 -43.5q35 -20 63 -47.5t51 -57.5q21 1 33 9.5t20 23.5z" />
    <glyph glyph-name="guillemotleft" unicode="&#xab;" horiz-adv-x="454" 
d="M138 404h2q10 0 30 17l25 25q14 13 24 26t10 32q0 34 -33 34q-29 0 -55.5 -15.5t-48 -35.5t-35.5 -38.5t-18 -24.5l-1 -1q-38 -32 -38 -64q0 -14 1.5 -23t8 -18t21.5 -22t42 -36q3 -5 9 -17.5t13.5 -27.5t15 -28.5t14.5 -20.5q62 13 62 53q0 3 -10.5 21.5t-24.5 41
t-28 44t-20 30.5q28 48 34 48zM164 361q67 -117 181 -194q39 9 39 36q0 5 -3 14l11 8q-25 23 -59 58t-69 73q19 13 29.5 24.5t18.5 24t18 27t29 33.5q12 12 17.5 19t7.5 11t1.5 6.5t-0.5 5.5q0 43 -68 52q-21 -28 -39 -54t-35.5 -49.5t-36 -44t-39.5 -38.5z" />
    <glyph glyph-name="guilsinglleft" horiz-adv-x="281" 
d="M119 190q10 -18 24 -37.5t34 -19.5q19 0 30.5 16.5t11.5 37.5q0 13 -7 26q-43 44 -70.5 74t-39.5 46q9 12 27 31.5t36.5 40t33.5 39t18 27.5q-2 33 -13.5 48t-32.5 15h-9t-10 -2q-47 -61 -88 -114t-70 -87l22 -41q8 -12 15.5 -19t28.5 -13l-1 1q11 -5 25.5 -21.5
t34.5 -47.5z" />
    <glyph glyph-name="guilsinglleft" unicode="&#x2039;" horiz-adv-x="281" 
d="M119 190q10 -18 24 -37.5t34 -19.5q19 0 30.5 16.5t11.5 37.5q0 13 -7 26q-43 44 -70.5 74t-39.5 46q9 12 27 31.5t36.5 40t33.5 39t18 27.5q-2 33 -13.5 48t-32.5 15h-9t-10 -2q-47 -61 -88 -114t-70 -87l22 -41q8 -12 15.5 -19t28.5 -13l-1 1q11 -5 25.5 -21.5
t34.5 -47.5z" />
    <glyph glyph-name="guilsinglright" horiz-adv-x="240" 
d="M192 265q23 6 35.5 27t23.5 44q-32 37 -70 88.5t-87 111.5q-5 1 -9 2t-10 1q-25 0 -34 -16.5t-13 -48.5q3 -8 18.5 -25.5t34.5 -38t36.5 -41t25.5 -32.5q-11 -14 -40 -44t-69 -74q-7 -15 -7 -28q0 -20 12 -37t30 -17q10 0 19 8t17 19t15 23t14 20q39 52 58 58z" />
    <glyph glyph-name="guilsinglright" unicode="&#x203a;" horiz-adv-x="240" 
d="M192 265q23 6 35.5 27t23.5 44q-32 37 -70 88.5t-87 111.5q-5 1 -9 2t-10 1q-25 0 -34 -16.5t-13 -48.5q3 -8 18.5 -25.5t34.5 -38t36.5 -41t25.5 -32.5q-11 -14 -40 -44t-69 -74q-7 -15 -7 -28q0 -20 12 -37t30 -17q10 0 19 8t17 19t15 23t14 20q39 52 58 58z" />
    <glyph glyph-name="endash" horiz-adv-x="607" 
d="M197 217q10 0 14 1l113 10q6 1 16 1.5t24 0.5q22 0 45.5 -0.5t42.5 -0.5q20 0 33.5 -0.5t16.5 -0.5q34 12 34 33t-28 42h-14q2 0 -6 -0.5t-16 -1.5h-10q-9 -1 -16 -1.5t-15 -0.5q-23 12 -70 12h-15q-6 0 -13 -1l-126 -8q-4 0 -13.5 0.5t-20.5 1.5t-21 1.5t-15 0.5
q-37 -1 -68.5 -1.5t-48.5 -1.5q-25 -28 -25 -40q0 -16 22 -26h2q57 -11 101.5 -15.5t76.5 -4.5z" />
    <glyph glyph-name="endash" unicode="&#x2013;" horiz-adv-x="607" 
d="M197 217q10 0 14 1l113 10q6 1 16 1.5t24 0.5q22 0 45.5 -0.5t42.5 -0.5q20 0 33.5 -0.5t16.5 -0.5q34 12 34 33t-28 42h-14q2 0 -6 -0.5t-16 -1.5h-10q-9 -1 -16 -1.5t-15 -0.5q-23 12 -70 12h-15q-6 0 -13 -1l-126 -8q-4 0 -13.5 0.5t-20.5 1.5t-21 1.5t-15 0.5
q-37 -1 -68.5 -1.5t-48.5 -1.5q-25 -28 -25 -40q0 -16 22 -26h2q57 -11 101.5 -15.5t76.5 -4.5z" />
    <glyph glyph-name="dagger" horiz-adv-x="512" 
d="M259 470l33 -5h-1q11 -2 20.5 -3t17.5 -1q52 0 79.5 18.5t27.5 45.5q0 5 -2 15h2q-6 12 -14 24.5t-15 19.5l-9 -8q-17 -1 -27 -3t-22 -4.5t-29.5 -4t-48.5 -1.5h-23q0 9 1 21.5t2 25.5l2 26t1 22v5q6 10 10 31.5t6 52.5l-6 -6v1q0 9 -1.5 19.5t-7 18.5t-16 13.5
t-27.5 5.5h-5q-8 -1 -15 -1h-13q-10 0 -13 2q-39 -1 -39 -37q0 -20 5.5 -43t7.5 -45q1 -18 1 -37v-39v-27q-15 -4 -31 -4q-21 0 -36 12h-58q-25 0 -43 2l-1 -35q-1 -4 -1 -8v-9q0 -9 0.5 -20t7.5 -21t22 -16.5t45 -6.5q7 0 23.5 0.5t33.5 1.5t32 2t21 2v-135v-151t-1 -116
q1 -2 1 -5q0 -5 -5 -17t-4 -14q0 -12 5.5 -18.5t13.5 -10.5t17 -5t17 -1q34 0 54 29l-10 187q2 28 3.5 62t1.5 76q0 53 -3 116q4 1 7 1h6z" />
    <glyph glyph-name="dagger" unicode="&#x2020;" horiz-adv-x="512" 
d="M259 470l33 -5h-1q11 -2 20.5 -3t17.5 -1q52 0 79.5 18.5t27.5 45.5q0 5 -2 15h2q-6 12 -14 24.5t-15 19.5l-9 -8q-17 -1 -27 -3t-22 -4.5t-29.5 -4t-48.5 -1.5h-23q0 9 1 21.5t2 25.5l2 26t1 22v5q6 10 10 31.5t6 52.5l-6 -6v1q0 9 -1.5 19.5t-7 18.5t-16 13.5
t-27.5 5.5h-5q-8 -1 -15 -1h-13q-10 0 -13 2q-39 -1 -39 -37q0 -20 5.5 -43t7.5 -45q1 -18 1 -37v-39v-27q-15 -4 -31 -4q-21 0 -36 12h-58q-25 0 -43 2l-1 -35q-1 -4 -1 -8v-9q0 -9 0.5 -20t7.5 -21t22 -16.5t45 -6.5q7 0 23.5 0.5t33.5 1.5t32 2t21 2v-135v-151t-1 -116
q1 -2 1 -5q0 -5 -5 -17t-4 -14q0 -12 5.5 -18.5t13.5 -10.5t17 -5t17 -1q34 0 54 29l-10 187q2 28 3.5 62t1.5 76q0 53 -3 116q4 1 7 1h6z" />
    <glyph glyph-name="daggerdbl" horiz-adv-x="554" 
d="M262 466l1 1q4 0 5 4q25 9 43 9q11 0 26 -2.5t32 -9.5q5 2 8.5 4.5t5.5 2.5q1 0 6.5 -1.5t12.5 -3t14 -2.5t11 -1q29 0 29 33q0 16 -6 39v8q0 31 -25 31h-3q-4 0 -6.5 -1t-5.5 -1h-5q-5 -1 -7 -1h-3h-4q-15 0 -21.5 -0.5t-12 -1.5t-12.5 -1.5t-23 -0.5h-61
q-2 17 -5.5 40.5t-7.5 55.5q24 27 24 78q0 20 -7.5 35.5t-27.5 15.5q-5 0 -14.5 -1t-10.5 -1q-13 0 -29 6q-8 -2 -16.5 -9t-15.5 -13h2q2 0 3 -3t1 -13h-19q0 -21 6 -48.5t8 -54.5q1 -40 1 -61v-28q-21 -6 -37 -6q-9 0 -19 3t-18 9q-5 -2 -9 -2h-5q1 0 -3 0.5t-10 1t-12.5 1
t-9.5 0.5h1q-20 3 -48 3q0 -41 1 -65t7.5 -36.5t20.5 -16t40 -3.5q7 0 22.5 1t31.5 2.5t30 3t18 1.5q5 0 6 -25.5t1 -73.5v-40l-78 -9q-5 0 -13.5 2.5t-17.5 6t-18 6t-13 2.5q-26 0 -30.5 -9.5t-4.5 -32.5v-27q0 -10 -1 -21.5t-2 -22.5q27 -2 73 -5t98 -3q-1 -28 -1.5 -56
t-0.5 -56v-28q-1 -4 -1 -6v-9t1.5 -18.5t6 -19.5t13 -15.5t23.5 -6.5q33 0 67 47q-9 13 -9 51q0 21 1 51.5t6 67.5q36 6 62 9.5t43 3.5q15 0 22 -2.5t10 -4.5t4 -3.5t4 0.5q47 0 47 53q0 57 -47 66h-5q-45 -17 -68 -17q-11 0 -20 5v3q-14 0 -21 -6l-29 4q-1 23 -2 58t-3 80
h5z" />
    <glyph glyph-name="daggerdbl" unicode="&#x2021;" horiz-adv-x="554" 
d="M262 466l1 1q4 0 5 4q25 9 43 9q11 0 26 -2.5t32 -9.5q5 2 8.5 4.5t5.5 2.5q1 0 6.5 -1.5t12.5 -3t14 -2.5t11 -1q29 0 29 33q0 16 -6 39v8q0 31 -25 31h-3q-4 0 -6.5 -1t-5.5 -1h-5q-5 -1 -7 -1h-3h-4q-15 0 -21.5 -0.5t-12 -1.5t-12.5 -1.5t-23 -0.5h-61
q-2 17 -5.5 40.5t-7.5 55.5q24 27 24 78q0 20 -7.5 35.5t-27.5 15.5q-5 0 -14.5 -1t-10.5 -1q-13 0 -29 6q-8 -2 -16.5 -9t-15.5 -13h2q2 0 3 -3t1 -13h-19q0 -21 6 -48.5t8 -54.5q1 -40 1 -61v-28q-21 -6 -37 -6q-9 0 -19 3t-18 9q-5 -2 -9 -2h-5q1 0 -3 0.5t-10 1t-12.5 1
t-9.5 0.5h1q-20 3 -48 3q0 -41 1 -65t7.5 -36.5t20.5 -16t40 -3.5q7 0 22.5 1t31.5 2.5t30 3t18 1.5q5 0 6 -25.5t1 -73.5v-40l-78 -9q-5 0 -13.5 2.5t-17.5 6t-18 6t-13 2.5q-26 0 -30.5 -9.5t-4.5 -32.5v-27q0 -10 -1 -21.5t-2 -22.5q27 -2 73 -5t98 -3q-1 -28 -1.5 -56
t-0.5 -56v-28q-1 -4 -1 -6v-9t1.5 -18.5t6 -19.5t13 -15.5t23.5 -6.5q33 0 67 47q-9 13 -9 51q0 21 1 51.5t6 67.5q36 6 62 9.5t43 3.5q15 0 22 -2.5t10 -4.5t4 -3.5t4 0.5q47 0 47 53q0 57 -47 66h-5q-45 -17 -68 -17q-11 0 -20 5v3q-14 0 -21 -6l-29 4q-1 23 -2 58t-3 80
h5z" />
    <glyph glyph-name="periodcentered" unicode="&#xb7;" horiz-adv-x="205" 
d="M148 319l-29 6q-10 5 -18.5 8t-11.5 3q-5 0 -13.5 -3.5t-8.5 -22.5v-14q-2 -6 -2 -14v-16l2 -2q0 -2 -0.5 -3.5t-0.5 -3.5v-4q0 -14 3.5 -20t26.5 -6h14q9 0 17 -5h5q1 0 1.5 0.5t2.5 0.5q-1 0 1 -2h7q22 0 22 42q0 6 -0.5 10t-1.5 8v14q-8 21 -15 24h-1z" />
    <glyph glyph-name="periodcentered" unicode="&#x22c5;" horiz-adv-x="205" 
d="M148 319l-29 6q-10 5 -18.5 8t-11.5 3q-5 0 -13.5 -3.5t-8.5 -22.5v-14q-2 -6 -2 -14v-16l2 -2q0 -2 -0.5 -3.5t-0.5 -3.5v-4q0 -14 3.5 -20t26.5 -6h14q9 0 17 -5h5q1 0 1.5 0.5t2.5 0.5q-1 0 1 -2h7q22 0 22 42q0 6 -0.5 10t-1.5 8v14q-8 21 -15 24h-1z" />
    <glyph glyph-name="paragraph" unicode="&#xb6;" horiz-adv-x="591" 
d="M398 269q0 -56 0.5 -86t1 -45t1 -22t0.5 -16v-96v-73t1 -88q8 -10 20 -14.5t32 -4.5q31 0 53.5 10.5t22.5 29.5q0 3 -1 7.5t-3 8.5q-4 35 -6 87.5t-2 122.5l-1 103q-1 103 -3.5 188.5t-9.5 154.5l52 1q15 3 28 10.5t13 27.5q0 23 -38 73q-17 -1 -36.5 -1.5t-36.5 -0.5
q-16 0 -43 1t-55 2t-50.5 2t-29.5 1q-18 0 -30 -1.5t-20 -3.5q-6 0 -14 0.5t-17 0.5t-17 0.5t-13 0.5q-30 0 -51.5 -9t-37.5 -26t-30 -41.5t-29 -55.5q-11 -20 -16 -41t-5 -42q0 -46 11 -80t34 -58.5t58.5 -41t83.5 -26.5q4 -42 7.5 -67t6 -43t3.5 -35t1 -44v-88h-5
q-27 0 -27 -34q0 -31 19 -82h126q0 11 -1 43t-2 77t-3 99t-3.5 109.5t-3.5 107.5t-3 94t-2 68.5t-1 30.5v28q0 8 2 13q12 7 23 20l6 8q16 -6 21 -6t14 3q2 -42 3.5 -106.5t1.5 -154.5z" />
    <glyph glyph-name="bullet" horiz-adv-x="193" 
d="M187 421l-13 -4q-3 3 -6 3.5t-6 0.5h-3q-5 2 -8 2h-8q-13 0 -29 -6h-5q-13 0 -27 -0.5t-26 -3.5t-20 -9t-8 -16q0 -5 3 -16t3 -13q0 -3 -4 -7v-7q0 -2 0.5 -4.5t0.5 -5.5v-11q0 -5 -0.5 -8.5t-0.5 -8.5v-8q0 -24 9.5 -38.5t25.5 -14.5q5 0 11.5 1t10.5 2h3q3 0 6 -2.5
t8 -2.5q11 0 18 2t21 2h17q17 0 25 12.5t8 31.5v12q-15 10 -15 31q0 3 1.5 11t3 18.5t3 20.5t1.5 17v19z" />
    <glyph glyph-name="bullet" unicode="&#x2022;" horiz-adv-x="193" 
d="M187 421l-13 -4q-3 3 -6 3.5t-6 0.5h-3q-5 2 -8 2h-8q-13 0 -29 -6h-5q-13 0 -27 -0.5t-26 -3.5t-20 -9t-8 -16q0 -5 3 -16t3 -13q0 -3 -4 -7v-7q0 -2 0.5 -4.5t0.5 -5.5v-11q0 -5 -0.5 -8.5t-0.5 -8.5v-8q0 -24 9.5 -38.5t25.5 -14.5q5 0 11.5 1t10.5 2h3q3 0 6 -2.5
t8 -2.5q11 0 18 2t21 2h17q17 0 25 12.5t8 31.5v12q-15 10 -15 31q0 3 1.5 11t3 18.5t3 20.5t1.5 17v19z" />
    <glyph glyph-name="quotesinglbase" horiz-adv-x="130" 
d="M9 -59q13 -16 25 -16q4 0 6 2q1 -5 18 -24q8 29 13.5 44t10 23.5t9 14t11.5 15.5t17 28.5t26 53.5q-15 46 -74 46h-15q-6 -29 -12.5 -56t-10.5 -41h1q-9 -23 -16 -46.5t-10 -34.5z" />
    <glyph glyph-name="quotesinglbase" unicode="&#x201a;" horiz-adv-x="130" 
d="M9 -59q13 -16 25 -16q4 0 6 2q1 -5 18 -24q8 29 13.5 44t10 23.5t9 14t11.5 15.5t17 28.5t26 53.5q-15 46 -74 46h-15q-6 -29 -12.5 -56t-10.5 -41h1q-9 -23 -16 -46.5t-10 -34.5z" />
    <glyph glyph-name="quotedblbase" horiz-adv-x="274" 
d="M126 -33q20 -26 43 -26h10q28 34 60 69.5t55 60.5q-39 45 -88 58q-26 -37 -45.5 -74t-35.5 -79zM164 82q-5 12 -9.5 19.5t-13.5 12t-25 7.5t-45 6q-23 -101 -24 -101q-31 0 -31 -46v-16l60 -16q20 28 43.5 62.5t43.5 65.5z" />
    <glyph glyph-name="quotedblbase" unicode="&#x201e;" horiz-adv-x="274" 
d="M126 -33q20 -26 43 -26h10q28 34 60 69.5t55 60.5q-39 45 -88 58q-26 -37 -45.5 -74t-35.5 -79zM164 82q-5 12 -9.5 19.5t-13.5 12t-25 7.5t-45 6q-23 -101 -24 -101q-31 0 -31 -46v-16l60 -16q20 28 43.5 62.5t43.5 65.5z" />
    <glyph glyph-name="quotedblright" horiz-adv-x="360" 
d="M114 509q8 -8 23 -18.5t27 -10.5q13 0 29 10t31.5 22.5t28 24.5t17.5 16l-1 -1q18 7 33 41q-1 12 -3 19.5t-9.5 13t-22 9.5t-39.5 7zM-3 508q8 -17 20.5 -26.5t33.5 -9.5q4 4 10 10.5t8 11.5l19 22l-1 -1q16 17 35.5 32t42.5 29q-14 26 -33.5 41t-43.5 20z" />
    <glyph glyph-name="quotedblright" unicode="&#x201d;" horiz-adv-x="360" 
d="M114 509q8 -8 23 -18.5t27 -10.5q13 0 29 10t31.5 22.5t28 24.5t17.5 16l-1 -1q18 7 33 41q-1 12 -3 19.5t-9.5 13t-22 9.5t-39.5 7zM-3 508q8 -17 20.5 -26.5t33.5 -9.5q4 4 10 10.5t8 11.5l19 22l-1 -1q16 17 35.5 32t42.5 29q-14 26 -33.5 41t-43.5 20z" />
    <glyph glyph-name="guillemotright" unicode="&#xbb;" horiz-adv-x="455" 
d="M77 139q22 26 41 51t38.5 49.5t41 49t48.5 50.5q-29 35 -46 53t-29 30.5t-22 25t-23 37.5q-13 22 -35 36.5t-42 14.5q-11 0 -20.5 -5.5t-16.5 -14.5t-11.5 -19.5t-4.5 -19.5q0 -26 23 -26q23 -23 50 -52t59 -64q-12 -11 -32.5 -32t-40.5 -43.5t-34.5 -42.5t-14.5 -29
q0 -41 61 -53zM257 168q45 44 64.5 66t26.5 32.5t8.5 15.5t10.5 14l1 1q15 19 20 32l8 15q-26 23 -40 39.5t-22 28t-12 20.5t-10 18.5t-17 20t-31 25.5q-4 4 -10 9.5t-12 13.5q-27 -6 -40.5 -16.5t-13.5 -29.5q0 -3 1 -8.5t3 -13.5q30 -35 54.5 -64t40.5 -52
q-7 -9 -21 -24.5t-29.5 -32t-30 -31.5t-21.5 -22q22 -66 50 -66q10 0 21 8z" />
    <glyph glyph-name="ellipsis" unicode="&#x85;" horiz-adv-x="816" 
d="M546 73l-3 -3v-32q0 -33 16 -41l-9 -8q15 2 24 4t15 3l-6 -6q26 4 36 4.5t17 0.5h14q14 0 22.5 9.5t8.5 23.5v12q-14 8 -14 14q0 1 1.5 6.5t4 12.5t4 14t1.5 11q0 2 -0.5 4.5t-3.5 10.5l-9 6h-13q-4 0 -7 1t-8 1q-12 0 -28.5 -0.5t-31.5 -3.5t-25.5 -8.5t-10.5 -15.5
q0 -2 1.5 -9.5t3.5 -10.5zM143 126h-1q-3 1 -7 1h-5h-3l3 -1q-4 1 -7.5 2t-7.5 1q-11 0 -27.5 -1t-32 -4.5t-26.5 -9t-11 -14.5q0 -4 5 -16v-3q0 -1 -3 -4v-31q0 -15 3.5 -26t13.5 -15l-9 -8q15 2 23 3.5t12 2t5 0.5h1l14 -4q7 0 12 4h33q13 0 22 8t9 25v10q-14 7 -14 14
q0 1 2.5 9t5 19t2.5 17q0 2 -0.5 4.5t-3.5 10.5zM286 118q-3 -5 -3.5 -9t-0.5 -7t1.5 -11t3 -15.5t3 -13.5t2.5 -6q-1 -4 -4.5 -6.5t-8.5 -6.5v-11q0 -12 7 -22.5t23 -10.5h33q6 -3 12 -3q8 0 13 4h1q4 0 11.5 -1t12.5 -1q9 2 17 12t8 28v5q-1 6 -1 10v9q0 7 2 10l-3 4.5
l-1 1.5v2q5 15 5 18q0 8 -6.5 12.5t-16 7t-21.5 3t-23 0.5h-5q-17 5 -25 5q-5 0 -13 -2l-1 5zM546 73l-1 4q0 -1 0.5 -1.5t0.5 -1.5v-1z" />
    <glyph glyph-name="ellipsis" unicode="&#x2026;" horiz-adv-x="816" 
d="M546 73l-3 -3v-32q0 -33 16 -41l-9 -8q15 2 24 4t15 3l-6 -6q26 4 36 4.5t17 0.5h14q14 0 22.5 9.5t8.5 23.5v12q-14 8 -14 14q0 1 1.5 6.5t4 12.5t4 14t1.5 11q0 2 -0.5 4.5t-3.5 10.5l-9 6h-13q-4 0 -7 1t-8 1q-12 0 -28.5 -0.5t-31.5 -3.5t-25.5 -8.5t-10.5 -15.5
q0 -2 1.5 -9.5t3.5 -10.5zM143 126h-1q-3 1 -7 1h-5h-3l3 -1q-4 1 -7.5 2t-7.5 1q-11 0 -27.5 -1t-32 -4.5t-26.5 -9t-11 -14.5q0 -4 5 -16v-3q0 -1 -3 -4v-31q0 -15 3.5 -26t13.5 -15l-9 -8q15 2 23 3.5t12 2t5 0.5h1l14 -4q7 0 12 4h33q13 0 22 8t9 25v10q-14 7 -14 14
q0 1 2.5 9t5 19t2.5 17q0 2 -0.5 4.5t-3.5 10.5zM286 118q-3 -5 -3.5 -9t-0.5 -7t1.5 -11t3 -15.5t3 -13.5t2.5 -6q-1 -4 -4.5 -6.5t-8.5 -6.5v-11q0 -12 7 -22.5t23 -10.5h33q6 -3 12 -3q8 0 13 4h1q4 0 11.5 -1t12.5 -1q9 2 17 12t8 28v5q-1 6 -1 10v9q0 7 2 10l-3 4.5
l-1 1.5v2q5 15 5 18q0 8 -6.5 12.5t-16 7t-21.5 3t-23 0.5h-5q-17 5 -25 5q-5 0 -13 -2l-1 5zM546 73l-1 4q0 -1 0.5 -1.5t0.5 -1.5v-1z" />
    <glyph glyph-name="perthousand" horiz-adv-x="909" 
d="M153 60v-31q1 -16 8 -24t17 -8h1q12 0 24.5 9.5t28 38.5t37.5 83t54 144q-5 -16 -7.5 -32.5t-2.5 -31.5q0 -132 143 -198q34 0 61.5 18.5t47 49t30.5 69.5t11 80q0 85 -20.5 135t-51.5 58q-14 4 -33 13t-30 9q-17 0 -37 -11.5t-39.5 -30.5t-35.5 -44.5t-26 -53.5l30 87
q14 43 30 87.5t30 81t25 61.5t16 28q21 15 21 44v24q0 11 -2 16l-7 51q-11 24 -33 24q-15 0 -26 -9t-20 -25t-17 -37t-17 -46v1q-23 -57 -38 -94.5t-25.5 -63.5t-17 -43.5t-10 -34t-6.5 -34.5t-6 -45q-3 -24 -15.5 -52.5t-27.5 -59t-29 -62.5t-20 -63q-5 -20 -9 -40t-6 -38z
M294 574q0 46 -9.5 85.5t-28 68.5t-46.5 45.5t-65 16.5q-26 0 -50 -17t-43.5 -47t-31 -71.5t-11.5 -90.5q0 -26 5.5 -56t14 -56t19.5 -43.5t22 -17.5q1 0 10.5 -5.5t21.5 -12t24.5 -12t21.5 -5.5q75 0 123 99h-2q14 29 19.5 59t5.5 60zM751 -3q32 0 59 19t46.5 50t30.5 70
t11 79q0 59 -11 100t-30 66.5t-43.5 37t-51.5 11.5q-32 0 -59.5 -19.5t-47.5 -51t-31.5 -71.5t-11.5 -82q0 -20 5 -45.5t16 -55.5q4 -17 12.5 -35.5t22.5 -35t34 -27t49 -10.5zM476 344q10 -6 19 -20t16.5 -32.5t12 -39.5t4.5 -41q0 -87 -66 -91h-4q-27 0 -39 27t-12 70
q0 25 4.5 49t12 42.5t17 29.5t20.5 11q3 0 6.5 -1.5t8.5 -3.5zM147 459q-7 1 -16 12.5t-17 27.5t-13.5 34.5t-5.5 35.5q0 61 54 108q68 -10 68 -90q0 -22 -5.5 -45t-14.5 -41.5t-21 -30.5t-25 -12h-3q-1 0 -1.5 0.5t-1.5 0.5h2zM805 217q0 -19 -4 -39t-11.5 -36.5t-17.5 -27
t-23 -10.5q-18 0 -27.5 25t-9.5 72q0 27 5 51t11.5 41.5t14.5 28t14 10.5q10 0 18.5 -11t15 -27.5t10.5 -37t4 -39.5z" />
    <glyph glyph-name="perthousand" unicode="&#x2030;" horiz-adv-x="909" 
d="M153 60v-31q1 -16 8 -24t17 -8h1q12 0 24.5 9.5t28 38.5t37.5 83t54 144q-5 -16 -7.5 -32.5t-2.5 -31.5q0 -132 143 -198q34 0 61.5 18.5t47 49t30.5 69.5t11 80q0 85 -20.5 135t-51.5 58q-14 4 -33 13t-30 9q-17 0 -37 -11.5t-39.5 -30.5t-35.5 -44.5t-26 -53.5l30 87
q14 43 30 87.5t30 81t25 61.5t16 28q21 15 21 44v24q0 11 -2 16l-7 51q-11 24 -33 24q-15 0 -26 -9t-20 -25t-17 -37t-17 -46v1q-23 -57 -38 -94.5t-25.5 -63.5t-17 -43.5t-10 -34t-6.5 -34.5t-6 -45q-3 -24 -15.5 -52.5t-27.5 -59t-29 -62.5t-20 -63q-5 -20 -9 -40t-6 -38z
M294 574q0 46 -9.5 85.5t-28 68.5t-46.5 45.5t-65 16.5q-26 0 -50 -17t-43.5 -47t-31 -71.5t-11.5 -90.5q0 -26 5.5 -56t14 -56t19.5 -43.5t22 -17.5q1 0 10.5 -5.5t21.5 -12t24.5 -12t21.5 -5.5q75 0 123 99h-2q14 29 19.5 59t5.5 60zM751 -3q32 0 59 19t46.5 50t30.5 70
t11 79q0 59 -11 100t-30 66.5t-43.5 37t-51.5 11.5q-32 0 -59.5 -19.5t-47.5 -51t-31.5 -71.5t-11.5 -82q0 -20 5 -45.5t16 -55.5q4 -17 12.5 -35.5t22.5 -35t34 -27t49 -10.5zM476 344q10 -6 19 -20t16.5 -32.5t12 -39.5t4.5 -41q0 -87 -66 -91h-4q-27 0 -39 27t-12 70
q0 25 4.5 49t12 42.5t17 29.5t20.5 11q3 0 6.5 -1.5t8.5 -3.5zM147 459q-7 1 -16 12.5t-17 27.5t-13.5 34.5t-5.5 35.5q0 61 54 108q68 -10 68 -90q0 -22 -5.5 -45t-14.5 -41.5t-21 -30.5t-25 -12h-3q-1 0 -1.5 0.5t-1.5 0.5h2zM805 217q0 -19 -4 -39t-11.5 -36.5t-17.5 -27
t-23 -10.5q-18 0 -27.5 25t-9.5 72q0 27 5 51t11.5 41.5t14.5 28t14 10.5q10 0 18.5 -11t15 -27.5t10.5 -37t4 -39.5z" />
    <glyph glyph-name="questiondown" unicode="&#xbf;" horiz-adv-x="418" 
d="M309 294q20 -20 20 -28q0 -1 -1 -2.5t-5.5 -5.5t-15 -13t-29.5 -25q-22 -22 -86 -42q-35 -12 -65.5 -31t-43.5 -30q-12 -10 -23 -33t-19.5 -50t-13.5 -54t-5 -46q0 -88 147 -157q110 -53 190 -53h9t7 1q13 -8 19 -8q19 0 19 21q0 10 -5 29t-16 48q-37 8 -72.5 19
t-52.5 16q-4 -11 -6 -11q-15 0 -34.5 10t-37.5 25.5t-30 35t-12 37.5q0 10 1 25.5t5.5 31t12 29t21.5 20.5q7 5 20.5 14t30 19.5t35 21t36.5 17.5q38 16 61 36v-6q9 22 18.5 34t17.5 20.5t13.5 17.5t5.5 25q0 3 -6.5 22t-17 40t-23.5 38t-25 17q-13 0 -31.5 -9.5
t-44.5 -26.5l8 -15l1 2q2 -5 7 -11.5t16 -15.5v1zM261 434q-5 -4 -7 -7t-2 -9q0 -24 93 -24h28q14 6 20.5 18.5t6.5 29.5q0 24 -16 64v6q-9 10 -16.5 13.5t-14.5 5.5v-1q-11 3 -19.5 5t-16.5 2q-34 0 -55 -30q3 -23 3 -45q0 -20 -4 -28z" />
    <glyph glyph-name="grave" unicode="`" horiz-adv-x="265" 
d="M74 707q-37 -8 -55 -21t-18 -36q0 -10 5 -18.5t13 -15t17.5 -10t17.5 -3.5h7l96 -47l35 47z" />
    <glyph glyph-name="acute" unicode="&#xb4;" horiz-adv-x="296" 
d="M10 675q0 -25 37 -37q84 22 151 79q-8 22 -19.5 43t-38.5 37q-3 -4 -7.5 -8t-6.5 -7l-10 -7q-5 -2 -10 -7l-17 -9h5q-8 -8 -11 -12l-1 1q-5 -8 -22 -23t-41 -32l-1 -1q-5 -3 -10 -6.5t-10 -6.5h12v-4z" />
    <glyph glyph-name="circumflex" horiz-adv-x="447" 
d="M349 642l-155 116q-19 -5 -46 -18.5t-54.5 -31.5t-51.5 -38.5t-37 -38.5q7 -48 51 -48q13 0 29.5 8t34 19.5t33 24t25.5 21.5v-1q3 2 6 5q26 -15 51.5 -38.5t51.5 -52.5q61 12 67 67z" />
    <glyph glyph-name="circumflex" unicode="&#x2c6;" horiz-adv-x="447" 
d="M349 642l-155 116q-19 -5 -46 -18.5t-54.5 -31.5t-51.5 -38.5t-37 -38.5q7 -48 51 -48q13 0 29.5 8t34 19.5t33 24t25.5 21.5v-1q3 2 6 5q26 -15 51.5 -38.5t51.5 -52.5q61 12 67 67z" />
    <glyph glyph-name="tilde" horiz-adv-x="385" 
d="M162 613q3 -2 6.5 -2.5t5.5 -2.5v2q14 -8 26.5 -10.5t20.5 -2.5q23 0 54.5 10.5t58.5 44.5q-6 48 -64 53q-9 -14 -27 -23.5t-33 -9.5q-13 0 -27 9q-23 11 -43 16t-36 5q-48 0 -98 -71v-6q0 -33 32 -33q19 0 43 14l10 24q2 0 6 1t9 3q22 -8 38 -14.5t18 -6.5z" />
    <glyph glyph-name="tilde" unicode="&#x2dc;" horiz-adv-x="385" 
d="M162 613q3 -2 6.5 -2.5t5.5 -2.5v2q14 -8 26.5 -10.5t20.5 -2.5q23 0 54.5 10.5t58.5 44.5q-6 48 -64 53q-9 -14 -27 -23.5t-33 -9.5q-13 0 -27 9q-23 11 -43 16t-36 5q-48 0 -98 -71v-6q0 -33 32 -33q19 0 43 14l10 24q2 0 6 1t9 3q22 -8 38 -14.5t18 -6.5z" />
    <glyph glyph-name="macron" unicode="&#xaf;" horiz-adv-x="351" 
d="M71 602l24 2q15 3 35.5 4t32.5 1q27 0 38.5 -7t21.5 -7l14 3q4 0 8 1l4 1h67q23 18 23 35q0 6 -2 13t-8.5 13t-20.5 10t-38 4q-10 0 -35.5 -1.5t-53.5 -3.5t-52.5 -3.5t-31.5 -1.5q-11 0 -18 0.5t-12 0.5q-27 -13 -27 -33q0 -16 12 -27l-1 2q4 -6 20 -6z" />
    <glyph glyph-name="macron" unicode="&#x2c9;" horiz-adv-x="351" 
d="M71 602l24 2q15 3 35.5 4t32.5 1q27 0 38.5 -7t21.5 -7l14 3q4 0 8 1l4 1h67q23 18 23 35q0 6 -2 13t-8.5 13t-20.5 10t-38 4q-10 0 -35.5 -1.5t-53.5 -3.5t-52.5 -3.5t-31.5 -1.5q-11 0 -18 0.5t-12 0.5q-27 -13 -27 -33q0 -16 12 -27l-1 2q4 -6 20 -6z" />
    <glyph glyph-name="breve" unicode="&#x2d8;" horiz-adv-x="459" 
d="M82 813q-8 -2 -16 -4.5t-14 -6.5v3l-16 -15q-18 -20 -18 -35q0 -8 11 -20t27.5 -25.5t35 -27t33.5 -23.5l30 -20h29q7 0 10.5 2t9.5 6.5t17 12.5t32 20q23 14 38.5 25.5t23.5 19.5v6q1 1 7 5.5t12.5 10.5t12 11.5t5.5 8.5q0 11 -4 12.5t-12 1.5l-5 3q-12 24 -34 24
q-7 0 -20.5 -5.5t-33.5 -14.5q3 -2 5 -4l4 -4l-8.5 -9t-20.5 -19.5t-26 -20t-27 -12.5q-21 14 -37.5 31t-34.5 40v-1z" />
    <glyph glyph-name="dotaccent" unicode="&#x2d9;" horiz-adv-x="209" 
d="M116 785h-1q-3 2 -10 2h-6q-2 0 -3 0.5t-3 0.5q-11 0 -25 -1t-26 -4t-20.5 -8.5t-8.5 -14.5q0 -1 2 -11v-2q1 -2 1 -6q0 -2 -0.5 -3.5t-0.5 -3.5v-33q0 -39 27 -39q-1 0 5 1t7 1q2 -2 6 -3t6 -1q8 0 13 1.5t13 1.5h12q11 0 18.5 9t7.5 24v11q-12 9 -12 14l3 14q5 18 5 30
v5q0 4 -2 10z" />
    <glyph glyph-name="dieresis" unicode="&#xa8;" horiz-adv-x="404" 
d="M373 790h-3l3 -1q-4 1 -7 1.5t-7 0.5q-13 0 -25 -4h-12q-10 0 -20 -0.5t-18.5 -3t-13.5 -7t-5 -12.5q0 -2 0.5 -9t2.5 -10l-2 -2v-33q0 -14 3 -25t15 -16l-2 -2h7q3 -1 10 -1q4 0 8 2h2q3 1 6 1l2 -0.5t4 -1.5h-1q2 -2 4.5 -2.5l2.5 -0.5h11q11 0 28 2.5t29 15.5h1
q2 2 4 6.5t3 6.5l-2 3q0 10 -7 16t-7 11q0 1 1.5 6.5t3.5 12.5t3.5 14t1.5 10t-1 7.5t-3 9.5l-10 2q-5 2 -6.5 2.5t-3.5 0.5zM41 784q-4 -10 -4 -15q0 -4 1.5 -10.5t3.5 -13.5t3.5 -13t1.5 -7q0 -6 -7 -11.5t-7 -14.5l-2 -4l3 -5q2 -6 5 -8l1 1q8 -7 18.5 -11t21 -5.5t18 -2
t9.5 -0.5t7.5 1.5t5.5 3.5h1q2 0 8.5 -1t15.5 -1q15 4 19.5 17.5t4.5 25.5v34l-5 3q6 10 6 18q0 9 -13.5 14.5t-31 8t-32.5 3t-18 0.5q-7 0 -11 -1h-2q-5 0 -7 -1h-5zM268 745v2v-1q1 0 1 -1h-1z" />
    <glyph glyph-name="ring" unicode="&#x2da;" horiz-adv-x="354" 
d="M116 628q62 0 108 86q5 0 5 9l-1 5q0 13 -9 24t-23 19.5t-33 14t-38 7.5h-4q-13 0 -43 -15v1q-18 -10 -24 -10q-1 0 -1.5 0.5t-1.5 0.5h-6q-30 0 -30 -42q0 -25 8.5 -44t22.5 -31.5t32 -18.5t38 -6zM121 686q-11 0 -19 6t-8 17q0 10 8.5 17t20.5 7q22 0 22 -8q0 -2 -3 -8
l-6.5 -13t-7.5 -12.5t-7 -5.5z" />
    <glyph glyph-name="cedilla" unicode="&#xb8;" horiz-adv-x="751" 
d="M184 -16q-2 1 -6.5 12.5t-4.5 17.5h52l-105 64q-9 -8 -13.5 -9.5t-9.5 -3.5h1l-10 -4q-41 -26 -41 -55q0 -4 1 -7l1 -5q0 -8 6 -17t13.5 -17.5t13.5 -16t8 -11.5q64 -12 64 -34v-1q-1 -9 -22 -13t-46 -7.5t-46 -10t-21 -21.5q0 -34 65 -56q25 3 55 5.5t55 10t42 23
t17 44.5q0 9 -8.5 24.5t-19.5 31t-21.5 29.5t-13.5 22z" />
    <glyph glyph-name="hungarumlaut" unicode="&#x2dd;" horiz-adv-x="412" 
d="M131 626q14 -13 27 -21t24 -8q17 0 40.5 18t60.5 50q10 7 19.5 16t17.5 29q-1 13 -4 21.5t-10.5 13.5t-21 8t-37.5 6zM15 625q15 -36 53 -37q26 31 50.5 56.5t64.5 48.5q-26 50 -77 62z" />
    <glyph glyph-name="ogonek" unicode="&#x2db;" horiz-adv-x="307" 
d="M75 31q-32 -17 -48 -44t-16 -67q0 -18 11.5 -35t31 -30.5t45.5 -24t55 -16.5q33 19 33 36q0 4 -12.5 18.5t-27.5 29.5t-27.5 27l-12.5 12l2 1q2 -2 2 -1q0 11 20 35t50 44l-8 18q-31 -1 -57 -1h-36z" />
    <glyph glyph-name="caron" unicode="&#x2c7;" horiz-adv-x="365" 
d="M164 630q10 6 19 10.5l19 9.5t22.5 11.5t29.5 17.5l44 10v23q0 30 -48 66l-90 -67q-9 8 -17.5 14.5t-19.5 14t-26 16t-36 20.5q-55 -19 -55 -43q0 -9 14 -20.5t30.5 -21.5t29.5 -16t12 -4q11 -17 62 -41h10z" />
    <glyph glyph-name="emdash" horiz-adv-x="913" 
d="M735 296q-50 0 -50 3v1q0 7 -9.5 12t-29.5 5q-7 0 -20.5 -0.5t-27.5 -1t-26 -1t-16 -0.5l-229 -2q-24 0 -45 -1.5t-44 -1.5h-21q-18 0 -27 1t-16 2.5t-16.5 2.5t-27.5 1h-20q-27 -2 -41 -2h-24l-2 5l-10 -5v-4q-14 -14 -14 -29q0 -23 31 -51h14q12 0 49.5 -1t81 -2.5
t84.5 -2.5t61 -1q34 0 51 1.5t35 3t45 2t80 -2.5h5q45 2 84 2h71q47 0 79 -1t50 -3q28 16 28 39q0 3 -2 9.5t-6.5 13t-11.5 11.5t-17 5l-4 -4q-14 -2 -30.5 -2.5t-32.5 -0.5h-29z" />
    <glyph glyph-name="emdash" unicode="&#x2014;" horiz-adv-x="913" 
d="M735 296q-50 0 -50 3v1q0 7 -9.5 12t-29.5 5q-7 0 -20.5 -0.5t-27.5 -1t-26 -1t-16 -0.5l-229 -2q-24 0 -45 -1.5t-44 -1.5h-21q-18 0 -27 1t-16 2.5t-16.5 2.5t-27.5 1h-20q-27 -2 -41 -2h-24l-2 5l-10 -5v-4q-14 -14 -14 -29q0 -23 31 -51h14q12 0 49.5 -1t81 -2.5
t84.5 -2.5t61 -1q34 0 51 1.5t35 3t45 2t80 -2.5h5q45 2 84 2h71q47 0 79 -1t50 -3q28 16 28 39q0 3 -2 9.5t-6.5 13t-11.5 11.5t-17 5l-4 -4q-14 -2 -30.5 -2.5t-32.5 -0.5h-29z" />
    <glyph glyph-name="ordmasculine" unicode="&#xba;" horiz-adv-x="420" 
d="M125 351l8 -6.5t21.5 -14.5t30.5 -15t33 -7q73 0 192 110q-6 16 -6 23q0 5 3 18t7 28t7 29t3 22q0 22 -8 35t-19 25v-1q-8 8 -15 18t-13 23q-42 45 -127 65h-9q-32 0 -67.5 -15t-65 -42.5t-48.5 -66t-19 -85.5q0 -43 20.5 -70.5t41.5 -46.5h-4q12 -9 21.5 -16t11.5 -9z
M287 587q53 -14 53 -68q0 -24 -9 -46.5t-25 -40t-36.5 -28.5t-43.5 -11q-30 0 -50.5 15t-33.5 33.5t-19 34l-6 15.5q0 28 10.5 50.5t27 38.5t36.5 25t40 9q8 0 16 -3.5t15.5 -7.5t13 -8t8.5 -5z" />
    <glyph glyph-name="dotlessi" unicode="&#x131;" horiz-adv-x="151" 
d="M145 461q0 26 -8.5 38.5t-34.5 12.5q-5 0 -15 -1t-15 -1q-10 0 -17 4q-41 -2 -41 -33q0 -5 2 -13q28 -127 28 -326l1 -4v-43t1 -36q-1 -5 -1 -7v-9q0 -8 1.5 -18t5.5 -19t11.5 -15t19.5 -6q29 0 56 43l-1 149q0 46 -3 89.5t-8 91.5l-3 26q21 27 21 77z" />
    <glyph glyph-name="germandbls" unicode="&#xdf;" horiz-adv-x="527" 
d="M247 463q-6 -10 -10.5 -16t-7.5 -12t-4.5 -13t-1.5 -19h10q0 -24 9.5 -37.5t13.5 -20.5v1l5 -16q159 -74 159 -157q0 -15 -5.5 -22t-13.5 -11.5t-18.5 -9.5t-19.5 -16q-8 -9 -13 -9q-26 0 -37.5 14.5t-25.5 45.5v4q0 18 -13.5 25.5t-28.5 7.5q-59 0 -59 -76
q5 -12 10.5 -23.5t12.5 -22.5h-1q9 -16 18 -28v3q24 -26 57 -37t69 -11q25 0 43 2t34 9t32 20t38 35h-2q37 48 37 107q0 19 -11.5 45.5t-29 51.5t-39.5 45t-43 26q-77 23 -77 55q0 7 14.5 31t32 53t32 57t15.5 44q0 25 -18.5 53.5t-46.5 52.5t-61 40t-62 16q-47 0 -69 -5
t-33.5 -13.5t-20.5 -21t-28 -27.5q-20 -15 -31 -30.5t-16.5 -36t-7 -49t-2.5 -69.5q9 -66 12.5 -118.5t3.5 -85.5l2 -24l-2.5 -15.5t-4.5 -40t-4 -54t-2 -55.5v-6q0 -35 2.5 -76t9.5 -90q23 -10 35 -15.5t31 -5.5q57 0 57 42q0 14 -8 24l-32 508q-4 19 -4 38q0 27 8 50.5
t21.5 41.5t31.5 28.5t38 10.5q29 0 50 -28.5t28 -80.5q-14 -15 -29 -36t-29 -47z" />
    <glyph glyph-name="degree" unicode="&#xb0;" horiz-adv-x="311" 
d="M94 485q15 -11 23 -16.5t14.5 -8t13 -3t17.5 -0.5q53 0 138 73v9q0 2 -0.5 3t-0.5 3v4q0 3 2 11t5 18t5 20t2 16q0 9 -7.5 25t-23.5 33.5t-41.5 32.5t-61.5 23h-5q-24 0 -50.5 -10.5t-48 -29t-35.5 -45t-14 -58.5q0 -22 7 -36.5t16.5 -25t20.5 -18t19 -15.5zM228 598
q0 -24 -14.5 -45t-35.5 -21q-11 0 -23.5 6.5t-23 15.5t-17.5 19t-7 17q0 28 20 45.5t43 17.5t40.5 -16.5t17.5 -38.5z" />
    <glyph glyph-name="registered" unicode="&#xae;" horiz-adv-x="786" 
d="M462 695h-153q-59 0 -115 -27.5t-99.5 -72t-70.5 -100t-27 -111.5q0 -85 28 -158t78.5 -126.5t120.5 -84t153 -30.5q31 0 70 9t75.5 23.5t66.5 33t42 38.5q4 9 8.5 23t10.5 29.5t14.5 31.5t20.5 30q18 22 28 51t10 65q0 12 -2.5 35.5t-6 49t-6 48.5t-2.5 33q0 26 7 53
q-3 7 -17 20t-30 25.5t-28.5 23t-12.5 12.5v7q-15 18 -37.5 28.5t-45.5 16.5t-44.5 9.5t-33.5 7.5zM343 606q50 0 85 -4t61.5 -14.5t46.5 -29.5t39 -48l21 -1q11 -26 18 -54.5t7 -58.5q0 -143 -135 -282l4 -5q-9 -3 -22 -6t-25.5 -5.5t-22 -4t-10.5 -1.5v-15l-3 14
q-34 -14 -51 -14q-38 0 -74 14t-66.5 40.5t-55.5 63t-41 81.5q0 7 -1.5 20.5t-3.5 28.5t-3.5 28t-1.5 18q1 34 29 60q5 16 14.5 32t20.5 32.5t22.5 32.5t21.5 31q34 47 126 47zM417 430q0 -36 -72 -74q48 -141 142 -190q16 1 26 4t17.5 9.5t13 17t13.5 26.5q-41 44 -68.5 74
t-41.5 49q6 8 15 23t19 30.5t20.5 30t19.5 22.5q-18 30 -35.5 47.5t-45 26.5t-71.5 11.5t-115 2.5q-29 -27 -29 -62q0 -8 6 -20.5t13.5 -24.5t14 -21t7.5 -9h-19v-195q-32 -24 -32 -39q0 -24 42 -24q11 0 31.5 3t50.5 8q-2 22 -3.5 52.5t-1.5 61.5q0 15 0.5 38t1 49.5
t1 54.5t0.5 53q14 0 28 -3t25.5 -7.5t19 -11t7.5 -13.5z" />
    <glyph glyph-name="copyright" unicode="&#xa9;" horiz-adv-x="756" 
d="M716 373q-5 35 -17.5 84t-33.5 97t-50.5 86t-66.5 51q-11 3 -18.5 5t-15 4.5l-16.5 5.5t-22 9q-97 0 -185 -11t-171 -47q-108 -191 -108 -331q0 -87 34.5 -151.5t87 -107t114 -63.5t115.5 -22h12q84 22 131.5 35.5t74.5 29t40.5 39.5t29.5 67q5 17 13 29t17 21
q39 51 39 116q0 12 -1 25t-3 29zM339 607q58 0 94 -5t60.5 -18t45 -36t49.5 -59q10 -10 16.5 -25.5t10.5 -31.5t5.5 -31.5t1.5 -25.5q0 -19 -3.5 -38t-11.5 -40.5t-21 -46.5t-31 -56l-84 -63q-23 -17 -50 -31t-48 -14q-50 0 -93.5 13.5t-77.5 42t-57.5 73.5t-33.5 107
q-2 14 -3 23.5t-1 14.5v8q0 20 7.5 36t21.5 28q6 19 21.5 46.5t34 53t37 44.5t30.5 21q20 4 40 6zM423 249v1q-20 11 -41 23.5t-37 27.5q-5 7 -17 16t-17 12l4 -1q-17 12 -25 16.5t-8 12.5v3q3 5 9.5 12t21.5 19t39.5 30t62.5 45q17 8 30.5 23t18.5 29q-1 16 -16.5 31.5
t-29.5 15.5q-6 0 -16 -5v1q-17 -9 -37 -23t-41 -34q-13 -7 -27.5 -17t-25.5 -19q-2 -7 -16.5 -20t-26 -22t-13.5 -10q-2 -3 -5 -5.5t-6 -6.5l-40 -46q29 -32 57.5 -62.5t50.5 -48.5l1 2l6 -8q2 -1 3.5 -1.5t4.5 -2.5t8.5 -5.5t15.5 -9.5l42 -25q30 -11 43 -21v1l38 -35
q12 5 21 19t9 25q0 5 -2 20t-2 20l-11 -6l-6.5 6.5l-9.5 9.5h10q-2 2 -8 5.5t-12 7.5zM275 256l1 2v-2h-1z" />
    <glyph glyph-name="trademark" horiz-adv-x="962" 
d="M931 286q18 0 27.5 9.5t9.5 26.5v8t-1 6l-11 46q-26 103 -46.5 181t-32.5 135q14 23 14 38q0 20 -20 30.5t-51 10.5q-26 -57 -50 -118.5t-37 -119.5q-7 -12 -13.5 -26t-13.5 -21q-8 10 -15 26t-13.5 32.5t-12.5 31t-12 21.5q-3 3 -7 19t-10 36t-14 41t-19 34
q-2 8 -7.5 17t-5.5 25h-17q-26 0 -39.5 -12t-13.5 -33q0 -3 0.5 -11.5t1.5 -17.5t2 -16t2 -8q0 -21 -4.5 -50t-11 -60.5t-13.5 -62.5t-12 -56l-12 -60q0 1 -1 -1.5t-2 -5.5l1 1q-5 -14 -13.5 -39t-8.5 -56q15 0 22.5 -0.5t12 -1.5t8.5 -1.5t11 -0.5q16 0 27.5 24.5t20 58
t14 69t8.5 56.5q2 15 6 39t7 44l11 -16q10 -32 22 -59.5t23 -53t21 -49.5t16 -48q0 -34 32 -34h9q8 9 13.5 20.5t10.5 23t10.5 22t14.5 19.5q4 24 10.5 49.5t18.5 51.5l27 60q14 -45 26.5 -107t23.5 -125q5 -5 10 -12t12 -14t15 -11.5t19 -4.5zM494 707q0 2 3 14t3 18
q0 11 -5.5 17.5t-13.5 9.5t-18 3.5t-19 0.5h-5q-22 0 -70 -6v-1q-17 -2 -30 -2h-24h-7q-22 5 -57.5 9t-83.5 4h-12q-26 0 -45 -2.5t-36 -2.5h-10q-5 0 -14 2q-4 -11 -7.5 -18t-6 -11.5t-4 -8.5t-1.5 -10q0 -23 9.5 -27t23.5 -4l6 -25q23 29 25 29v-7q16 1 36.5 1.5t32.5 0.5
q27 0 44 -3q-2 -7 -4 -13.5t-4 -12.5q18 -35 18 -73q0 -8 -1.5 -24t-3.5 -33.5t-3.5 -34t-1.5 -25.5q3 -17 3 -40q0 -18 -1.5 -42t-1.5 -42v-26q0 -19 5 -30.5t27 -11.5h2q2 0 7 2l-1 -1q5 1 10.5 2t7.5 1t2.5 -0.5t2.5 -0.5h9q10 12 17.5 35t12 46.5t6.5 44t2 28.5t-2 21.5
t-4.5 27t-4.5 25.5t-2 17q0 14 5 28.5t5 28.5q0 7 -1.5 19t-4 24t-4 22t-1.5 14q0 17 5 25l46 3q13 4 36 4h29q8 -1 14 -1.5t13 -0.5q9 0 19.5 0.5t19.5 2.5z" />
    <glyph glyph-name="trademark" unicode="&#x2122;" horiz-adv-x="962" 
d="M931 286q18 0 27.5 9.5t9.5 26.5v8t-1 6l-11 46q-26 103 -46.5 181t-32.5 135q14 23 14 38q0 20 -20 30.5t-51 10.5q-26 -57 -50 -118.5t-37 -119.5q-7 -12 -13.5 -26t-13.5 -21q-8 10 -15 26t-13.5 32.5t-12.5 31t-12 21.5q-3 3 -7 19t-10 36t-14 41t-19 34
q-2 8 -7.5 17t-5.5 25h-17q-26 0 -39.5 -12t-13.5 -33q0 -3 0.5 -11.5t1.5 -17.5t2 -16t2 -8q0 -21 -4.5 -50t-11 -60.5t-13.5 -62.5t-12 -56l-12 -60q0 1 -1 -1.5t-2 -5.5l1 1q-5 -14 -13.5 -39t-8.5 -56q15 0 22.5 -0.5t12 -1.5t8.5 -1.5t11 -0.5q16 0 27.5 24.5t20 58
t14 69t8.5 56.5q2 15 6 39t7 44l11 -16q10 -32 22 -59.5t23 -53t21 -49.5t16 -48q0 -34 32 -34h9q8 9 13.5 20.5t10.5 23t10.5 22t14.5 19.5q4 24 10.5 49.5t18.5 51.5l27 60q14 -45 26.5 -107t23.5 -125q5 -5 10 -12t12 -14t15 -11.5t19 -4.5zM494 707q0 2 3 14t3 18
q0 11 -5.5 17.5t-13.5 9.5t-18 3.5t-19 0.5h-5q-22 0 -70 -6v-1q-17 -2 -30 -2h-24h-7q-22 5 -57.5 9t-83.5 4h-12q-26 0 -45 -2.5t-36 -2.5h-10q-5 0 -14 2q-4 -11 -7.5 -18t-6 -11.5t-4 -8.5t-1.5 -10q0 -23 9.5 -27t23.5 -4l6 -25q23 29 25 29v-7q16 1 36.5 1.5t32.5 0.5
q27 0 44 -3q-2 -7 -4 -13.5t-4 -12.5q18 -35 18 -73q0 -8 -1.5 -24t-3.5 -33.5t-3.5 -34t-1.5 -25.5q3 -17 3 -40q0 -18 -1.5 -42t-1.5 -42v-26q0 -19 5 -30.5t27 -11.5h2q2 0 7 2l-1 -1q5 1 10.5 2t7.5 1t2.5 -0.5t2.5 -0.5h9q10 12 17.5 35t12 46.5t6.5 44t2 28.5t-2 21.5
t-4.5 27t-4.5 25.5t-2 17q0 14 5 28.5t5 28.5q0 7 -1.5 19t-4 24t-4 22t-1.5 14q0 17 5 25l46 3q13 4 36 4h29q8 -1 14 -1.5t13 -0.5q9 0 19.5 0.5t19.5 2.5z" />
    <glyph glyph-name="plusminus" unicode="&#xb1;" horiz-adv-x="470" 
d="M51 296l148 -19q0 -9 0.5 -18t0.5 -17v-108q-26 3 -42 4.5t-27 2.5t-20.5 2t-22.5 2h-8q-19 0 -30 -9t-11 -28q0 -7 3.5 -18.5t9 -22t12.5 -18.5t15 -8v20q-2 0 12.5 -2t39 -4.5t55.5 -6t61 -6t56 -4.5t41 -2q95 0 116 3l-3 30q-2 14 -3.5 28.5t-1.5 16.5q0 -1 7.5 6
t15.5 16l-185 -3q3 27 4 65.5t1 78.5q11 0 35 1.5t51 3.5t51.5 3.5t35.5 1.5q0 8 1.5 20t4 24.5t6 23.5t8.5 18q-26 21 -52.5 30.5t-55.5 9.5q-8 0 -19 -0.5t-23 -1.5t-23.5 -1.5t-19.5 -0.5q-1 23 -1.5 63.5t-0.5 93.5l-89 -18l-1.5 -9.5t-3.5 -15.5v1q-2 -8 -4 -16.5
t-3.5 -21.5t-3 -31.5t-3.5 -46.5q-13 -3 -33 -10.5t-31 -7.5q-2 0 -14 4t-22 4q-17 0 -37 -17v1q-3 -3 -5 -4l-12 -13h3q-3 -11 -3 -24q0 -8 2.5 -18.5t10.5 -21.5z" />
    <glyph glyph-name="mu" unicode="&#xb5;" horiz-adv-x="473" 
d="M29 460v-1q-1 -11 -1 -27v-36q0 -8 2.5 -17.5t6.5 -20.5l-1 1q2 -8 5 -16.5t4 -12.5q0 1 -1 1v0q-5 0 -9 -7.5t-4 -13.5v-2q0 -20 -4.5 -50.5t-4.5 -62.5v-7q0 -14 3 -20t7 -9q11 -20 14 -44t3 -47v-45q0 -31 -4.5 -48.5t-9.5 -29.5v1q-6 -18 -6 -31t3 -19.5t3 -13.5
l72 -35q11 25 16 49t7 46.5t3 43t4 38.5q34 -29 103 -29h5q28 0 54.5 5t52.5 31v-22q34 -34 60 -34q20 0 31 19t16 46.5t6 60t1 59.5v9q0 30 -3 76t-7 90t-7 78.5t-3 42.5q0 31 11 56q-15 22 -29.5 33t-31.5 11q-16 0 -29 -10.5t-22 -28t-14 -40t-5 -45.5q0 -38 6 -78t6 -70
q0 -176 -95 -176q-5 0 -13 1t-17 2.5t-16.5 2.5t-10.5 1h-4q-11 7 -18 17t-11.5 29.5t-6.5 53t-2 86.5v222q-11 3 -15 7l-8 8v-1q-8 8 -15 12.5t-15 4.5q-22 0 -58 -37q0 -14 -1 -29t-3 -28z" />
    <glyph glyph-name="mu" unicode="&#x3bc;" horiz-adv-x="473" 
d="M29 460v-1q-1 -11 -1 -27v-36q0 -8 2.5 -17.5t6.5 -20.5l-1 1q2 -8 5 -16.5t4 -12.5q0 1 -1 1v0q-5 0 -9 -7.5t-4 -13.5v-2q0 -20 -4.5 -50.5t-4.5 -62.5v-7q0 -14 3 -20t7 -9q11 -20 14 -44t3 -47v-45q0 -31 -4.5 -48.5t-9.5 -29.5v1q-6 -18 -6 -31t3 -19.5t3 -13.5
l72 -35q11 25 16 49t7 46.5t3 43t4 38.5q34 -29 103 -29h5q28 0 54.5 5t52.5 31v-22q34 -34 60 -34q20 0 31 19t16 46.5t6 60t1 59.5v9q0 30 -3 76t-7 90t-7 78.5t-3 42.5q0 31 11 56q-15 22 -29.5 33t-31.5 11q-16 0 -29 -10.5t-22 -28t-14 -40t-5 -45.5q0 -38 6 -78t6 -70
q0 -176 -95 -176q-5 0 -13 1t-17 2.5t-16.5 2.5t-10.5 1h-4q-11 7 -18 17t-11.5 29.5t-6.5 53t-2 86.5v222q-11 3 -15 7l-8 8v-1q-8 8 -15 12.5t-15 4.5q-22 0 -58 -37q0 -14 -1 -29t-3 -28z" />
    <glyph glyph-name="divide" unicode="&#xf7;" horiz-adv-x="557" 
d="M416 404q-2 0 -8.5 0.5t-9.5 0.5q-13 2 -33.5 3.5t-43.5 1.5q-42 0 -86 -7.5t-86 -7.5q-17 0 -26 6q-54 -3 -88 -3h-33v-16q0 -2 0.5 -4t0.5 -4v-9q0 -4 -1 -10v-4q-2 -2 -2 -7v-7q0 -29 11 -44t28 -15q1 0 8 1t16 2t10 1h2q3 -2 12 -2q48 34 113 34q13 0 29 -0.5
t32 -1.5h-1q12 -1 23.5 -1.5t17.5 -0.5q45 0 81 12q3 3 7 3t11.5 -1.5t15.5 -1.5h12q37 0 37 39q0 19 -5.5 31.5t-22.5 12.5t-21 -3v2zM264 271h-3l3 -1q-4 1 -7 2t-7 1q-10 0 -26.5 -1t-32 -4.5t-26.5 -10t-11 -16.5q0 -5 0.5 -8.5t1.5 -7.5l2 -7q0 -3 -2 -7v-34
q0 -22 6 -36t26 -14q1 0 7.5 1t8.5 1l4 -2q2 -2 3.5 -2.5t6.5 -0.5h3q4 0 12 0.5t18 3t19.5 7t17.5 13.5l1 -2q2 4 3 7.5t3 7.5l-2 3q0 10 -7 16.5t-7 11.5q1 3 2.5 11l3 16l3 16t1.5 11q0 2 -0.5 6t-3.5 12l-8 3v-1q-7 4 -9 4.5t-4 0.5zM275 570h-17q-1 0 -1.5 0.5
t-1.5 0.5h-12q-9 0 -25.5 -0.5t-32 -3.5t-27 -9t-11.5 -17q0 -6 1 -12t3 -11q-1 0 -3 -2v-39q0 -14 4 -28.5t20 -21.5q6 0 14 1t10 1h2l1.5 -0.5t3.5 -1.5h-1q2 -2 5 -2.5l3 -0.5h3q4 0 12 0.5t17.5 2.5t19.5 7t17 13l1 -2q2 3 4 9l3 5l-2 4q0 11 -7.5 17t-7.5 15q0 2 1.5 8
t4 14t4 16t1.5 13q0 2 -1.5 6.5l-3.5 10.5h-1v7zM265 258h10l-2 -9q-6 0 -7 1t-1 8zM267 259l9 6l-1 -6h-8z" />
    <glyph glyph-name="d" unicode="d" horiz-adv-x="443" 
d="M19 257q54 -60 107.5 -105t107.5 -74q2 2 4 2t4 1q0 -16 7 -25t19.5 -15t30 -12t39.5 -16l46 -22t49 -11l2 97q-14 81 -19.5 177t-5.5 207v123q5 6 9 16.5t7 17.5h-4q0 18 5.5 40.5t10.5 31.5v7q0 5 1 13t3 17l5 29q0 9 -2.5 18.5t-10.5 20.5h-12q-8 0 -18 -0.5t-21 -2.5
t-19 -6q-4 -2 -6.5 -3t-4.5 -1q-5 0 -12 6.5t-26 9.5q-8 -13 -9.5 -17.5l-2.5 -7.5v-24q0 -11 -5.5 -25t-5.5 -27q0 -9 4.5 -15t10 -12t10 -14.5t4.5 -23.5q0 -11 -4 -32.5t-9 -45.5t-9 -46.5t-4 -35.5v-16q0 -7 2 -13q-96 -35 -165.5 -78t-112.5 -94v-14zM299 300
q0 -12 3 -34.5t6.5 -46.5t6.5 -45.5t3 -31.5v-7l-9 1q-38 21 -86 64v-1q-9 9 -16 15.5t-15 13.5t-18 15.5t-23 21.5q37 26 73.5 43.5t77.5 27.5q-2 -10 -2.5 -19t-0.5 -17z" />
    <glyph glyph-name="a" unicode="a" 
d="M283 369q-4 0 -5 1h1q-3 1 -6.5 -2t-7 -7t-7.5 -7.5t-8 -3.5q-14 -5 -24 -5t-18 -14q-17 -27 -44.5 -44.5t-53 -34t-44 -37t-18.5 -55.5l14 -36q2 -9 11.5 -28.5t23 -41t29 -40.5t29.5 -25h-1q3 -2 7 -4.5t5 -2.5v1l-1 1q18 -12 37 -23t36 -11q5 0 9 1t9 3v1q9 3 12.5 9
t7.5 13t9.5 14t17.5 13q31 20 62.5 41t56 43.5t40 47.5t15.5 53q0 21 -3 39t-11 40t-22.5 50t-37.5 67l-1 -1q-9 25 -17 41.5t-15 28t-13 19t-11 13.5l-10 10q-4 11 -16 15t-28 4h-10q-3 0 -6 -0.5t-6 -0.5h-17q-16 0 -22.5 2.5t-10.5 6t-9 6t-17 2.5t-24 -2t-21 -2h-10
q-43 0 -76 -42q2 -41 16.5 -53t40.5 -12q25 0 48 4.5t45 4.5q15 0 26.5 -2.5t21.5 -10t18.5 -20t18.5 -31.5q-6 3 -15 4zM364 215l4 -15q4 -6 4.5 -8.5t0 -4t-2 -2.5t-0.5 -3q-14 -18 -31.5 -35t-35 -29.5t-34 -20.5t-27.5 -8q-5 0 -11 3t-12 6.5t-10.5 7l-4.5 3.5h1
q-9 6 -15.5 10.5t-10.5 10t-6.5 13t-4.5 18.5q8 17 24 35t36.5 33.5t45.5 27t51 15.5q5 6 8 6.5t5 8.5q10 -19 15.5 -35.5t10.5 -36.5z" />
    <glyph glyph-name="c" unicode="c" horiz-adv-x="419" 
d="M367 69l-1 1q-28 15 -57.5 33t-52.5 40q-4 5 -11 11l-14 12t-13.5 10.5t-8.5 5.5l5 -1q-23 17 -41.5 32.5t-18.5 26.5v4q4 7 13.5 17t30 26.5t55 42t88.5 63.5q23 11 42 32t27 41q-2 22 -16.5 35t-34.5 13q-7 0 -22 -7v1q-49 -25 -110 -80q-18 -10 -39 -23.5t-35 -27.5
q-2 -8 -15 -20.5t-27 -24t-26 -20l-12 -8.5q-3 -4 -6.5 -7.5l-8.5 -8.5l-47 -47q41 -45 81.5 -88t71.5 -68l1 3l8 -12q3 -1 5.5 -2t7 -3.5t12 -7.5t21.5 -14l59 -35q42 -14 60 -29v1l54 -49q32 12 32 44q0 3 -1 11t-1.5 17t-1.5 17t-1 11l-16 -9q-3 2 -9 9t-13 14h14
q-4 2 -12 7.5t-16 10.5zM168 97l1 3v-3h-1zM367 69v-1h-1v1h1z" />
    <glyph glyph-name="u" unicode="u" horiz-adv-x="462" 
d="M28 414q0 -19 2.5 -36.5t6 -37.5t6 -43.5t2.5 -54.5q0 -21 -3 -41.5t-3 -48.5q0 -36 21.5 -67.5t52 -54t65 -35.5t61.5 -13q19 0 40 2.5t41 8.5t37 17.5t29 29.5q15 22 28 49t22.5 55.5t15 56.5t5.5 53q0 60 -6.5 102t-6.5 56q0 31 12 55q-30 44 -61 44q-16 0 -29 -10.5
t-22 -27.5t-14 -39t-5 -46q0 -33 5.5 -62.5t5.5 -58.5q0 -174 -95 -174q-3 0 -11 1t-16.5 2l-17 2t-12.5 1h-2q-11 8 -19 18.5t-12.5 30t-6.5 52t-2 84.5v194q-8 2 -12.5 5.5t-9.5 7.5v-1q-7 7 -14 13t-16 6q-22 0 -58 -37v-14t-1 -13l-3 -29v-2z" />
    <glyph glyph-name="r" unicode="r" horiz-adv-x="347" 
d="M314 497h-19q-66 0 -109 -10t-65 -10q-5 0 -27.5 -2.5t-51.5 -2.5q-5 -64 -7.5 -109t-2.5 -74q0 -23 1 -44.5t1 -50.5q0 -49 -1.5 -105t-5.5 -103q0 -13 13 -27t34 -14q13 0 24 3.5t19.5 15t13.5 33t5 57.5q0 14 -0.5 40t-1.5 57t-2.5 62.5t-2.5 56.5t-1.5 40t-0.5 12
q-2 16 -1 28.5t-6 14.5q12 1 23.5 5.5t20.5 10t16 10t11 6.5l122 -7q23 2 32 14t9 33q0 39 -36 59z" />
    <glyph glyph-name="x" unicode="x" horiz-adv-x="436" 
d="M413 490l-11 17h-92q-11 -11 -18.5 -26.5t-15 -32t-17 -33.5t-23.5 -31q18 -9 18 -11q0 -3 -3 -10.5t-7 -16.5t-9 -19t-9 -17q-11 21 -20.5 44.5t-14.5 44.5q-26 30 -37 48.5t-16.5 29t-10.5 14t-19 3.5q-8 0 -20.5 -2t-26 -4t-26.5 -4t-23 -2q5 -25 17 -47.5t32 -45.5
q10 -2 18 -10.5t13.5 -18.5t9 -18t3.5 -9q2 -5 11 -17t19.5 -25.5t18.5 -27t8 -22.5q0 -11 -14.5 -28t-25.5 -38q-14 -32 -21 -43.5t-7 -16.5v-2q0 -5 -5 -9l-9 -6l1 1q-15 -9 -22.5 -22.5t-10.5 -28t-2.5 -28.5t0.5 -23q23 0 42.5 -2t38.5 -2q28 0 39 28v4l8.5 10t8.5 18
q0 6 -3 12l48 87q7 -14 19.5 -34t24.5 -41h1q17 -29 32 -54t23 -39h30t31 1t28 3.5t22 6.5q-53 69 -87.5 130t-54.5 115q26 53 47 100.5t38 89.5q14 4 21 16.5t10 43.5z" />
    <glyph glyph-name="k" unicode="k" horiz-adv-x="492" 
d="M275 83l60 -37q42 -14 60 -27l53 -50q34 12 34 44q0 -1 -1 8t-1.5 20t-1.5 19.5t-1 6.5q-10 6 -14.5 10.5t-9 8t-10.5 8t-19 10.5l-1 -3q-11 11 -25.5 20.5t-29.5 18.5t-29 17.5t-24 17.5q0 4 -1.5 7.5t-6.5 7.5t-14 10t-25 17h1q-23 16 -41 32.5t-18 26.5v3q4 9 13 17.5
t30 24.5t55.5 42.5t89.5 70.5q24 16 42 32.5t27 39.5q-2 22 -16 35.5t-34 13.5q-9 0 -23 -7v1q-25 -13 -52.5 -33t-58.5 -49q-20 -10 -40.5 -23.5t-33.5 -28.5q-4 -9 -14.5 -21.5t-24.5 -23.5v32q0 49 -2 95t-7 91l5 171q-30 42 -64 42q-15 0 -23.5 -5.5t-13.5 -14
t-6.5 -18.5t-1.5 -19q0 -5 0.5 -9.5t0.5 -6.5v-40q0 -31 1 -77t1.5 -92.5t1.5 -85.5t1 -56q0 -195 -32 -331q-3 -5 -3 -12q0 -15 11.5 -24t35.5 -10q7 4 20 4q5 0 17 -1t17 -1q28 0 39 12t11 40q0 49 -25 80q2 10 2.5 20t2.5 21q17 -18 34 -35t31 -24l4 -6q4 -1 6.5 -2
t7 -3.5t12 -7.5t21.5 -14z" />
    <glyph glyph-name="v" unicode="v" horiz-adv-x="495" 
d="M440 405q3 7 11.5 18t17.5 23.5t16.5 25t9.5 21.5q-24 47 -63 47h-8q-81 -32 -85 -127q-14 -17 -22.5 -43t-16.5 -68q-2 -18 -7 -29.5t-11.5 -23.5t-13.5 -26t-13 -36q-6 31 -9 52.5t-8.5 42.5t-14.5 46t-27 62q-41 87 -47 146q-21 0 -37 5t-39 5q-14 0 -27.5 -6
t-23.5 -20q12 -20 12.5 -43t3 -43t13 -34.5t43.5 -18.5q15 -34 24.5 -55t16.5 -37.5t11.5 -32t9.5 -36.5t11.5 -52.5t17.5 -79.5q7 -17 8 -35.5t5.5 -35t17.5 -29t44 -16.5q8 20 11 28t3 11q0 1 -0.5 1.5l-0.5 0.5h4q7 0 21 28t31.5 71t37.5 95.5t38 102.5v-1
q10 27 18.5 51.5t16.5 44.5z" />
    <glyph glyph-name="currency" unicode="&#xa4;" horiz-adv-x="605" 
d="M407 232q33 1 60 2.5t47 7.5t31 18t11 33q0 12 -5 21t-11.5 15t-13.5 8.5t-10 2.5h-5t-7 -2h-1q-3 0 -9 3.5t-15 12.5q-20 -6 -40.5 -8t-45.5 -2q-14 0 -31 1t-34.5 1.5t-34.5 1.5t-30 1q-10 0 -18 -0.5t-16 -1.5q-9 16 -16 36q8 15 22 25.5t47 10.5q8 0 23 -0.5t31 -1.5
t30.5 -1.5t23.5 -0.5q23 0 41 2t33 6q3 0 9.5 -1t14 -2.5t15 -2.5t11.5 -1q43 0 43 70q0 41 -34 41h-10q-2 0 -7 8q-14 -2 -22 -2h-19q-18 0 -47 1t-47 1h-4q19 19 32.5 34.5t30.5 29.5q18 16 39.5 35t41.5 39t36 40.5t24 38.5q-1 4 -3 10h2l-2 2q-2 5 -4.5 7t-9.5 7l-5 5
q-6 6 -12 12.5t-17 6.5q-6 0 -23 -7v1q-38 -19 -73.5 -48t-71.5 -65l-127 -128q-13 -8 -19 -19t-9 -23h1q-5 -14 -13 -27.5t-34 -24.5q-24 -8 -40 -24l-67 -68q88 -97 186 -178t207 -149q13 -30 68 -39q69 27 71 74q-72 46 -121.5 87t-80.5 64l11 3q5 0 10.5 0.5t11.5 0.5z
" />
    <glyph glyph-name="n" unicode="n" horiz-adv-x="490" 
d="M469 106q0 17 -3.5 32t-3.5 26v-1h1l1 1q4 2 3 9.5t-1 18.5v1q0 21 4.5 52.5t4.5 58.5v7q-1 13 -3.5 19.5t-6 11l-7 9t-6.5 14.5q-10 24 -18 37.5t-16.5 21t-18 11.5t-21.5 10q-24 57 -121 57q-30 0 -58.5 -4.5t-53.5 -29.5v5q-36 33 -59 33q-20 0 -31 -18.5t-16.5 -45.5
t-6.5 -57t-1 -54q0 -44 4.5 -104.5t12.5 -117.5q2 -17 3 -28t1 -17q0 -36 -11 -55q29 -44 60 -44q30 0 49.5 34.5t19.5 88.5q0 34 -5.5 67.5t-5.5 61.5q0 175 96 175q4 0 13 -1t18.5 -2.5t17 -2.5t8.5 -1h2q11 -9 18.5 -19t12 -29.5t6.5 -51.5t2 -85v-201q8 -2 12 -6t9 -8v1
q8 -8 15.5 -13.5t16.5 -5.5q6 0 15.5 3t18.5 11t16 20.5t9 32.5l3 27q1 11 1 18v27z" />
    <glyph glyph-name="m" unicode="m" horiz-adv-x="811" 
d="M483 116q0 8 -3.5 18.5t-6.5 21.5v-1q-7 16 -7 27h3q5 2 8 5t3 14v2q0 20 4.5 52t4.5 58v8q-1 11 -3 16.5t-5 10.5q7 14 13.5 25t17.5 19h3l8 1t17.5 2.5t19 2.5t13.5 1q98 0 98 -173q0 -29 -5.5 -58.5t-5.5 -63.5q0 -25 5 -47t14.5 -39t22.5 -27t29 -10q33 0 63 44
q-12 24 -12 55q0 13 7 56t7 102q0 31 -9.5 71t-26 77t-39.5 66t-50 40h1q-21 11 -47.5 15t-54.5 4q-16 0 -36 -5t-40.5 -14t-40.5 -21.5t-36 -27.5q-20 10 -32.5 22t-27 22.5t-35 17.5t-56.5 7q-32 0 -60.5 -5t-55.5 -31v6q-36 33 -60 33q-21 0 -33 -18.5t-17 -45t-6 -57
t-1 -54.5q0 -21 1 -48t3.5 -56t5.5 -59t7 -58q2 -18 3 -28.5t1 -17.5q0 -30 -12 -55q30 -44 63 -44q15 0 26 10.5t18 27.5t10.5 40t3.5 48q0 36 -4.5 68.5t-6.5 61.5q-6 65 -0.5 99.5t20.5 50.5t38 18t53 2q4 0 13.5 -1t19 -2.5t17.5 -2.5t9 -1h2q11 -8 18.5 -17t12.5 -28.5
t7 -52t2 -86.5v-200q9 -3 15 -8.5l12 -11t12.5 -9.5t14.5 -4q25 0 59 38q1 6 1 13q0 8 1 14l3 29q0 6 0.5 10.5t0.5 8.5v11v16z" />
    <glyph glyph-name="w" unicode="w" horiz-adv-x="685" 
d="M426 361q1 4 9.5 14.5t18 23.5t18 26.5t10.5 22.5q-26 47 -65 47h-6q-22 -8 -30 -17.5t-11 -20.5t-5.5 -22.5t-12.5 -22.5q-12 16 -13.5 27t-3 19.5t-8 16.5t-28.5 17h-7q-40 0 -64 -47q2 -11 11 -25t18.5 -26.5t17.5 -22.5t8 -12q4 -16 9.5 -29.5t10.5 -27.5
q-1 -15 -5.5 -25.5t-11 -22t-15 -27t-16.5 -40.5q-8 32 -11 53.5t-7.5 41.5t-13.5 44.5t-28 62.5q-10 22 -18 43t-14 39h1q-11 31 -21 46.5t-21.5 22t-24.5 6.5h-27q-31 0 -52 -26q11 -21 11.5 -43.5t3.5 -43t14 -35t44 -18.5q13 -31 22 -51.5t15.5 -36t11.5 -28.5
t9.5 -29.5t10 -39.5t13.5 -58q4 -20 10.5 -43.5t9.5 -46.5q2 -13 4.5 -25t9 -22.5t19 -18t34.5 -10.5q9 20 12.5 29t3.5 11l3 1q6 0 11 4t12 19.5t18.5 46t30.5 82.5q14 -42 27.5 -70.5t24 -46.5t17.5 -26l7 -8l2 -1q0 -2 3.5 -10.5t13.5 -29.5q29 4 43 20t20.5 37.5t9 46
t9.5 45.5l-1 -1q7 17 10 31t5 26q7 36 12.5 57t12 40.5t17.5 42.5t30 64q32 4 46.5 22.5t16.5 65.5q1 30 11 52q-11 13 -24.5 19t-27.5 6q-18 0 -37 -5t-41 -5q-3 -27 -18 -65.5t-31.5 -77.5t-30 -73t-13.5 -52v1q-1 -4 -3.5 -13t-4.5 -20t-4.5 -23.5t-3.5 -23.5
q-8 22 -16 40.5t-15 28.5q1 3 2 5.5t1 5.5t-0.5 7t-3.5 13l-3 12v-1q-1 2 -2 5.5t-3 9.5l9 26l2.5 5t2.5 6l-1 -1q1 2 1 3t3 6v1zM398 258l2 -6l-3 2q0 3 1 4z" />
    <glyph glyph-name="g" unicode="g" horiz-adv-x="465" 
d="M18 -326q8 -12 24.5 -39.5t36.5 -65.5q10 -21 27.5 -35.5t35.5 -24t34 -14t24 -4.5q6 0 14 3v-1q11 3 15.5 9.5t8.5 14.5t10 16.5t21 16.5q33 22 64 43t54.5 43.5t38 46.5t14.5 53v26q0 13 -2 25t-9.5 31t-22.5 47t-40 72q-20 53 -35.5 74.5t-25.5 32.5q37 27 66 47.5
t49.5 40t31 41t10.5 49.5v9q0 18 -1 31t-8 31t-21.5 47t-41.5 80q-14 45 -29.5 76t-32 50t-33.5 27.5t-33 8.5q-18 0 -33 -8.5t-26.5 -22t-18 -30t-6.5 -32.5q0 -28 19 -49t64 -21h13q18 -33 29.5 -56t20 -42t14 -36t10.5 -36q0 -14 2 -21.5t4 -12.5l-1 -2q-5 -9 -18 -18.5
t-32 -28.5q-14 -15 -24 -24.5t-19 -14t-17 -6t-18 -1.5h-9q-18 15 -29 22.5t-18.5 13.5t-11 13.5t-6.5 24.5q18 35 63 65h-1q6 6 20 6.5t28.5 3t25.5 11t11 29.5q0 14 -5.5 27.5t-14 24t-18.5 17.5t-19 8q-10 0 -16 2t-15 2q-15 -6 -25 -16.5t-18.5 -22t-17 -22t-21.5 -16.5
q-30 -19 -48.5 -33t-29.5 -27t-15 -27t-4 -33q-2 -6 -3.5 -11.5t-3.5 -11.5q10 -26 24 -45t29.5 -35.5t31 -32.5t27.5 -36q5 -2 10 -8t11.5 -12.5t16.5 -12.5t25 -9v-1q20 -3 28.5 -10.5t14.5 -18.5l8 -12q20 -37 33 -62t21.5 -45.5t14 -39t10.5 -41.5v-6q2 -10 3 -14h-1v-1
v-1q-5 -8 -17.5 -18t-31.5 -30q-15 -16 -25.5 -25t-19 -13.5t-16 -5.5t-17.5 -1q-13 0 -25.5 7t-22.5 17.5t-17 24t-9 26.5q8 17 24 32.5t38 30.5l-1 -1q11 6 26 9.5t28.5 8.5t22.5 14t9 26q0 8 -3 15t-8 16q-5 7 -7.5 13t-4.5 10v-1q-6 12 -13 18.5t-29 6.5h-1l1 2
q0 1 -5 1h-21q-12 -5 -18.5 -14.5t-14 -21t-18.5 -24t-31 -24.5q-28 -17 -46 -30.5t-28.5 -27t-15 -28t-4.5 -32.5q-5 -8 -3 -14t5 -11l2 -2q2 -7 4 -7zM18 -326q-1 2 -2 3.5t-2 3.5q5 -7 4 -7z" />
    <glyph glyph-name="E" unicode="E" horiz-adv-x="555" 
d="M484 3q66 27 68 74q-98 63 -152.5 109t-85.5 70q-23 15 -45.5 31t-39.5 33q27 4 69.5 9.5t86.5 12.5t83 16.5t57 22.5v41q0 31 -26 42l-4 1q-9 -1 -32 -3t-50.5 -5.5t-56 -8.5t-48.5 -11q-22 -8 -41 -11t-36 -3q3 2 8 7l36 25q3 11 17.5 28t31.5 34l22 22
q14 18 28.5 31.5t29.5 26.5h-1q18 16 40 35.5t42.5 40t37 41t24.5 38.5q-1 4 -3 10h3q-2 2 -5 6t-6 6l-9 9q-6 7 -13.5 13t-17.5 6q-7 0 -22 -7v1q-38 -20 -74 -48t-72 -65l-123 -125q-21 -11 -40.5 -26t-38.5 -33q-7 -30 -39 -62l-67 -68q88 -97 186.5 -178t207.5 -149
q15 -30 64 -39h6z" />
    <glyph glyph-name="oe" horiz-adv-x="828" 
d="M74 451q-14 -17 -26 -44.5t-17 -62.5v1l-19 -88q-2 -10 -3.5 -20t-1.5 -21q0 -38 18.5 -78.5t51.5 -73.5t78.5 -54.5t100.5 -21.5q18 0 38.5 6t40 16.5t35.5 24t26 29.5q3 4 3 7q0 1 -2 1h-1q14 4 28 18t25 28q11 -23 23 -52t25.5 -55.5t29.5 -44.5t34 -18q9 0 18 2t14 2
q1 0 7 -5.5t14.5 -12t19 -12.5t21.5 -7h8q23 0 43 10.5t37 33.5q-8 20 -18 28.5t-23 12t-27.5 6t-30.5 10.5t-33 24.5t-34 49.5q-2 2 -4 8q14 -5 30 -7t22 -2q10 3 16 10.5t10.5 16.5t8.5 16.5t10 10.5q36 30 65.5 47.5t50.5 33t32.5 32.5t11.5 45h-20q0 1 1 8.5t3.5 16
t5.5 9.5q-11 17 -25 40.5t-38 62.5h1q-10 16 -26 29.5t-34 23.5t-35 16t-27 6q-17 0 -25 -6t-14 -15t-12.5 -19t-20.5 -17q-28 -17 -57.5 -35t-50.5 -38q-7 7 -14 17.5t-14 21.5v-1q-14 22 -31.5 43t-44.5 32q-37 14 -69 19.5t-46 5.5q-96 0 -162 -70h-1zM384 259
q0 -81 -35.5 -127.5t-92.5 -46.5q-8 0 -21.5 6.5t-28 14.5t-28 15.5t-22.5 9.5q-8 1 -13.5 7.5t-9 20.5t-5 36.5t-1.5 56.5q0 29 3.5 55t12 46.5t21.5 33.5t32 16q27 5 40.5 13.5t29.5 8.5q24 0 45.5 -11t37.5 -32t25.5 -52t9.5 -71zM507 247l15 4q-16 16 -19 20q2 9 13 23
t25 28t28.5 25.5t23.5 17.5h-1q18 9 40 9h7q18 -13 29 -20.5t18.5 -14t11.5 -15.5t7 -25q-9 -17 -24.5 -32t-36.5 -27.5t-45.5 -21.5t-50.5 -13q-13 -13 -16 -30q-9 18 -14.5 35t-10.5 37zM825 326q-3 9 -5 9q2 -2 2.5 -4.5t2.5 -4.5zM827 320v5h-1q0 1 -1 1q1 -2 1 -3t1 -3
zM827 318v-1l1 -1q0 1 -1 1v1z" />
    <glyph glyph-name="oe" unicode="&#x153;" horiz-adv-x="828" 
d="M74 451q-14 -17 -26 -44.5t-17 -62.5v1l-19 -88q-2 -10 -3.5 -20t-1.5 -21q0 -38 18.5 -78.5t51.5 -73.5t78.5 -54.5t100.5 -21.5q18 0 38.5 6t40 16.5t35.5 24t26 29.5q3 4 3 7q0 1 -2 1h-1q14 4 28 18t25 28q11 -23 23 -52t25.5 -55.5t29.5 -44.5t34 -18q9 0 18 2t14 2
q1 0 7 -5.5t14.5 -12t19 -12.5t21.5 -7h8q23 0 43 10.5t37 33.5q-8 20 -18 28.5t-23 12t-27.5 6t-30.5 10.5t-33 24.5t-34 49.5q-2 2 -4 8q14 -5 30 -7t22 -2q10 3 16 10.5t10.5 16.5t8.5 16.5t10 10.5q36 30 65.5 47.5t50.5 33t32.5 32.5t11.5 45h-20q0 1 1 8.5t3.5 16
t5.5 9.5q-11 17 -25 40.5t-38 62.5h1q-10 16 -26 29.5t-34 23.5t-35 16t-27 6q-17 0 -25 -6t-14 -15t-12.5 -19t-20.5 -17q-28 -17 -57.5 -35t-50.5 -38q-7 7 -14 17.5t-14 21.5v-1q-14 22 -31.5 43t-44.5 32q-37 14 -69 19.5t-46 5.5q-96 0 -162 -70h-1zM384 259
q0 -81 -35.5 -127.5t-92.5 -46.5q-8 0 -21.5 6.5t-28 14.5t-28 15.5t-22.5 9.5q-8 1 -13.5 7.5t-9 20.5t-5 36.5t-1.5 56.5q0 29 3.5 55t12 46.5t21.5 33.5t32 16q27 5 40.5 13.5t29.5 8.5q24 0 45.5 -11t37.5 -32t25.5 -52t9.5 -71zM507 247l15 4q-16 16 -19 20q2 9 13 23
t25 28t28.5 25.5t23.5 17.5h-1q18 9 40 9h7q18 -13 29 -20.5t18.5 -14t11.5 -15.5t7 -25q-9 -17 -24.5 -32t-36.5 -27.5t-45.5 -21.5t-50.5 -13q-13 -13 -16 -30q-9 18 -14.5 35t-10.5 37zM825 326q-3 9 -5 9q2 -2 2.5 -4.5t2.5 -4.5zM827 320v5h-1q0 1 -1 1q1 -2 1 -3t1 -3
zM827 318v-1l1 -1q0 1 -1 1v1z" />
    <glyph glyph-name="OE" horiz-adv-x="968" 
d="M905 -6q68 28 69 74q-98 63 -157.5 109t-83.5 70q-24 15 -46.5 31t-40.5 33q28 4 71.5 9.5t88.5 12.5t83.5 17t57.5 23v41q0 30 -26 42l-3 -15l-1 16q-9 -1 -32.5 -3t-51.5 -6t-57 -9t-49 -11q-23 -8 -42.5 -10.5t-36.5 -2.5q2 2 4 3t4 3l36 25q4 11 18.5 28t31.5 34
l23 23q13 17 28.5 31t30.5 26h-1q19 16 41 35.5t43 40.5t38 41.5t25 37.5q-1 5 -2 9.5t-3 9.5h5q-5 5 -10.5 9t-7.5 8v-1q-21 15 -34 15q-8 0 -23 -7v1q-38 -20 -75 -48t-74 -65l-12 -12q-23 36 -58 61t-76.5 41.5t-87 24t-89.5 7.5q-103 0 -196 -45q-6 -15 -26 -29.5
t-42 -28t-41 -26t-25 -24.5q-32 -70 -49 -138t-17 -134q0 -81 26.5 -149t77.5 -125q137 -98 268 -98q43 0 81.5 9.5t73 26.5t67 42t64.5 57q37 -27 74 -52.5t75 -48.5q16 -30 65 -39h6zM568 174q-5 -5 -17 -5q-4 0 -6 1h-9q-31 0 -33 -26q-25 -11 -54.5 -17t-64.5 -6
q-21 0 -46 2t-49 8t-44.5 17t-33.5 29v-1q-5 8 -12.5 27.5t-16.5 42.5t-19 45.5t-22 36.5q12 27 12 64q0 8 -2 27t-2 42v18q17 43 41 82t54 77q10 1 27.5 5t36 8.5t35 8.5t25.5 4q8 0 25 -3q17 7 34 10t34 3q28 0 51.5 -5t45.5 -17t43 -31t44 -47l-23 -25
q-22 -10 -41.5 -25.5t-38.5 -33.5q-7 -30 -41 -62l-67 -68q39 -43 80 -81.5t83 -74.5q-12 -15 -29 -30z" />
    <glyph glyph-name="OE" unicode="&#x152;" horiz-adv-x="968" 
d="M905 -6q68 28 69 74q-98 63 -157.5 109t-83.5 70q-24 15 -46.5 31t-40.5 33q28 4 71.5 9.5t88.5 12.5t83.5 17t57.5 23v41q0 30 -26 42l-3 -15l-1 16q-9 -1 -32.5 -3t-51.5 -6t-57 -9t-49 -11q-23 -8 -42.5 -10.5t-36.5 -2.5q2 2 4 3t4 3l36 25q4 11 18.5 28t31.5 34
l23 23q13 17 28.5 31t30.5 26h-1q19 16 41 35.5t43 40.5t38 41.5t25 37.5q-1 5 -2 9.5t-3 9.5h5q-5 5 -10.5 9t-7.5 8v-1q-21 15 -34 15q-8 0 -23 -7v1q-38 -20 -75 -48t-74 -65l-12 -12q-23 36 -58 61t-76.5 41.5t-87 24t-89.5 7.5q-103 0 -196 -45q-6 -15 -26 -29.5
t-42 -28t-41 -26t-25 -24.5q-32 -70 -49 -138t-17 -134q0 -81 26.5 -149t77.5 -125q137 -98 268 -98q43 0 81.5 9.5t73 26.5t67 42t64.5 57q37 -27 74 -52.5t75 -48.5q16 -30 65 -39h6zM568 174q-5 -5 -17 -5q-4 0 -6 1h-9q-31 0 -33 -26q-25 -11 -54.5 -17t-64.5 -6
q-21 0 -46 2t-49 8t-44.5 17t-33.5 29v-1q-5 8 -12.5 27.5t-16.5 42.5t-19 45.5t-22 36.5q12 27 12 64q0 8 -2 27t-2 42v18q17 43 41 82t54 77q10 1 27.5 5t36 8.5t35 8.5t25.5 4q8 0 25 -3q17 7 34 10t34 3q28 0 51.5 -5t45.5 -17t43 -31t44 -47l-23 -25
q-22 -10 -41.5 -25.5t-38.5 -33.5q-7 -30 -41 -62l-67 -68q39 -43 80 -81.5t83 -74.5q-12 -15 -29 -30z" />
    <glyph glyph-name="Oslash" unicode="&#xd8;" horiz-adv-x="796" 
d="M459 6q55 12 106.5 42t94 73t73.5 95t44 108q-1 5 -4 43.5t-7 112.5q-2 49 -9 86t-19 65.5t-30 50.5t-42 41q14 42 23 81l-15 5h1q-3 2 -9 2q-5 0 -15 -4t-22 -10t-25 -14t-22 -16q-83 30 -170 30q-51 0 -99.5 -11.5t-95.5 -33.5q-6 -15 -25 -29t-41.5 -28t-41.5 -26.5
t-25 -24.5q-65 -141 -65 -273q0 -40 7 -81t22 -79t37.5 -70.5t53.5 -55.5q-16 -16 -28 -36t-12 -34q0 -15 9 -24.5t20.5 -14.5t21 -6.5t10.5 -1.5q13 0 21 0.5t13.5 4t10.5 10.5t14 21q0 4 -2 10l15 18q79 -33 156 -33q40 0 71 7zM186 213q-10 28 -24.5 62t-29.5 53
q11 26 11 65q0 10 -1.5 29t-1.5 39v19q35 85 94 159q10 1 27.5 5t36 8.5t35 8.5t25.5 4t24 -4q17 8 34 11t34 3q34 0 69 -11q-35 -59 -80 -128t-90 -136t-85 -125t-65 -95q-3 5 -6 13.5t-7 19.5zM654 492q-2 -16 -9 -38t-15 -42q19 -35 19 -72q0 -79 -92 -166q-5 -5 -17 -5
q-4 0 -7 1h-9q-30 0 -32 -25q-25 -11 -54.5 -17.5t-64.5 -6.5q-16 0 -33 1t-36 4l28 36q6 51 29 97t71 103q35 42 56 70t29 39l-2 5q5 8 11 17.5t15.5 24.5t24 38.5t38.5 58.5q6 -6 16 -18t19 -26t16 -28t7 -23q0 -7 -2 -13t-4 -11z" />
    <glyph glyph-name="oslash" unicode="&#xf8;" horiz-adv-x="521" 
d="M81 451q-14 -17 -25.5 -44.5t-16.5 -62.5v1l-19 -88q-2 -10 -3.5 -20t-1.5 -21q0 -35 18 -78.5t55 -82.5q-14 -24 -29.5 -41.5t-15.5 -34.5q0 -15 9 -24.5t20 -14.5t20.5 -6.5t10.5 -1.5q13 0 21 0.5t13.5 4t10.5 10.5t14 21q0 4 -2 10l18 23q38 -13 82 -13q21 0 50 11
t55.5 24t44.5 23.5l18 10.5h-1q35 13 46.5 51t19.5 93v-1q1 4 1 7q0 4 1 8l6 41q2 9 3 18t1 20v10q-2 23 -9.5 37t-17 23.5t-20.5 17.5t-21 19q17 31 28 64.5t18 66.5l-15 5h1q-4 2 -9 2q-6 0 -18.5 -5.5t-26 -13t-26.5 -16.5t-21 -16q-17 11 -37 17.5t-38 10t-32 4.5t-20 1
q-95 0 -159 -70h-1zM139 167q-6 25 -6 85q0 59 15.5 101.5t52.5 49.5q27 6 40.5 14t27.5 8q32 0 69 -28q-26 -21 -53.5 -54t-54 -69t-49 -70.5t-38.5 -57.5q-1 4 -2 9t-2 12zM386 259q0 -81 -34.5 -127.5t-91.5 -46.5q-9 0 -16 3l29 37q5 47 28.5 98.5t73.5 105.5
q0 -9 4 -10q3 -14 5 -28.5t2 -31.5z" />
    <glyph glyph-name="ampersand" unicode="&#x26;" horiz-adv-x="674" 
d="M580 496q-31 43 -65 43q-14 0 -23 -6t-13.5 -15t-6 -19.5t-1.5 -19.5q0 -5 0.5 -7.5t0.5 -4.5v-42h-3v-27q-4 0 -7.5 0.5t-7.5 2.5q-8 -6 -17 -6q-19 -7 -28.5 -11t-13.5 -6l1 1q-5 -2 -9 -4t-19 -5v-13l-9 -8q-6 -6 -10 -11.5t-4 -11.5v-3q1 -2 1 -6q0 -3 1 -5l-1 1
q5 -32 11.5 -46.5t29.5 -14.5q9 0 15 1.5t17 6.5h-2h1q0 1 1 1l1 -1l9 4q2 0 4.5 1t4.5 1h2q4 -3 16 -3q8 13 15 20q0 -31 1 -54t1 -37v-48t-1 -25.5t-2 -11.5t-3 -6v1l-5 -9q-22 0 -38.5 0.5t-29 3.5t-22 10.5t-17.5 21.5q-8 17 -21.5 21.5t-25.5 4.5q-4 0 -7.5 -0.5
t-6.5 -0.5h-8q-13 15 -26 37.5t-26.5 49t-26 55.5t-24.5 57q5 -8 15 -12.5t21 -7.5t21 -4t15 -1q11 3 17 11t10.5 17t8 16.5t9.5 10.5q37 30 66.5 48t50 33t31.5 32t11 46h-19q0 1 1 8.5t3.5 16t4.5 9.5q-11 16 -24.5 40.5t-38.5 62.5h1q-9 16 -25.5 30t-34 24t-34.5 16
t-27 6q-14 0 -21.5 -4t-12 -11t-8 -15t-9.5 -15q-33 -20 -67 -42t-62 -46.5t-46 -51.5t-18 -56q0 -22 3 -40.5t11 -40.5t22.5 -49t37.5 -66q3 -11 14 -36t25.5 -55.5t31 -63.5t32 -61.5t27.5 -47.5t17 -23l-4 6q2 -3 16 -6.5t34 -6.5t43 -5.5t43 -4.5t34.5 -3t17.5 -1
q8 0 13 2t8 2q6 0 13 -3.5t34 -5.5v2q6 -2 10 -2.5t8 -1.5h11v12l4 -9q-2 -2 -3 -2q20 0 36 9.5t16 29.5v7q0 14 -1.5 23t-4 15t-6.5 10.5t-9 9.5l-3 2q1 15 2 23.5t1.5 15.5l1 14t0.5 18v33q0 22 3.5 45.5t11.5 43t21 33.5t33 18h-1q14 1 24.5 3t17 6t10 11t3.5 20
q0 6 -2 14t-5 18h1q-9 30 -30 30q-3 0 -13 -5v1l-58 -17zM138 487l13 4q-18 22 -20 29l17 17t28 27t28.5 26t18.5 16h-1q19 9 40 9h8q18 -14 29 -21.5t18 -14t11 -15t7 -24.5q-8 -17 -24 -32.5t-37 -28t-45.5 -21.5t-49.5 -13q-7 -8 -11.5 -17.5t-4.5 -19.5q-9 25 -15 45
t-10 34zM567 352l9 -10l-9 -9l-9 10q0 7 1 8t8 1zM480 429h5q1 0 1 -1l-9 -2zM454 567q-3 9 -5 9q2 -2 2.5 -4.5t2.5 -4.5zM456 561v5h-1q0 1 -1 1q1 -2 1 -3t1 -3zM456 559q0 -2 1 -3q0 1 -0.5 1.5t-0.5 1.5z" />
    <glyph glyph-name="dollar" unicode="$" horiz-adv-x="324" 
d="M200 786l-8 1h-11l3 -1q-4 1 -7.5 2t-6.5 1q-12 0 -27 -1.5t-29 -5t-23.5 -9.5t-9.5 -16q0 -5 0.5 -7.5t1.5 -6.5l2 -10q0 -1 -2 -7q0 1 1 -12.5t2.5 -30t3.5 -31t3 -16.5v-26q0 -23 9 -37q-28 -25 -51 -50t-23 -42q0 -14 16.5 -31.5t41.5 -36.5t53 -37.5t52 -34.5l6 -26
q-11 -19 -21.5 -32t-23.5 -23t-29.5 -19t-37.5 -19q-39 -19 -56.5 -45.5t-19.5 -48.5v-19q13 -4 22 -5t17 -1q14 0 31.5 7.5t34.5 16.5q1 -20 3.5 -41t6 -39t8.5 -30.5t11 -13.5q4 0 10 1t9 1q3 -3 8 -4t8 -1h3q2 0 7 2l-1 -1q3 1 8.5 2t10.5 1h13q14 0 21.5 10.5t7.5 27.5
l1 25q-3 3 -7 18t-7.5 33t-5.5 34t-2 19l4 19q2 9 4 18.5t2 13.5v1q10 13 24.5 23.5t28 22t23 25t11.5 31.5q-30 46 -70.5 88t-85.5 72l4 4q10 11 23 24t25.5 26t23 24.5t17.5 20.5h7q60 15 69 101q-23 4 -41.5 8t-35.5 10q-8 -7 -25.5 -21.5t-29.5 -25.5q-1 17 -2.5 36.5
t-1.5 32.5q0 14 2.5 22.5t2.5 14.5v6q0 4 -2 11l-4 2v5z" />
    <glyph glyph-name="ae" unicode="&#xe6;" horiz-adv-x="817" 
d="M256 374q-14 -5 -25 -16.5t-19 -26.5q-16 -29 -43.5 -45.5t-54 -32t-46 -36t-19.5 -56.5h19v-20h3v10q1 -5 9.5 -28.5t20.5 -51t27 -52t30 -30.5h-1q3 -2 7.5 -4.5t5.5 -2.5l-2 2q19 -12 38 -23t37 -11q4 0 8.5 1t9.5 2v1q7 3 11 7.5t6.5 9.5t5 10.5t7.5 11.5
q35 20 72.5 43.5t67.5 49.5q8 -18 21 -42.5t27.5 -47.5t29 -39t26.5 -16q8 0 17 2t14 2q2 0 8 -5.5t14 -12t18.5 -12.5t21.5 -7h8q47 0 80 45q-8 19 -18 27.5t-23 12t-27.5 6t-30.5 10.5t-33 25t-34 49q-3 3 -3 8q14 -5 29.5 -7t21.5 -2q11 3 17 11t10.5 17t8 16.5t9.5 10.5
q36 29 65.5 47t50.5 33t32.5 32t11.5 46h-20q0 1 1 8t3.5 16t5.5 9q-11 16 -24.5 39.5t-38.5 63.5h1q-10 16 -26 30t-34 24t-35 16t-27 6q-18 0 -25.5 -7t-12 -16t-10 -18.5t-20.5 -14.5v1q-31 -20 -64 -40.5t-57 -42.5q-2 5 -4.5 8.5t-4.5 8.5l-1 -1q-9 25 -17 41.5
t-15.5 28t-13.5 19t-11 13.5l-10 10q-5 11 -16.5 15t-28.5 4h-11q-3 0 -5.5 -0.5t-5.5 -0.5h-18q-16 0 -22.5 2.5t-11 6t-9.5 6t-17 2.5t-23.5 -2t-22.5 -2h-11q-44 0 -77 -42q2 -41 17.5 -53t41.5 -12q24 0 48.5 4.5t45.5 4.5q30 0 49 -13t39 -52q-13 5 -27.5 7t-21.5 2z
M480 240l14 4q-18 21 -21 29l17 17t28 27t28.5 26t19.5 16h-1q10 4 19 6t21 2h8q18 -14 29.5 -21.5t18 -13.5t10.5 -14.5t7 -24.5q-17 -35 -61 -60.5t-96 -33.5q-6 -6 -9.5 -14t-5.5 -16q-9 18 -15 34.5t-11 36.5zM360 241q2 -5 4 -12t5 -14l-11 -3q9 -11 13 -18t6 -12
q-14 -17 -31.5 -33.5t-35.5 -29.5t-35 -21.5t-29 -8.5q-4 0 -9.5 2.5t-11 6t-10.5 7t-7 4.5h1q-20 11 -26.5 20.5t-11.5 32.5q9 16 24.5 32t36.5 29t46 22t52 13q5 5 8.5 11.5t5.5 13.5q5 -11 8.5 -21t7.5 -21zM68 141h-16q3 -15 6 -27t5 -12t3.5 9t1.5 30zM798 320
q-2 8 -5 8q2 -2 2.5 -4t2.5 -4zM800 314v5h-1q0 1 -1 1q1 -2 1 -3t1 -3zM52 143q0 4 -1 7q0 -5 1 -7zM800 312q0 -2 1 -3q0 1 -0.5 1.5t-0.5 1.5z" />
    <glyph glyph-name="at" unicode="@" horiz-adv-x="779" 
d="M290 154q18 -12 37 -22t36 -10q13 0 20 4.5t11 10.5t7.5 13.5t10.5 13.5l18 12q32 20 63.5 41t57 44t41 48t15.5 53q0 21 -3 40t-11 41t-22.5 50t-38.5 67l-1 -1q-9 25 -17 41.5t-15.5 28t-13.5 19.5t-11 14l-10 10q-5 11 -17 15t-28 4h-11q-3 0 -6 -0.5t-5 -0.5h-18
q-16 0 -22.5 2.5t-11 6t-9.5 6t-17 2.5t-24 -2t-22 -2h-11q-14 0 -38 -12t-52 -34t-56.5 -54t-51.5 -71.5t-37.5 -86t-14.5 -98.5q0 -159 103 -273q138 -97 266 -97q66 0 129.5 26t116 70.5t90.5 103.5t53 124q-1 5 -2.5 64t-15.5 167h-10q-6 0 -15 7t-19 15.5t-21 15.5
t-20 7q-11 0 -16 -8t-5 -28q0 -15 4.5 -26.5t4.5 -19.5q0 -12 -9 -30q16 -28 22 -45.5t6 -28.5q0 -12 -5 -20t-11 -15.5t-11 -16.5t-5 -23q0 -79 -92 -165q-2 -2 -6.5 -6t-10.5 -8t-11.5 -7.5t-8.5 -3.5t-6 1h-9q-30 0 -32 -26q-23 -11 -42.5 -15t-53.5 -4q-25 0 -49.5 2.5
t-47.5 10t-43 22t-36 37.5l-9 9q-7 6 -14.5 17.5t-15.5 37.5q-21 8 -28.5 21.5t-7.5 27.5t3.5 25.5t3.5 30.5q0 13 -1.5 31t-3.5 35.5t-3.5 32.5t-1.5 23q1 4 7.5 21.5t20.5 40t37 46.5t58 42h5q24 0 48 4.5t46 4.5q31 0 49.5 -12.5t38.5 -52.5q-12 4 -27 6.5t-22 2.5
q-14 -5 -25 -16.5t-19 -26.5q-16 -28 -43.5 -49.5t-54.5 -43.5t-46.5 -48t-19.5 -62zM492 388l-13 -3q9 -11 13 -18t6 -12q-14 -17 -31.5 -33.5t-35.5 -30t-34.5 -21.5t-29.5 -8q-4 0 -10.5 3t-12.5 6.5t-10.5 7l-4.5 3.5h1q-20 11 -26.5 20.5t-11.5 32.5q9 17 24.5 32.5
t36.5 28.5t46 22t52 13q12 13 15 30q9 -19 15 -36t11 -37z" />
    <glyph glyph-name="florin" horiz-adv-x="472" 
d="M141 -160q-6 0 -11.5 6t-13 14t-18 16.5t-24.5 13.5l-65 21q-11 -6 -19.5 -17.5t-12 -19.5t-4.5 -9q-3 -6 -3 -11q12 -36 28 -51.5t35 -25t42 -20t49 -35.5l39 10q8 -4 11 -4q7 0 13 8l1 -1q1 -2 10 -4.5t16 -16.5h16q29 0 42 13.5t14 45.5q3 17 5.5 25.5t4.5 13t3 7
t1 8.5q0 7 -3.5 14t-8 15.5t-8 20t-3.5 27.5q0 29 3 67v5q0 9 -2.5 17.5t-5.5 16.5l2 2q0 30 -3.5 50.5t-3.5 40.5v7q0 8 8 21t8 33v31q0 2 0.5 5t0.5 6q0 8 -5.5 15.5t-13.5 9.5q0 7 6.5 12.5t6.5 19.5q0 5 -2.5 17t-2.5 17q0 1 1 7t2.5 14.5t1.5 11.5l3 86q5 0 12 -0.5
t15 -0.5h13q16 -1 30 -1h26h18q48 1 73 14q-5 17 -5 20q0 1 1 7.5t1.5 14t1.5 13.5t1 7q0 29 -26 30q-2 0 -12 -2t-21 -4t-21 -4t-13 -2q-5 0 -11.5 6t-20.5 6q-2 0 -18 -3.5t-29 -3.5v89q0 63 6.5 100t23.5 55.5t46.5 24t75.5 5.5h27q30 39 30 68q0 52 -66 69h-7
q-12 0 -35 -7.5t-46.5 -17t-41.5 -17l-18 -7.5l2 -1q-5 2 -8.5 2.5l-3.5 0.5h-1q-21 0 -38.5 -23t-30.5 -54t-21 -62t-10 -47l-5 -174q-5 2 -11 2h-9q-14 0 -21 -6t-11 -6q-3 0 -12.5 2t-21 4t-21 4t-12.5 2q-25 -1 -25 -30q0 -2 1 -8.5t1.5 -14t1.5 -13.5l1 -6q0 -3 -5 -20
q25 -13 72 -14h18h25q14 0 30 1q3 -15 3 -32q0 -14 -4 -34t-4 -41v-59t-1 -56q0 -22 2 -29t2 -13q0 -14 -4 -30t-4 -30l-3 -5v-21q0 -9 1 -15q-1 -8 -1.5 -17t-1.5 -15l4 -6q1 -44 2.5 -81t1.5 -68q-21 -22 -28 -22z" />
    <glyph glyph-name="florin" unicode="&#x192;" horiz-adv-x="472" 
d="M141 -160q-6 0 -11.5 6t-13 14t-18 16.5t-24.5 13.5l-65 21q-11 -6 -19.5 -17.5t-12 -19.5t-4.5 -9q-3 -6 -3 -11q12 -36 28 -51.5t35 -25t42 -20t49 -35.5l39 10q8 -4 11 -4q7 0 13 8l1 -1q1 -2 10 -4.5t16 -16.5h16q29 0 42 13.5t14 45.5q3 17 5.5 25.5t4.5 13t3 7
t1 8.5q0 7 -3.5 14t-8 15.5t-8 20t-3.5 27.5q0 29 3 67v5q0 9 -2.5 17.5t-5.5 16.5l2 2q0 30 -3.5 50.5t-3.5 40.5v7q0 8 8 21t8 33v31q0 2 0.5 5t0.5 6q0 8 -5.5 15.5t-13.5 9.5q0 7 6.5 12.5t6.5 19.5q0 5 -2.5 17t-2.5 17q0 1 1 7t2.5 14.5t1.5 11.5l3 86q5 0 12 -0.5
t15 -0.5h13q16 -1 30 -1h26h18q48 1 73 14q-5 17 -5 20q0 1 1 7.5t1.5 14t1.5 13.5t1 7q0 29 -26 30q-2 0 -12 -2t-21 -4t-21 -4t-13 -2q-5 0 -11.5 6t-20.5 6q-2 0 -18 -3.5t-29 -3.5v89q0 63 6.5 100t23.5 55.5t46.5 24t75.5 5.5h27q30 39 30 68q0 52 -66 69h-7
q-12 0 -35 -7.5t-46.5 -17t-41.5 -17l-18 -7.5l2 -1q-5 2 -8.5 2.5l-3.5 0.5h-1q-21 0 -38.5 -23t-30.5 -54t-21 -62t-10 -47l-5 -174q-5 2 -11 2h-9q-14 0 -21 -6t-11 -6q-3 0 -12.5 2t-21 4t-21 4t-12.5 2q-25 -1 -25 -30q0 -2 1 -8.5t1.5 -14t1.5 -13.5l1 -6q0 -3 -5 -20
q25 -13 72 -14h18h25q14 0 30 1q3 -15 3 -32q0 -14 -4 -34t-4 -41v-59t-1 -56q0 -22 2 -29t2 -13q0 -14 -4 -30t-4 -30l-3 -5v-21q0 -9 1 -15q-1 -8 -1.5 -17t-1.5 -15l4 -6q1 -44 2.5 -81t1.5 -68q-21 -22 -28 -22z" />
    <glyph glyph-name="fi" unicode="&#xfb01;" horiz-adv-x="438" 
d="M412 470q0 26 -8.5 38.5t-34.5 12.5q-5 0 -15 -1t-15 -1q-10 0 -17 4q-19 -2 -27 -7q-5 0 -14.5 -2.5t-20 -4.5t-19 -4t-11.5 -2q-4 0 -10.5 6.5t-20.5 6.5q-6 0 -18 -2t-26 -4q8 46 12 77t17 49.5t40 26.5t82 8h26q30 39 30 68q0 51 -65 68h-7q-11 0 -33.5 -7.5t-46 -17
t-41 -17l-17.5 -7.5l2 -1q-5 2 -8 3t-4 1h-1q-20 0 -37.5 -23t-30 -53.5t-20.5 -61.5t-10 -47q0 -33 -6 -65t-6 -65q0 -11 4 -27t4 -40q0 -14 -4.5 -33.5t-4.5 -41.5v-59q0 -29 -1 -55q0 -22 2.5 -28.5t2.5 -13.5q0 -12 -2 -31.5t-4 -39.5t-4 -36.5t-3 -23.5l9 -13
q20 -2 36 -2h28q14 0 22 1t15 9q0 32 -3 51t-3 39v7q0 9 8 21.5t8 32.5v30q0 2 0.5 5t0.5 6q0 9 -6 16t-13 9q0 6 6 12t6 20q0 5 -2.5 17t-2.5 17q0 -1 1 3t1.5 9.5t1.5 11t1 8.5l4 86q5 0 11.5 -0.5t14.5 -0.5h13q15 -1 29 -1h25h18q12 0 23.5 1t20.5 3q9 -56 13 -122
t4 -142l1 -4v-43t1 -36q-1 -5 -1 -7v-9q0 -8 1.5 -18t5.5 -19t11.5 -15t19.5 -6q29 0 56 43l-1 149q0 46 -3 89.5t-8 91.5l-3 26q21 27 21 77z" />
    <glyph glyph-name="fl" unicode="&#xfb02;" horiz-adv-x="509" 
d="M471 398q0 48 -1.5 94t-6.5 91l4 170q-22 39 -49 42q-14 7 -30 12l-65 5q-11 1 -27 -1t-30.5 -4.5t-25.5 -4.5l-11 -2l-46 -13q-2 -1 -8.5 -5t-13.5 -8.5t-13 -8.5l-6 -4h-1q-20 0 -37.5 -23t-30 -53.5t-20.5 -61.5t-10 -47q0 -33 -6 -65t-6 -65q0 -11 4 -27t4 -40
q0 -14 -4.5 -33.5t-4.5 -41.5v-59q0 -29 -1 -55q0 -22 2.5 -28.5t2.5 -13.5q0 -12 -2 -31.5t-4 -39.5t-4 -36.5t-3 -23.5l9 -13q20 -2 36 -2h28q14 0 22 1t15 9q0 32 -3 51t-3 39v7q0 9 8 21.5t8 32.5v30q0 2 0.5 5t0.5 6q0 9 -6 16t-13 9q0 6 6 12t6 20q0 5 -2.5 17
t-2.5 17q0 -1 1 3t1.5 9.5t1.5 11t1 8.5l4 86q5 0 11.5 -0.5t14.5 -0.5h13q15 -1 29 -1h25h18q23 1 41.5 4.5t29.5 8.5q-5 17 -5 20q0 1 0.5 7t1.5 13t2 13.5t1 8.5q0 29 -24 30q-4 0 -13.5 -2t-20.5 -4.5t-20.5 -4.5t-12.5 -2q-4 0 -10.5 6.5t-20.5 6.5q-6 0 -18 -2t-26 -4
q6 75 21 121.5t41.5 68t65 20.5t91.5 -20q0 -34 0.5 -83.5t1.5 -98.5t1.5 -89.5t0.5 -55.5q0 -100 -7 -182.5t-21 -148.5q-3 -5 -3 -12q0 -32 41 -34q7 4 17 4q5 0 15 -1t15 -1q24 0 33.5 12t9.5 40q0 47 -20 78q6 75 9.5 142.5t3.5 127.5z" />
    <glyph glyph-name="Agrave" unicode="&#xc0;" horiz-adv-x="636" 
d="M16 8q13 -8 25 -8q29 0 49 26q18 54 47.5 137.5t68.5 190.5q7 5 18 5t31 -5.5t43 -5.5q4 0 11 0.5t15 0.5t16 0.5t14 0.5q11 0 20.5 -2t18.5 -5q18 -39 43 -96t57 -128q-1 -6 -1 -11v-9q0 -13 4 -28.5t12 -31.5v1l8 -23q17 -3 32.5 -4t29.5 -1q11 0 27.5 1t37.5 5v22
q0 23 -13.5 56.5t-29 64.5t-29 54t-13.5 26q-2 8 -5 14.5t-5 12.5q-21 58 -36 100.5t-28.5 77t-27 64t-30.5 62.5q-15 34 -33 79t-35 93v2q0 5 -6 14.5t-14 19.5t-17 17t-15 7t-12 -1t-12 -6h1q-16 -10 -25 -26t-13.5 -33t-6 -32.5t-1.5 -24.5q0 -2 2 -2q-9 -17 -21 -45
t-25.5 -58.5t-28 -59t-28.5 -46.5q-13 -48 -34 -108.5t-53 -137.5q-10 -24 -20 -48.5t-18 -47t-13 -42t-5 -31.5q0 -29 23 -47zM282 1054q-37 -8 -55 -21t-18 -36q0 -10 5 -18.5t13 -15t17.5 -10t17.5 -3.5h7l96 -47l35 47zM329 519q5 -19 10.5 -35t11.5 -29
q-9 -1 -23.5 -2.5t-29.5 -3.5t-28.5 -3.5t-20.5 -1.5h-3q14 38 30.5 75.5t35.5 61.5q3 -11 7.5 -26.5t9.5 -35.5z" />
    <glyph glyph-name="Aacute" unicode="&#xc1;" horiz-adv-x="636" 
d="M16 8q13 -8 25 -8q29 0 49 26q18 54 47.5 137.5t68.5 190.5q7 5 18 5t31 -5.5t43 -5.5q4 0 11 0.5t15 0.5t16 0.5t14 0.5q11 0 20.5 -2t18.5 -5q18 -39 43 -96t57 -128q-1 -6 -1 -11v-9q0 -13 4 -28.5t12 -31.5v1l8 -23q17 -3 32.5 -4t29.5 -1q11 0 27.5 1t37.5 5v22
q0 23 -13.5 56.5t-29 64.5t-29 54t-13.5 26q-2 8 -5 14.5t-5 12.5q-21 58 -36 100.5t-28.5 77t-27 64t-30.5 62.5q-15 34 -33 79t-35 93v2q0 5 -6 14.5t-14 19.5t-17 17t-15 7t-12 -1t-12 -6h1q-16 -10 -25 -26t-13.5 -33t-6 -32.5t-1.5 -24.5q0 -2 2 -2q-9 -17 -21 -45
t-25.5 -58.5t-28 -59t-28.5 -46.5q-13 -48 -34 -108.5t-53 -137.5q-10 -24 -20 -48.5t-18 -47t-13 -42t-5 -31.5q0 -29 23 -47zM215 933q0 -25 37 -37q84 22 151 79q-8 22 -19.5 43t-38.5 37q-3 -4 -7.5 -8t-6.5 -7l-10 -7q-5 -2 -10 -7l-17 -9h5q-8 -8 -11 -12l-1 1
q-5 -8 -22 -23t-41 -32l-1 -1q-5 -3 -10 -6.5t-10 -6.5h12v-4zM329 519q5 -19 10.5 -35t11.5 -29q-9 -1 -23.5 -2.5t-29.5 -3.5t-28.5 -3.5t-20.5 -1.5h-3q14 38 30.5 75.5t35.5 61.5q3 -11 7.5 -26.5t9.5 -35.5z" />
    <glyph glyph-name="Acircumflex" unicode="&#xc2;" horiz-adv-x="636" 
d="M16 8q13 -8 25 -8q29 0 49 26q18 54 47.5 137.5t68.5 190.5q7 5 18 5t31 -5.5t43 -5.5q4 0 11 0.5t15 0.5t16 0.5t14 0.5q11 0 20.5 -2t18.5 -5q18 -39 43 -96t57 -128q-1 -6 -1 -11v-9q0 -13 4 -28.5t12 -31.5v1l8 -23q17 -3 32.5 -4t29.5 -1q11 0 27.5 1t37.5 5v22
q0 23 -13.5 56.5t-29 64.5t-29 54t-13.5 26q-2 8 -5 14.5t-5 12.5q-21 58 -36 100.5t-28.5 77t-27 64t-30.5 62.5q-15 34 -33 79t-35 93v2q0 5 -6 14.5t-14 19.5t-17 17t-15 7t-12 -1t-12 -6h1q-16 -10 -25 -26t-13.5 -33t-6 -32.5t-1.5 -24.5q0 -2 2 -2q-9 -17 -21 -45
t-25.5 -58.5t-28 -59t-28.5 -46.5q-13 -48 -34 -108.5t-53 -137.5q-10 -24 -20 -48.5t-18 -47t-13 -42t-5 -31.5q0 -29 23 -47zM476 932l-155 116q-19 -5 -46 -18.5t-54.5 -31.5t-51.5 -38.5t-37 -38.5q7 -48 51 -48q13 0 29.5 8t34 19.5t33 24t25.5 21.5v-1q3 2 6 5
q26 -15 51.5 -38.5t51.5 -52.5q61 12 67 67zM329 519q5 -19 10.5 -35t11.5 -29q-9 -1 -23.5 -2.5t-29.5 -3.5t-28.5 -3.5t-20.5 -1.5h-3q14 38 30.5 75.5t35.5 61.5q3 -11 7.5 -26.5t9.5 -35.5z" />
    <glyph glyph-name="Atilde" unicode="&#xc3;" horiz-adv-x="636" 
d="M16 8q13 -8 25 -8q29 0 49 26q18 54 47.5 137.5t68.5 190.5q7 5 18 5t31 -5.5t43 -5.5q4 0 11 0.5t15 0.5t16 0.5t14 0.5q11 0 20.5 -2t18.5 -5q18 -39 43 -96t57 -128q-1 -6 -1 -11v-9q0 -13 4 -28.5t12 -31.5v1l8 -23q17 -3 32.5 -4t29.5 -1q11 0 27.5 1t37.5 5v22
q0 23 -13.5 56.5t-29 64.5t-29 54t-13.5 26q-2 8 -5 14.5t-5 12.5q-21 58 -36 100.5t-28.5 77t-27 64t-30.5 62.5q-15 34 -33 79t-35 93v2q0 5 -6 14.5t-14 19.5t-17 17t-15 7t-12 -1t-12 -6h1q-16 -10 -25 -26t-13.5 -33t-6 -32.5t-1.5 -24.5q0 -2 2 -2q-9 -17 -21 -45
t-25.5 -58.5t-28 -59t-28.5 -46.5q-13 -48 -34 -108.5t-53 -137.5q-10 -24 -20 -48.5t-18 -47t-13 -42t-5 -31.5q0 -29 23 -47zM300 962q3 -2 6.5 -2.5t5.5 -2.5v2q14 -8 26.5 -10.5t20.5 -2.5q23 0 54.5 10.5t58.5 44.5q-6 48 -64 53q-9 -14 -27 -23.5t-33 -9.5
q-13 0 -27 9q-23 11 -43 16t-36 5q-48 0 -98 -71v-6q0 -33 32 -33q19 0 43 14l10 24q2 0 6 1t9 3q22 -8 38 -14.5t18 -6.5zM329 519q5 -19 10.5 -35t11.5 -29q-9 -1 -23.5 -2.5t-29.5 -3.5t-28.5 -3.5t-20.5 -1.5h-3q14 38 30.5 75.5t35.5 61.5q3 -11 7.5 -26.5t9.5 -35.5z
" />
    <glyph glyph-name="Adieresis" unicode="&#xc4;" horiz-adv-x="636" 
d="M16 8q13 -8 25 -8q29 0 49 26q18 54 47.5 137.5t68.5 190.5q7 5 18 5t31 -5.5t43 -5.5q4 0 11 0.5t15 0.5t16 0.5t14 0.5q11 0 20.5 -2t18.5 -5q18 -39 43 -96t57 -128q-1 -6 -1 -11v-9q0 -13 4 -28.5t12 -31.5v1l8 -23q17 -3 32.5 -4t29.5 -1q11 0 27.5 1t37.5 5v22
q0 23 -13.5 56.5t-29 64.5t-29 54t-13.5 26q-2 8 -5 14.5t-5 12.5q-21 58 -36 100.5t-28.5 77t-27 64t-30.5 62.5q-15 34 -33 79t-35 93v2q0 5 -6 14.5t-14 19.5t-17 17t-15 7t-12 -1t-12 -6h1q-16 -10 -25 -26t-13.5 -33t-6 -32.5t-1.5 -24.5q0 -2 2 -2q-9 -17 -21 -45
t-25.5 -58.5t-28 -59t-28.5 -46.5q-13 -48 -34 -108.5t-53 -137.5q-10 -24 -20 -48.5t-18 -47t-13 -42t-5 -31.5q0 -29 23 -47zM459 1052h-3l3 -1q-4 1 -7 1.5t-7 0.5q-13 0 -25 -4h-12q-10 0 -20 -0.5t-18.5 -3t-13.5 -7t-5 -12.5q0 -2 0.5 -9t2.5 -10l-2 -2v-33
q0 -14 3 -25t15 -16l-2 -2h7q3 -1 10 -1q4 0 8 2h2q3 1 6 1l2 -0.5t4 -1.5h-1q2 -2 4.5 -2.5l2.5 -0.5h11q11 0 28 2.5t29 15.5h1q2 2 4 6.5t3 6.5l-2 3q0 10 -7 16t-7 11q0 1 1.5 6.5t3.5 12.5t3.5 14t1.5 10t-1 7.5t-3 9.5l-10 2q-5 2 -6.5 2.5t-3.5 0.5zM127 1046
q-4 -10 -4 -15q0 -4 1.5 -10.5t3.5 -13.5t3.5 -13t1.5 -7q0 -6 -7 -11.5t-7 -14.5l-2 -4l3 -5q2 -6 5 -8l1 1q8 -7 18.5 -11t21 -5.5t18 -2t9.5 -0.5t7.5 1.5t5.5 3.5h1q2 0 8.5 -1t15.5 -1q15 4 19.5 17.5t4.5 25.5v34l-5 3q6 10 6 18q0 9 -13.5 14.5t-31 8t-32.5 3
t-18 0.5q-7 0 -11 -1h-2q-5 0 -7 -1h-5zM329 519q5 -19 10.5 -35t11.5 -29q-9 -1 -23.5 -2.5t-29.5 -3.5t-28.5 -3.5t-20.5 -1.5h-3q14 38 30.5 75.5t35.5 61.5q3 -11 7.5 -26.5t9.5 -35.5zM354 1007v2v-1q1 0 1 -1h-1z" />
    <glyph glyph-name="Aring" unicode="&#xc5;" horiz-adv-x="636" 
d="M16 8q13 -8 25 -8q29 0 49 26q18 54 47.5 137.5t68.5 190.5q7 5 18 5t31 -5.5t43 -5.5q4 0 11 0.5t15 0.5t16 0.5t14 0.5q11 0 20.5 -2t18.5 -5q18 -39 43 -96t57 -128q-1 -6 -1 -11v-9q0 -13 4 -28.5t12 -31.5v1l8 -23q17 -3 32.5 -4t29.5 -1q11 0 27.5 1t37.5 5v22
q0 23 -13.5 56.5t-29 64.5t-29 54t-13.5 26q-2 8 -5 14.5t-5 12.5q-21 58 -36 100.5t-28.5 77t-27 64t-30.5 62.5q-15 34 -33 79t-35 93v2q0 5 -6 14.5t-14 19.5t-17 17t-15 7t-12 -1t-12 -6h1q-16 -10 -25 -26t-13.5 -33t-6 -32.5t-1.5 -24.5q0 -2 2 -2q-9 -17 -21 -45
t-25.5 -58.5t-28 -59t-28.5 -46.5q-13 -48 -34 -108.5t-53 -137.5q-10 -24 -20 -48.5t-18 -47t-13 -42t-5 -31.5q0 -29 23 -47zM299 888q62 0 108 86q5 0 5 9l-1 5q0 13 -9 24t-23 19.5t-33 14t-38 7.5h-4q-13 0 -43 -15v1q-18 -10 -24 -10q-1 0 -1.5 0.5t-1.5 0.5h-6
q-30 0 -30 -42q0 -25 8.5 -44t22.5 -31.5t32 -18.5t38 -6zM329 519q5 -19 10.5 -35t11.5 -29q-9 -1 -23.5 -2.5t-29.5 -3.5t-28.5 -3.5t-20.5 -1.5h-3q14 38 30.5 75.5t35.5 61.5q3 -11 7.5 -26.5t9.5 -35.5zM304 946q-11 0 -19 6t-8 17q0 10 8.5 17t20.5 7q22 0 22 -8
q0 -2 -3 -8l-6.5 -13t-7.5 -12.5t-7 -5.5z" />
    <glyph glyph-name="Ograve" unicode="&#xd2;" horiz-adv-x="796" 
d="M460 7q55 12 106.5 42t94 73t73 95t43.5 108q-1 5 -4 43t-6 112q-4 91 -32.5 151.5t-75.5 97.5t-110 52.5t-136 15.5q-51 0 -100 -11.5t-95 -33.5q-7 -15 -27 -29.5t-42 -28t-41 -26t-23 -24.5q-32 -70 -49 -138t-17 -134q0 -161 104 -274q136 -98 266 -98q39 0 71 7z
M654 493q-1 -17 -8.5 -39t-15.5 -41q20 -36 20 -73q0 -40 -24 -81.5t-69 -83.5q-5 -5 -16 -5q-4 0 -7 1h-9q-30 0 -32 -26q-25 -11 -54.5 -17t-64.5 -6q-21 0 -45.5 2t-48.5 8t-45 17t-34 29v-1q-5 9 -12 28.5t-16 42.5t-19.5 45t-21.5 36q12 27 12 64q0 9 -2 27.5t-2 40.5
v19q17 43 41 82t54 77q10 1 27.5 5t36 8.5t35 8.5t24.5 4q10 0 25 -4q31 14 68 14q28 0 52.5 -5.5t46.5 -17.5t44 -32.5t46 -50.5q11 -16 16.5 -27.5t5.5 -21.5q0 -7 -2 -12.5t-4 -10.5zM376 1054q-37 -8 -55 -21t-18 -36q0 -10 5 -18.5t13 -15t17.5 -10t17.5 -3.5h7l96 -47
l35 47z" />
    <glyph glyph-name="Oacute" unicode="&#xd3;" horiz-adv-x="796" 
d="M460 6q55 12 106.5 42t94 73t73 95t43.5 108q-1 5 -4 43t-6 112q-4 91 -32.5 151.5t-75.5 97.5t-110 52.5t-136 15.5q-51 0 -100 -11.5t-95 -33.5q-7 -15 -27 -29.5t-42 -28t-41 -26t-23 -24.5q-32 -70 -49 -138t-17 -134q0 -161 104 -274q136 -98 266 -98q39 0 71 7z
M654 492q-1 -17 -8.5 -39t-15.5 -41q20 -36 20 -73q0 -40 -24 -81.5t-69 -83.5q-5 -5 -16 -5q-4 0 -7 1h-9q-30 0 -32 -26q-25 -11 -54.5 -17t-64.5 -6q-21 0 -45.5 2t-48.5 8t-45 17t-34 29v-1q-5 9 -12 28.5t-16 42.5t-19.5 45t-21.5 36q12 27 12 64q0 9 -2 27.5t-2 40.5
v19q17 43 41 82t54 77q10 1 27.5 5t36 8.5t35 8.5t24.5 4q10 0 25 -4q31 14 68 14q28 0 52.5 -5.5t46.5 -17.5t44 -32.5t46 -50.5q11 -16 16.5 -27.5t5.5 -21.5q0 -7 -2 -12.5t-4 -10.5zM309 933q0 -25 37 -37q84 22 151 79q-8 22 -19.5 43t-38.5 37q-3 -4 -7.5 -8t-6.5 -7
l-10 -7q-5 -2 -10 -7l-17 -9h5q-8 -8 -11 -12l-1 1q-5 -8 -22 -23t-41 -32l-1 -1q-5 -3 -10 -6.5t-10 -6.5h12v-4z" />
    <glyph glyph-name="Ocircumflex" unicode="&#xd4;" horiz-adv-x="796" 
d="M460 9q55 12 106.5 42t94 73t73 95t43.5 108q-1 5 -4 43t-6 112q-4 91 -32.5 151.5t-75.5 97.5t-110 52.5t-136 15.5q-51 0 -100 -11.5t-95 -33.5q-7 -15 -27 -29.5t-42 -28t-41 -26t-23 -24.5q-32 -70 -49 -138t-17 -134q0 -161 104 -274q136 -98 266 -98q39 0 71 7z
M654 495q-1 -17 -8.5 -39t-15.5 -41q20 -36 20 -73q0 -40 -24 -81.5t-69 -83.5q-5 -5 -16 -5q-4 0 -7 1h-9q-30 0 -32 -26q-25 -11 -54.5 -17t-64.5 -6q-21 0 -45.5 2t-48.5 8t-45 17t-34 29v-1q-5 9 -12 28.5t-16 42.5t-19.5 45t-21.5 36q12 27 12 64q0 9 -2 27.5t-2 40.5
v19q17 43 41 82t54 77q10 1 27.5 5t36 8.5t35 8.5t24.5 4q10 0 25 -4q31 14 68 14q28 0 52.5 -5.5t46.5 -17.5t44 -32.5t46 -50.5q11 -16 16.5 -27.5t5.5 -21.5q0 -7 -2 -12.5t-4 -10.5zM567 932l-155 116q-19 -5 -46 -18.5t-54.5 -31.5t-51.5 -38.5t-37 -38.5q7 -48 51 -48
q13 0 29.5 8t34 19.5t33 24t25.5 21.5v-1q3 2 6 5q26 -15 51.5 -38.5t51.5 -52.5q61 12 67 67z" />
    <glyph glyph-name="Otilde" unicode="&#xd5;" horiz-adv-x="796" 
d="M460 10q55 12 106.5 42t94 73t73 95t43.5 108q-1 5 -4 43t-6 112q-4 91 -32.5 151.5t-75.5 97.5t-110 52.5t-136 15.5q-51 0 -100 -11.5t-95 -33.5q-7 -15 -27 -29.5t-42 -28t-41 -26t-23 -24.5q-32 -70 -49 -138t-17 -134q0 -161 104 -274q136 -98 266 -98q39 0 71 7z
M654 496q-1 -17 -8.5 -39t-15.5 -41q20 -36 20 -73q0 -40 -24 -81.5t-69 -83.5q-5 -5 -16 -5q-4 0 -7 1h-9q-30 0 -32 -26q-25 -11 -54.5 -17t-64.5 -6q-21 0 -45.5 2t-48.5 8t-45 17t-34 29v-1q-5 9 -12 28.5t-16 42.5t-19.5 45t-21.5 36q12 27 12 64q0 9 -2 27.5t-2 40.5
v19q17 43 41 82t54 77q10 1 27.5 5t36 8.5t35 8.5t24.5 4q10 0 25 -4q31 14 68 14q28 0 52.5 -5.5t46.5 -17.5t44 -32.5t46 -50.5q11 -16 16.5 -27.5t5.5 -21.5q0 -7 -2 -12.5t-4 -10.5zM389 962q3 -2 6.5 -2.5t5.5 -2.5v2q14 -8 26.5 -10.5t20.5 -2.5q23 0 54.5 10.5
t58.5 44.5q-6 48 -64 53q-9 -14 -27 -23.5t-33 -9.5q-13 0 -27 9q-23 11 -43 16t-36 5q-48 0 -98 -71v-6q0 -33 32 -33q19 0 43 14l10 24q2 0 6 1t9 3q22 -8 38 -14.5t18 -6.5z" />
    <glyph glyph-name="Odieresis" unicode="&#xd6;" horiz-adv-x="796" 
d="M460 6q55 12 106.5 42t94 73t73 95t43.5 108q-1 5 -4 43t-6 112q-4 91 -32.5 151.5t-75.5 97.5t-110 52.5t-136 15.5q-51 0 -100 -11.5t-95 -33.5q-7 -15 -27 -29.5t-42 -28t-41 -26t-23 -24.5q-32 -70 -49 -138t-17 -134q0 -161 104 -274q136 -98 266 -98q39 0 71 7z
M654 492q-1 -17 -8.5 -39t-15.5 -41q20 -36 20 -73q0 -40 -24 -81.5t-69 -83.5q-5 -5 -16 -5q-4 0 -7 1h-9q-30 0 -32 -26q-25 -11 -54.5 -17t-64.5 -6q-21 0 -45.5 2t-48.5 8t-45 17t-34 29v-1q-5 9 -12 28.5t-16 42.5t-19.5 45t-21.5 36q12 27 12 64q0 9 -2 27.5t-2 40.5
v19q17 43 41 82t54 77q10 1 27.5 5t36 8.5t35 8.5t24.5 4q10 0 25 -4q31 14 68 14q28 0 52.5 -5.5t46.5 -17.5t44 -32.5t46 -50.5q11 -16 16.5 -27.5t5.5 -21.5q0 -7 -2 -12.5t-4 -10.5zM549 1052h-3l3 -1q-4 1 -7 1.5t-7 0.5q-13 0 -25 -4h-12q-10 0 -20 -0.5t-18.5 -3
t-13.5 -7t-5 -12.5q0 -2 0.5 -9t2.5 -10l-2 -2v-33q0 -14 3 -25t15 -16l-2 -2h7q3 -1 10 -1q4 0 8 2h2q3 1 6 1l2 -0.5t4 -1.5h-1q2 -2 4.5 -2.5l2.5 -0.5h11q11 0 28 2.5t29 15.5h1q2 2 4 6.5t3 6.5l-2 3q0 10 -7 16t-7 11q0 1 1.5 6.5t3.5 12.5t3.5 14t1.5 10t-1 7.5
t-3 9.5l-10 2q-5 2 -6.5 2.5t-3.5 0.5zM217 1046q-4 -10 -4 -15q0 -4 1.5 -10.5t3.5 -13.5t3.5 -13t1.5 -7q0 -6 -7 -11.5t-7 -14.5l-2 -4l3 -5q2 -6 5 -8l1 1q8 -7 18.5 -11t21 -5.5t18 -2t9.5 -0.5t7.5 1.5t5.5 3.5h1q2 0 8.5 -1t15.5 -1q15 4 19.5 17.5t4.5 25.5v34l-5 3
q6 10 6 18q0 9 -13.5 14.5t-31 8t-32.5 3t-18 0.5q-7 0 -11 -1h-2q-5 0 -7 -1h-5zM444 1007v2v-1q1 0 1 -1h-1z" />
    <glyph glyph-name="Egrave" unicode="&#xc8;" horiz-adv-x="556" 
d="M476 -3q66 27 68 74q-98 63 -152.5 109t-85.5 70q-23 15 -45.5 31t-39.5 33q27 4 69.5 9.5t86.5 12.5t83 16.5t57 22.5v41q0 31 -26 42l-4 1q-9 -1 -32 -3t-50.5 -5.5t-56 -8.5t-48.5 -11q-22 -8 -41 -11t-36 -3q3 2 8 7l36 25q3 11 17.5 28t31.5 34l22 22
q14 18 28.5 31.5t29.5 26.5h-1q18 16 40 35.5t42.5 40t37 41t24.5 38.5q-1 4 -3 10h3q-2 2 -5 6t-6 6l-9 9q-6 7 -13.5 13t-17.5 6q-7 0 -22 -7v1q-38 -20 -74 -48t-72 -65l-123 -125q-21 -11 -40.5 -26t-38.5 -33q-7 -30 -39 -62l-67 -68q88 -97 186.5 -178t207.5 -149
q15 -30 64 -39h6zM251 1054q-37 -8 -55 -21t-18 -36q0 -10 5 -18.5t13 -15t17.5 -10t17.5 -3.5h7l96 -47l35 47z" />
    <glyph glyph-name="Eacute" unicode="&#xc9;" horiz-adv-x="556" 
d="M476 0q66 27 68 74q-98 63 -152.5 109t-85.5 70q-23 15 -45.5 31t-39.5 33q27 4 69.5 9.5t86.5 12.5t83 16.5t57 22.5v41q0 31 -26 42l-4 1q-9 -1 -32 -3t-50.5 -5.5t-56 -8.5t-48.5 -11q-22 -8 -41 -11t-36 -3q3 2 8 7l36 25q3 11 17.5 28t31.5 34l22 22
q14 18 28.5 31.5t29.5 26.5h-1q18 16 40 35.5t42.5 40t37 41t24.5 38.5q-1 4 -3 10h3q-2 2 -5 6t-6 6l-9 9q-6 7 -13.5 13t-17.5 6q-7 0 -22 -7v1q-38 -20 -74 -48t-72 -65l-123 -125q-21 -11 -40.5 -26t-38.5 -33q-7 -30 -39 -62l-67 -68q88 -97 186.5 -178t207.5 -149
q15 -30 64 -39h6zM175 933q0 -25 37 -37q84 22 151 79q-8 22 -19.5 43t-38.5 37q-3 -4 -7.5 -8t-6.5 -7l-10 -7q-5 -2 -10 -7l-17 -9h5q-8 -8 -11 -12l-1 1q-5 -8 -22 -23t-41 -32l-1 -1q-5 -3 -10 -6.5t-10 -6.5h12v-4z" />
    <glyph glyph-name="Ecircumflex" unicode="&#xca;" horiz-adv-x="556" 
d="M476 3q66 27 68 74q-98 63 -152.5 109t-85.5 70q-23 15 -45.5 31t-39.5 33q27 4 69.5 9.5t86.5 12.5t83 16.5t57 22.5v41q0 31 -26 42l-4 1q-9 -1 -32 -3t-50.5 -5.5t-56 -8.5t-48.5 -11q-22 -8 -41 -11t-36 -3q3 2 8 7l36 25q3 11 17.5 28t31.5 34l22 22
q14 18 28.5 31.5t29.5 26.5h-1q18 16 40 35.5t42.5 40t37 41t24.5 38.5q-1 4 -3 10h3q-2 2 -5 6t-6 6l-9 9q-6 7 -13.5 13t-17.5 6q-7 0 -22 -7v1q-38 -20 -74 -48t-72 -65l-123 -125q-21 -11 -40.5 -26t-38.5 -33q-7 -30 -39 -62l-67 -68q88 -97 186.5 -178t207.5 -149
q15 -30 64 -39h6zM446 932l-155 116q-19 -5 -46 -18.5t-54.5 -31.5t-51.5 -38.5t-37 -38.5q7 -48 51 -48q13 0 29.5 8t34 19.5t33 24t25.5 21.5v-1q3 2 6 5q26 -15 51.5 -38.5t51.5 -52.5q61 12 67 67z" />
    <glyph glyph-name="Edieresis" unicode="&#xcb;" horiz-adv-x="556" 
d="M476 3q66 27 68 74q-98 63 -152.5 109t-85.5 70q-23 15 -45.5 31t-39.5 33q27 4 69.5 9.5t86.5 12.5t83 16.5t57 22.5v41q0 31 -26 42l-4 1q-9 -1 -32 -3t-50.5 -5.5t-56 -8.5t-48.5 -11q-22 -8 -41 -11t-36 -3q3 2 8 7l36 25q3 11 17.5 28t31.5 34l22 22
q14 18 28.5 31.5t29.5 26.5h-1q18 16 40 35.5t42.5 40t37 41t24.5 38.5q-1 4 -3 10h3q-2 2 -5 6t-6 6l-9 9q-6 7 -13.5 13t-17.5 6q-7 0 -22 -7v1q-38 -20 -74 -48t-72 -65l-123 -125q-21 -11 -40.5 -26t-38.5 -33q-7 -30 -39 -62l-67 -68q88 -97 186.5 -178t207.5 -149
q15 -30 64 -39h6zM430 1052h-3l3 -1q-4 1 -7 1.5t-7 0.5q-13 0 -25 -4h-12q-10 0 -20 -0.5t-18.5 -3t-13.5 -7t-5 -12.5q0 -2 0.5 -9t2.5 -10l-2 -2v-33q0 -14 3 -25t15 -16l-2 -2h7q3 -1 10 -1q4 0 8 2h2q3 1 6 1l2 -0.5t4 -1.5h-1q2 -2 4.5 -2.5l2.5 -0.5h11q11 0 28 2.5
t29 15.5h1q2 2 4 6.5t3 6.5l-2 3q0 10 -7 16t-7 11q0 1 1.5 6.5t3.5 12.5t3.5 14t1.5 10t-1 7.5t-3 9.5l-10 2q-5 2 -6.5 2.5t-3.5 0.5zM98 1046q-4 -10 -4 -15q0 -4 1.5 -10.5t3.5 -13.5t3.5 -13t1.5 -7q0 -6 -7 -11.5t-7 -14.5l-2 -4l3 -5q2 -6 5 -8l1 1q8 -7 18.5 -11
t21 -5.5t18 -2t9.5 -0.5t7.5 1.5t5.5 3.5h1q2 0 8.5 -1t15.5 -1q15 4 19.5 17.5t4.5 25.5v34l-5 3q6 10 6 18q0 9 -13.5 14.5t-31 8t-32.5 3t-18 0.5q-7 0 -11 -1h-2q-5 0 -7 -1h-5zM325 1007v2v-1q1 0 1 -1h-1z" />
    <glyph glyph-name="Igrave" unicode="&#xcc;" horiz-adv-x="168" 
d="M12 393q0 -48 2 -94t6 -91l-4 -170q13 -22 27 -32.5t28 -10.5q13 0 20.5 6.5t11.5 15.5t5.5 19.5t1.5 18.5q0 5 -0.5 8t-0.5 5v40q0 33 -0.5 79.5t-1.5 92.5t-1.5 84t-0.5 54q0 196 27 328q2 4 2.5 7t0.5 8q0 32 -41 34q-7 -4 -17 -4q-4 0 -14.5 1t-14.5 1q-24 0 -34 -12
t-10 -40q0 -48 20 -79q-12 -150 -12 -269zM62 1054q-37 -8 -55 -21t-18 -36q0 -10 5 -18.5t13 -15t17.5 -10t17.5 -3.5h7l96 -47l35 47z" />
    <glyph glyph-name="Iacute" unicode="&#xcd;" horiz-adv-x="168" 
d="M57 396q0 -48 2 -94t6 -91l-4 -170q13 -22 27 -32.5t28 -10.5q13 0 20.5 6.5t11.5 15.5t5.5 19.5t1.5 18.5q0 5 -0.5 8t-0.5 5v40q0 33 -0.5 79.5t-1.5 92.5t-1.5 84t-0.5 54q0 196 27 328q2 4 2.5 7t0.5 8q0 32 -41 34q-7 -4 -17 -4q-4 0 -14.5 1t-14.5 1q-24 0 -34 -12
t-10 -40q0 -48 20 -79q-12 -150 -12 -269zM-4 933q0 -25 37 -37q84 22 151 79q-8 22 -19.5 43t-38.5 37q-3 -4 -7.5 -8t-6.5 -7l-10 -7q-5 -2 -10 -7l-17 -9h5q-8 -8 -11 -12l-1 1q-5 -8 -22 -23t-41 -32l-1 -1q-5 -3 -10 -6.5t-10 -6.5h12v-4z" />
    <glyph glyph-name="Icircumflex" unicode="&#xce;" horiz-adv-x="168" 
d="M32 395q0 -48 2 -94t6 -91l-4 -170q13 -22 27 -32.5t28 -10.5q13 0 20.5 6.5t11.5 15.5t5.5 19.5t1.5 18.5q0 5 -0.5 8t-0.5 5v40q0 33 -0.5 79.5t-1.5 92.5t-1.5 84t-0.5 54q0 196 27 328q2 4 2.5 7t0.5 8q0 32 -41 34q-7 -4 -17 -4q-4 0 -14.5 1t-14.5 1q-24 0 -34 -12
t-10 -40q0 -48 20 -79q-12 -150 -12 -269zM254 932l-155 116q-19 -5 -46 -18.5t-54.5 -31.5t-51.5 -38.5t-37 -38.5q7 -48 51 -48q13 0 29.5 8t34 19.5t33 24t25.5 21.5v-1q3 2 6 5q26 -15 51.5 -38.5t51.5 -52.5q61 12 67 67z" />
    <glyph glyph-name="Idieresis" unicode="&#xcf;" horiz-adv-x="168" 
d="M26 398q0 -48 2 -94t6 -91l-4 -170q13 -22 27 -32.5t28 -10.5q13 0 20.5 6.5t11.5 15.5t5.5 19.5t1.5 18.5q0 5 -0.5 8t-0.5 5v40q0 33 -0.5 79.5t-1.5 92.5t-1.5 84t-0.5 54q0 196 27 328q2 4 2.5 7t0.5 8q0 32 -41 34q-7 -4 -17 -4q-4 0 -14.5 1t-14.5 1q-24 0 -34 -12
t-10 -40q0 -48 20 -79q-12 -150 -12 -269zM240 1052h-3l3 -1q-4 1 -7 1.5t-7 0.5q-13 0 -25 -4h-12q-10 0 -20 -0.5t-18.5 -3t-13.5 -7t-5 -12.5q0 -2 0.5 -9t2.5 -10l-2 -2v-33q0 -14 3 -25t15 -16l-2 -2h7q3 -1 10 -1q4 0 8 2h2q3 1 6 1l2 -0.5t4 -1.5h-1q2 -2 4.5 -2.5
l2.5 -0.5h11q11 0 28 2.5t29 15.5h1q2 2 4 6.5t3 6.5l-2 3q0 10 -7 16t-7 11q0 1 1.5 6.5t3.5 12.5t3.5 14t1.5 10t-1 7.5t-3 9.5l-10 2q-5 2 -6.5 2.5t-3.5 0.5zM-92 1046q-4 -10 -4 -15q0 -4 1.5 -10.5t3.5 -13.5t3.5 -13t1.5 -7q0 -6 -7 -11.5t-7 -14.5l-2 -4l3 -5
q2 -6 5 -8l1 1q8 -7 18.5 -11t21 -5.5t18 -2t9.5 -0.5t7.5 1.5t5.5 3.5h1q2 0 8.5 -1t15.5 -1q15 4 19.5 17.5t4.5 25.5v34l-5 3q6 10 6 18q0 9 -13.5 14.5t-31 8t-32.5 3t-18 0.5q-7 0 -11 -1h-2q-5 0 -7 -1h-5zM135 1007v2v-1q1 0 1 -1h-1z" />
    <glyph glyph-name="Ugrave" unicode="&#xd9;" horiz-adv-x="593" 
d="M542 380v26q0 2 -0.5 5t-0.5 6q0 28 7 77t15 103t15 104.5t7 81.5q-26 9 -52 13t-52 4h-13q-22 -3 -35 -6t-19.5 -7t-8.5 -10t-2 -15q0 -8 1 -12q-2 -5 -2 -15q0 -8 6 -20t20 -27q8 -11 8 -17q0 -18 -2 -38.5t-2 -40.5q0 -15 1 -46t1.5 -65t1.5 -65t1 -46q0 -29 -2 -61.5
t-5 -67.5q-27 -48 -42.5 -71.5t-30 -33.5t-34 -12t-56.5 -6q-39 2 -65.5 13t-38.5 31q-6 29 -11.5 73.5t-10 95t-7.5 102.5t-6 96.5t-5 76.5t-3 43v6q0 6 2 18t4.5 25t4.5 25.5t2 18.5q0 9 -2 18t-8 23l-96 -22q-10 -73 -14.5 -126t-4.5 -88v-12q19 -48 19 -122
q0 -9 -0.5 -29t-1.5 -42.5t-1.5 -44.5t-0.5 -35q0 -55 12 -103t41 -83t78 -55.5t123 -20.5q37 0 65.5 3.5t51 14.5t40.5 30.5t35 51.5q9 18 16 27t12.5 19t10 26t10.5 48q3 19 7.5 40t8.5 42.5t6.5 41.5t1.5 36zM277 1054q-37 -8 -55 -21t-18 -36q0 -10 5 -18.5t13 -15
t17.5 -10t17.5 -3.5h7l96 -47l35 47z" />
    <glyph glyph-name="Uacute" unicode="&#xda;" horiz-adv-x="593" 
d="M542 380v26q0 2 -0.5 5t-0.5 6q0 28 7 77t15 103t15 104.5t7 81.5q-26 9 -52 13t-52 4h-13q-22 -3 -35 -6t-19.5 -7t-8.5 -10t-2 -15q0 -8 1 -12q-2 -5 -2 -15q0 -8 6 -20t20 -27q8 -11 8 -17q0 -18 -2 -38.5t-2 -40.5q0 -15 1 -46t1.5 -65t1.5 -65t1 -46q0 -29 -2 -61.5
t-5 -67.5q-27 -48 -42.5 -71.5t-30 -33.5t-34 -12t-56.5 -6q-39 2 -65.5 13t-38.5 31q-6 29 -11.5 73.5t-10 95t-7.5 102.5t-6 96.5t-5 76.5t-3 43v6q0 6 2 18t4.5 25t4.5 25.5t2 18.5q0 9 -2 18t-8 23l-96 -22q-10 -73 -14.5 -126t-4.5 -88v-12q19 -48 19 -122
q0 -9 -0.5 -29t-1.5 -42.5t-1.5 -44.5t-0.5 -35q0 -55 12 -103t41 -83t78 -55.5t123 -20.5q37 0 65.5 3.5t51 14.5t40.5 30.5t35 51.5q9 18 16 27t12.5 19t10 26t10.5 48q3 19 7.5 40t8.5 42.5t6.5 41.5t1.5 36zM210 933q0 -25 37 -37q84 22 151 79q-8 22 -19.5 43t-38.5 37
q-3 -4 -7.5 -8t-6.5 -7l-10 -7q-5 -2 -10 -7l-17 -9h5q-8 -8 -11 -12l-1 1q-5 -8 -22 -23t-41 -32l-1 -1q-5 -3 -10 -6.5t-10 -6.5h12v-4z" />
    <glyph glyph-name="Ucircumflex" unicode="&#xdb;" horiz-adv-x="593" 
d="M542 380v26q0 2 -0.5 5t-0.5 6q0 28 7 77t15 103t15 104.5t7 81.5q-26 9 -52 13t-52 4h-13q-22 -3 -35 -6t-19.5 -7t-8.5 -10t-2 -15q0 -8 1 -12q-2 -5 -2 -15q0 -8 6 -20t20 -27q8 -11 8 -17q0 -18 -2 -38.5t-2 -40.5q0 -15 1 -46t1.5 -65t1.5 -65t1 -46q0 -29 -2 -61.5
t-5 -67.5q-27 -48 -42.5 -71.5t-30 -33.5t-34 -12t-56.5 -6q-39 2 -65.5 13t-38.5 31q-6 29 -11.5 73.5t-10 95t-7.5 102.5t-6 96.5t-5 76.5t-3 43v6q0 6 2 18t4.5 25t4.5 25.5t2 18.5q0 9 -2 18t-8 23l-96 -22q-10 -73 -14.5 -126t-4.5 -88v-12q19 -48 19 -122
q0 -9 -0.5 -29t-1.5 -42.5t-1.5 -44.5t-0.5 -35q0 -55 12 -103t41 -83t78 -55.5t123 -20.5q37 0 65.5 3.5t51 14.5t40.5 30.5t35 51.5q9 18 16 27t12.5 19t10 26t10.5 48q3 19 7.5 40t8.5 42.5t6.5 41.5t1.5 36zM471 932l-155 116q-19 -5 -46 -18.5t-54.5 -31.5t-51.5 -38.5
t-37 -38.5q7 -48 51 -48q13 0 29.5 8t34 19.5t33 24t25.5 21.5v-1q3 2 6 5q26 -15 51.5 -38.5t51.5 -52.5q61 12 67 67z" />
    <glyph glyph-name="Udieresis" unicode="&#xdc;" horiz-adv-x="593" 
d="M542 380v26q0 2 -0.5 5t-0.5 6q0 28 7 77t15 103t15 104.5t7 81.5q-26 9 -52 13t-52 4h-13q-22 -3 -35 -6t-19.5 -7t-8.5 -10t-2 -15q0 -8 1 -12q-2 -5 -2 -15q0 -8 6 -20t20 -27q8 -11 8 -17q0 -18 -2 -38.5t-2 -40.5q0 -15 1 -46t1.5 -65t1.5 -65t1 -46q0 -29 -2 -61.5
t-5 -67.5q-27 -48 -42.5 -71.5t-30 -33.5t-34 -12t-56.5 -6q-39 2 -65.5 13t-38.5 31q-6 29 -11.5 73.5t-10 95t-7.5 102.5t-6 96.5t-5 76.5t-3 43v6q0 6 2 18t4.5 25t4.5 25.5t2 18.5q0 9 -2 18t-8 23l-96 -22q-10 -73 -14.5 -126t-4.5 -88v-12q19 -48 19 -122
q0 -9 -0.5 -29t-1.5 -42.5t-1.5 -44.5t-0.5 -35q0 -55 12 -103t41 -83t78 -55.5t123 -20.5q37 0 65.5 3.5t51 14.5t40.5 30.5t35 51.5q9 18 16 27t12.5 19t10 26t10.5 48q3 19 7.5 40t8.5 42.5t6.5 41.5t1.5 36zM454 1052h-3l3 -1q-4 1 -7 1.5t-7 0.5q-13 0 -25 -4h-12
q-10 0 -20 -0.5t-18.5 -3t-13.5 -7t-5 -12.5q0 -2 0.5 -9t2.5 -10l-2 -2v-33q0 -14 3 -25t15 -16l-2 -2h7q3 -1 10 -1q4 0 8 2h2q3 1 6 1l2 -0.5t4 -1.5h-1q2 -2 4.5 -2.5l2.5 -0.5h11q11 0 28 2.5t29 15.5h1q2 2 4 6.5t3 6.5l-2 3q0 10 -7 16t-7 11q0 1 1.5 6.5t3.5 12.5
t3.5 14t1.5 10t-1 7.5t-3 9.5l-10 2q-5 2 -6.5 2.5t-3.5 0.5zM122 1046q-4 -10 -4 -15q0 -4 1.5 -10.5t3.5 -13.5t3.5 -13t1.5 -7q0 -6 -7 -11.5t-7 -14.5l-2 -4l3 -5q2 -6 5 -8l1 1q8 -7 18.5 -11t21 -5.5t18 -2t9.5 -0.5t7.5 1.5t5.5 3.5h1q2 0 8.5 -1t15.5 -1
q15 4 19.5 17.5t4.5 25.5v34l-5 3q6 10 6 18q0 9 -13.5 14.5t-31 8t-32.5 3t-18 0.5q-7 0 -11 -1h-2q-5 0 -7 -1h-5zM349 1007v2v-1q1 0 1 -1h-1z" />
    <glyph glyph-name="Ydieresis" horiz-adv-x="571" 
d="M244 26q0 -29 10.5 -40.5t39.5 -11.5h7q6 0 11 1h16q7 0 11.5 -0.5t9.5 -2.5q47 2 47 34q0 4 -0.5 5l-1.5 3v3q-33 132 -33 334l-1 4v32t-1 31q22 36 42.5 77t39.5 78.5t36 66.5t31 40h4q17 0 26.5 5.5t14.5 16t7 25.5t4 35q0 5 1 14t2 14q-31 3 -49.5 4t-20.5 1
q-42 0 -65 -17l-69 -142v1q-17 -32 -32.5 -61t-29.5 -53q-3 7 -3.5 9.5t-2.5 7.5t-7 15.5t-18 31.5q-12 21 -29 49.5t-37.5 57.5t-43 56t-45.5 45q-11 -3 -17 -3q-13 0 -31 2.5t-22 2.5q-8 0 -16 -2t-22 -8v-12q0 -5 2 -9v1q1 -4 1 -7q0 -4 -2 -14.5t-5 -27.5
q25 -13 42.5 -24t33.5 -28t33.5 -43t44.5 -69q13 -22 27.5 -38.5t27.5 -30t23.5 -25t15.5 -23.5l2 -141q1 -47 5 -94t9 -98q-23 -28 -23 -78zM444 1052h-3l3 -1q-4 1 -7 1.5t-7 0.5q-13 0 -25 -4h-12q-10 0 -20 -0.5t-18.5 -3t-13.5 -7t-5 -12.5q0 -2 0.5 -9t2.5 -10l-2 -2
v-33q0 -14 3 -25t15 -16l-2 -2h7q3 -1 10 -1q4 0 8 2h2q3 1 6 1l2 -0.5t4 -1.5h-1q2 -2 4.5 -2.5l2.5 -0.5h11q11 0 28 2.5t29 15.5h1q2 2 4 6.5t3 6.5l-2 3q0 10 -7 16t-7 11q0 1 1.5 6.5t3.5 12.5t3.5 14t1.5 10t-1 7.5t-3 9.5l-10 2q-5 2 -6.5 2.5t-3.5 0.5zM112 1046
q-4 -10 -4 -15q0 -4 1.5 -10.5t3.5 -13.5t3.5 -13t1.5 -7q0 -6 -7 -11.5t-7 -14.5l-2 -4l3 -5q2 -6 5 -8l1 1q8 -7 18.5 -11t21 -5.5t18 -2t9.5 -0.5t7.5 1.5t5.5 3.5h1q2 0 8.5 -1t15.5 -1q15 4 19.5 17.5t4.5 25.5v34l-5 3q6 10 6 18q0 9 -13.5 14.5t-31 8t-32.5 3
t-18 0.5q-7 0 -11 -1h-2q-5 0 -7 -1h-5zM339 1007v2v-1q1 0 1 -1h-1z" />
    <glyph glyph-name="Ydieresis" unicode="&#x178;" horiz-adv-x="571" 
d="M244 26q0 -29 10.5 -40.5t39.5 -11.5h7q6 0 11 1h16q7 0 11.5 -0.5t9.5 -2.5q47 2 47 34q0 4 -0.5 5l-1.5 3v3q-33 132 -33 334l-1 4v32t-1 31q22 36 42.5 77t39.5 78.5t36 66.5t31 40h4q17 0 26.5 5.5t14.5 16t7 25.5t4 35q0 5 1 14t2 14q-31 3 -49.5 4t-20.5 1
q-42 0 -65 -17l-69 -142v1q-17 -32 -32.5 -61t-29.5 -53q-3 7 -3.5 9.5t-2.5 7.5t-7 15.5t-18 31.5q-12 21 -29 49.5t-37.5 57.5t-43 56t-45.5 45q-11 -3 -17 -3q-13 0 -31 2.5t-22 2.5q-8 0 -16 -2t-22 -8v-12q0 -5 2 -9v1q1 -4 1 -7q0 -4 -2 -14.5t-5 -27.5
q25 -13 42.5 -24t33.5 -28t33.5 -43t44.5 -69q13 -22 27.5 -38.5t27.5 -30t23.5 -25t15.5 -23.5l2 -141q1 -47 5 -94t9 -98q-23 -28 -23 -78zM444 1052h-3l3 -1q-4 1 -7 1.5t-7 0.5q-13 0 -25 -4h-12q-10 0 -20 -0.5t-18.5 -3t-13.5 -7t-5 -12.5q0 -2 0.5 -9t2.5 -10l-2 -2
v-33q0 -14 3 -25t15 -16l-2 -2h7q3 -1 10 -1q4 0 8 2h2q3 1 6 1l2 -0.5t4 -1.5h-1q2 -2 4.5 -2.5l2.5 -0.5h11q11 0 28 2.5t29 15.5h1q2 2 4 6.5t3 6.5l-2 3q0 10 -7 16t-7 11q0 1 1.5 6.5t3.5 12.5t3.5 14t1.5 10t-1 7.5t-3 9.5l-10 2q-5 2 -6.5 2.5t-3.5 0.5zM112 1046
q-4 -10 -4 -15q0 -4 1.5 -10.5t3.5 -13.5t3.5 -13t1.5 -7q0 -6 -7 -11.5t-7 -14.5l-2 -4l3 -5q2 -6 5 -8l1 1q8 -7 18.5 -11t21 -5.5t18 -2t9.5 -0.5t7.5 1.5t5.5 3.5h1q2 0 8.5 -1t15.5 -1q15 4 19.5 17.5t4.5 25.5v34l-5 3q6 10 6 18q0 9 -13.5 14.5t-31 8t-32.5 3
t-18 0.5q-7 0 -11 -1h-2q-5 0 -7 -1h-5zM339 1007v2v-1q1 0 1 -1h-1z" />
    <glyph glyph-name="Ntilde" unicode="&#xd1;" horiz-adv-x="569" 
d="M33 321l-1 -140q-9 -17 -12.5 -37.5t-3.5 -43.5q0 -27 9 -97q15 -2 27.5 -3t24.5 -1q37 0 65 14v42q0 9 -3 15t-6.5 12t-6.5 13t-3 16q0 11 6.5 30t14 39t14 38t7.5 28q-27 22 -27 52q0 23 6.5 51t6.5 58v18q0 2 -0.5 4t-0.5 4v10q0 11 -2.5 19.5t-4.5 20.5
q21 -27 49 -64t54.5 -75t48.5 -73.5t31 -57.5q35 -32 56.5 -52.5t33 -36.5t15 -30t3.5 -33q0 -32 21.5 -46t59.5 -14h10q12 0 17 8t7 19.5t1.5 24.5t-0.5 22q0 34 -2 76.5t-5 87t-5 89t-2 82.5q0 52 4 94t13 75q-11 30 -11 74q0 6 1 18t2 27.5t2 33t1 34.5v17l-19 20
q-21 -8 -41.5 -9t-36 -5t-25.5 -14.5t-10 -36.5q0 -28 19 -43l-4 -384l-24 22q-6 26 -26.5 48.5t-44.5 33.5q-13 25 -33.5 51.5t-44.5 56t-50 62.5t-48 70v1q-20 36 -45 72t-71 62q0 -25 1.5 -47t3 -43.5t3 -43.5t1.5 -47q0 -15 -1 -32.5t-3 -35.5q-8 -74 -12 -128.5
t-4 -91.5zM280 962q3 -2 6.5 -2.5t5.5 -2.5v2q14 -8 26.5 -10.5t20.5 -2.5q23 0 54.5 10.5t58.5 44.5q-6 48 -64 53q-9 -14 -27 -23.5t-33 -9.5q-13 0 -27 9q-23 11 -43 16t-36 5q-48 0 -98 -71v-6q0 -33 32 -33q19 0 43 14l10 24q2 0 6 1t9 3q22 -8 38 -14.5t18 -6.5z" />
    <glyph glyph-name="agrave" unicode="&#xe0;" 
d="M273 369q-4 0 -5 1h1q-7 2 -13 2.5t-15 0.5q-14 -5 -24.5 -16.5t-18.5 -25.5q-17 -27 -44.5 -44.5t-53 -34t-44 -37t-18.5 -55.5l14 -36q2 -9 11.5 -28.5t23 -41t29 -40.5t29.5 -25h-1q3 -2 7 -4.5t5 -2.5v1l-1 1q18 -12 37 -23t36 -11q5 0 9 1t9 3v1q9 3 12.5 9t7.5 13
t9.5 14t17.5 13q31 20 62.5 41t56 43.5t40 47.5t15.5 53q0 21 -3 39t-11 40t-22.5 50t-37.5 67l-1 -1q-9 25 -17 41.5t-15 28t-13 19t-11 13.5l-10 10q-4 11 -16 15t-28 4h-10q-3 0 -6 -0.5t-6 -0.5h-17q-16 0 -22.5 2.5t-10.5 6t-9 6t-17 2.5t-24 -2t-21 -2h-10
q-43 0 -76 -42q2 -41 16.5 -53t40.5 -12q25 0 48 4.5t45 4.5q15 0 26.5 -2.5t21.5 -10t18.5 -20t18.5 -31.5q-6 3 -15 4zM354 215l4 -15q4 -6 4.5 -8.5t0 -4t-2 -2.5t-0.5 -3q-14 -18 -31.5 -35t-35 -29.5t-34 -20.5t-27.5 -8q-5 0 -11 3t-12 6.5t-10.5 7l-4.5 3.5h1
q-9 6 -15.5 10.5t-10.5 10t-6.5 13t-4.5 18.5q8 17 24 35t36.5 33.5t45.5 27t51 15.5q5 6 8 6.5t5 8.5q10 -19 15.5 -35.5t10.5 -36.5zM214 801q-37 -8 -55 -21t-18 -36q0 -10 5 -18.5t13 -15t17.5 -10t17.5 -3.5h7l96 -47l35 47z" />
    <glyph glyph-name="aacute" unicode="&#xe1;" 
d="M273 369q-4 0 -5 1h1q-7 2 -13 2.5t-15 0.5q-14 -5 -24.5 -16.5t-18.5 -25.5q-17 -27 -44.5 -44.5t-53 -34t-44 -37t-18.5 -55.5l14 -36q2 -9 11.5 -28.5t23 -41t29 -40.5t29.5 -25h-1q3 -2 7 -4.5t5 -2.5v1l-1 1q18 -12 37 -23t36 -11q5 0 9 1t9 3v1q9 3 12.5 9t7.5 13
t9.5 14t17.5 13q31 20 62.5 41t56 43.5t40 47.5t15.5 53q0 21 -3 39t-11 40t-22.5 50t-37.5 67l-1 -1q-9 25 -17 41.5t-15 28t-13 19t-11 13.5l-10 10q-4 11 -16 15t-28 4h-10q-3 0 -6 -0.5t-6 -0.5h-17q-16 0 -22.5 2.5t-10.5 6t-9 6t-17 2.5t-24 -2t-21 -2h-10
q-43 0 -76 -42q2 -41 16.5 -53t40.5 -12q25 0 48 4.5t45 4.5q15 0 26.5 -2.5t21.5 -10t18.5 -20t18.5 -31.5q-6 3 -15 4zM354 215l4 -15q4 -6 4.5 -8.5t0 -4t-2 -2.5t-0.5 -3q-14 -18 -31.5 -35t-35 -29.5t-34 -20.5t-27.5 -8q-5 0 -11 3t-12 6.5t-10.5 7l-4.5 3.5h1
q-9 6 -15.5 10.5t-10.5 10t-6.5 13t-4.5 18.5q8 17 24 35t36.5 33.5t45.5 27t51 15.5q5 6 8 6.5t5 8.5q10 -19 15.5 -35.5t10.5 -36.5zM149 683q0 -25 37 -37q84 22 151 79q-8 22 -19.5 43t-38.5 37q-3 -4 -7.5 -8t-6.5 -7l-10 -7q-5 -2 -10 -7l-17 -9h5q-8 -8 -11 -12l-1 1
q-5 -8 -22 -23t-41 -32l-1 -1q-5 -3 -10 -6.5t-10 -6.5h12v-4z" />
    <glyph glyph-name="acircumflex" unicode="&#xe2;" 
d="M273 369q-4 0 -5 1h1q-7 2 -13 2.5t-15 0.5q-14 -5 -24.5 -16.5t-18.5 -25.5q-17 -27 -44.5 -44.5t-53 -34t-44 -37t-18.5 -55.5l14 -36q2 -9 11.5 -28.5t23 -41t29 -40.5t29.5 -25h-1q3 -2 7 -4.5t5 -2.5v1l-1 1q18 -12 37 -23t36 -11q5 0 9 1t9 3v1q9 3 12.5 9t7.5 13
t9.5 14t17.5 13q31 20 62.5 41t56 43.5t40 47.5t15.5 53q0 21 -3 39t-11 40t-22.5 50t-37.5 67l-1 -1q-9 25 -17 41.5t-15 28t-13 19t-11 13.5l-10 10q-4 11 -16 15t-28 4h-10q-3 0 -6 -0.5t-6 -0.5h-17q-16 0 -22.5 2.5t-10.5 6t-9 6t-17 2.5t-24 -2t-21 -2h-10
q-43 0 -76 -42q2 -41 16.5 -53t40.5 -12q25 0 48 4.5t45 4.5q15 0 26.5 -2.5t21.5 -10t18.5 -20t18.5 -31.5q-6 3 -15 4zM414 682l-155 116q-19 -5 -46 -18.5t-54.5 -31.5t-51.5 -38.5t-37 -38.5q7 -48 51 -48q13 0 29.5 8t34 19.5t33 24t25.5 21.5v-1q3 2 6 5
q26 -15 51.5 -38.5t51.5 -52.5q61 12 67 67zM354 215l4 -15q4 -6 4.5 -8.5t0 -4t-2 -2.5t-0.5 -3q-14 -18 -31.5 -35t-35 -29.5t-34 -20.5t-27.5 -8q-5 0 -11 3t-12 6.5t-10.5 7l-4.5 3.5h1q-9 6 -15.5 10.5t-10.5 10t-6.5 13t-4.5 18.5q8 17 24 35t36.5 33.5t45.5 27
t51 15.5q5 6 8 6.5t5 8.5q10 -19 15.5 -35.5t10.5 -36.5z" />
    <glyph glyph-name="atilde" unicode="&#xe3;" 
d="M273 367q-4 0 -5 1h1q-7 2 -13 2.5t-15 0.5q-14 -5 -24.5 -16.5t-18.5 -25.5q-17 -27 -44.5 -44.5t-53 -34t-44 -37t-18.5 -55.5l14 -36q2 -9 11.5 -28.5t23 -41t29 -40.5t29.5 -25h-1q3 -2 7 -4.5t5 -2.5v1l-1 1q18 -12 37 -23t36 -11q5 0 9 1t9 3v1q9 3 12.5 9t7.5 13
t9.5 14t17.5 13q31 20 62.5 41t56 43.5t40 47.5t15.5 53q0 21 -3 39t-11 40t-22.5 50t-37.5 67l-1 -1q-9 25 -17 41.5t-15 28t-13 19t-11 13.5l-10 10q-4 11 -16 15t-28 4h-10q-3 0 -6 -0.5t-6 -0.5h-17q-16 0 -22.5 2.5t-10.5 6t-9 6t-17 2.5t-24 -2t-21 -2h-10
q-43 0 -76 -42q2 -41 16.5 -53t40.5 -12q25 0 48 4.5t45 4.5q15 0 26.5 -2.5t21.5 -10t18.5 -20t18.5 -31.5q-6 3 -15 4zM231 712q3 -2 6.5 -2.5t5.5 -2.5v2q14 -8 26.5 -10.5t20.5 -2.5q23 0 54.5 10.5t58.5 44.5q-6 48 -64 53q-9 -14 -27 -23.5t-33 -9.5q-13 0 -27 9
q-23 11 -43 16t-36 5q-48 0 -98 -71v-6q0 -33 32 -33q19 0 43 14l10 24q2 0 6 1t9 3q22 -8 38 -14.5t18 -6.5zM354 213l4 -15q4 -6 4.5 -8.5t0 -4t-2 -2.5t-0.5 -3q-14 -18 -31.5 -35t-35 -29.5t-34 -20.5t-27.5 -8q-5 0 -11 3t-12 6.5t-10.5 7l-4.5 3.5h1q-9 6 -15.5 10.5
t-10.5 10t-6.5 13t-4.5 18.5q8 17 24 35t36.5 33.5t45.5 27t51 15.5q5 6 8 6.5t5 8.5q10 -19 15.5 -35.5t10.5 -36.5z" />
    <glyph glyph-name="adieresis" unicode="&#xe4;" 
d="M273 371q-4 0 -5 1h1q-7 2 -13 2.5t-15 0.5q-14 -5 -24.5 -16.5t-18.5 -25.5q-17 -27 -44.5 -44.5t-53 -34t-44 -37t-18.5 -55.5l14 -36q2 -9 11.5 -28.5t23 -41t29 -40.5t29.5 -25h-1q3 -2 7 -4.5t5 -2.5v1l-1 1q18 -12 37 -23t36 -11q5 0 9 1t9 3v1q9 3 12.5 9t7.5 13
t9.5 14t17.5 13q31 20 62.5 41t56 43.5t40 47.5t15.5 53q0 21 -3 39t-11 40t-22.5 50t-37.5 67l-1 -1q-9 25 -17 41.5t-15 28t-13 19t-11 13.5l-10 10q-4 11 -16 15t-28 4h-10q-3 0 -6 -0.5t-6 -0.5h-17q-16 0 -22.5 2.5t-10.5 6t-9 6t-17 2.5t-24 -2t-21 -2h-10
q-43 0 -76 -42q2 -41 16.5 -53t40.5 -12q25 0 48 4.5t45 4.5q15 0 26.5 -2.5t21.5 -10t18.5 -20t18.5 -31.5q-6 3 -15 4zM354 217l4 -15q4 -6 4.5 -8.5t0 -4t-2 -2.5t-0.5 -3q-14 -18 -31.5 -35t-35 -29.5t-34 -20.5t-27.5 -8q-5 0 -11 3t-12 6.5t-10.5 7l-4.5 3.5h1
q-9 6 -15.5 10.5t-10.5 10t-6.5 13t-4.5 18.5q8 17 24 35t36.5 33.5t45.5 27t51 15.5q5 6 8 6.5t5 8.5q10 -19 15.5 -35.5t10.5 -36.5zM395 802h-3l3 -1q-4 1 -7 1.5t-7 0.5q-13 0 -25 -4h-12q-10 0 -20 -0.5t-18.5 -3t-13.5 -7t-5 -12.5q0 -2 0.5 -9t2.5 -10l-2 -2v-33
q0 -14 3 -25t15 -16l-2 -2h7q3 -1 10 -1q4 0 8 2h2q3 1 6 1l2 -0.5t4 -1.5h-1q2 -2 4.5 -2.5l2.5 -0.5h11q11 0 28 2.5t29 15.5h1q2 2 4 6.5t3 6.5l-2 3q0 10 -7 16t-7 11q0 1 1.5 6.5t3.5 12.5t3.5 14t1.5 10t-1 7.5t-3 9.5l-10 2q-5 2 -6.5 2.5t-3.5 0.5zM63 796
q-4 -10 -4 -15q0 -4 1.5 -10.5t3.5 -13.5t3.5 -13t1.5 -7q0 -6 -7 -11.5t-7 -14.5l-2 -4l3 -5q2 -6 5 -8l1 1q8 -7 18.5 -11t21 -5.5t18 -2t9.5 -0.5t7.5 1.5t5.5 3.5h1q2 0 8.5 -1t15.5 -1q15 4 19.5 17.5t4.5 25.5v34l-5 3q6 10 6 18q0 9 -13.5 14.5t-31 8t-32.5 3
t-18 0.5q-7 0 -11 -1h-2q-5 0 -7 -1h-5zM290 757v2v-1q1 0 1 -1h-1z" />
    <glyph glyph-name="aring" unicode="&#xe5;" 
d="M273 366q-4 0 -5 1h1q-7 2 -13 2.5t-15 0.5q-14 -5 -24.5 -16.5t-18.5 -25.5q-17 -27 -44.5 -44.5t-53 -34t-44 -37t-18.5 -55.5l14 -36q2 -9 11.5 -28.5t23 -41t29 -40.5t29.5 -25h-1q3 -2 7 -4.5t5 -2.5v1l-1 1q18 -12 37 -23t36 -11q5 0 9 1t9 3v1q9 3 12.5 9t7.5 13
t9.5 14t17.5 13q31 20 62.5 41t56 43.5t40 47.5t15.5 53q0 21 -3 39t-11 40t-22.5 50t-37.5 67l-1 -1q-9 25 -17 41.5t-15 28t-13 19t-11 13.5l-10 10q-4 11 -16 15t-28 4h-10q-3 0 -6 -0.5t-6 -0.5h-17q-16 0 -22.5 2.5t-10.5 6t-9 6t-17 2.5t-24 -2t-21 -2h-10
q-43 0 -76 -42q2 -41 16.5 -53t40.5 -12q25 0 48 4.5t45 4.5q15 0 26.5 -2.5t21.5 -10t18.5 -20t18.5 -31.5q-6 3 -15 4zM242 638q62 0 108 86q5 0 5 9l-1 5q0 13 -9 24t-23 19.5t-33 14t-38 7.5h-4q-13 0 -43 -15v1q-18 -10 -24 -10q-1 0 -1.5 0.5t-1.5 0.5h-6
q-30 0 -30 -42q0 -25 8.5 -44t22.5 -31.5t32 -18.5t38 -6zM354 212l4 -15q4 -6 4.5 -8.5t0 -4t-2 -2.5t-0.5 -3q-14 -18 -31.5 -35t-35 -29.5t-34 -20.5t-27.5 -8q-5 0 -11 3t-12 6.5t-10.5 7l-4.5 3.5h1q-9 6 -15.5 10.5t-10.5 10t-6.5 13t-4.5 18.5q8 17 24 35t36.5 33.5
t45.5 27t51 15.5q5 6 8 6.5t5 8.5q10 -19 15.5 -35.5t10.5 -36.5zM247 696q-11 0 -19 6t-8 17q0 10 8.5 17t20.5 7q22 0 22 -8q0 -2 -3 -8l-6.5 -13t-7.5 -12.5t-7 -5.5z" />
    <glyph glyph-name="egrave" unicode="&#xe8;" horiz-adv-x="451" 
d="M210 491q-2 -4 -4 -7.5t-6 -8.5q-32 -20 -66 -42t-61.5 -46t-45 -50.5t-17.5 -55.5q0 -22 3 -40.5t11 -40.5t22 -49t37 -66q6 -25 19.5 -48.5t28.5 -41.5t28 -29t18 -11q10 0 18 2t13 2q2 0 8 -5.5t14 -12t18 -12.5t21 -7h8q22 0 41.5 10.5t36.5 33.5q-7 20 -17 28.5
t-22.5 12t-27 6t-30.5 10.5t-32.5 24.5t-32.5 49.5q-2 2 -4 8q14 -5 29.5 -7t20.5 -2q10 3 16 10.5t10 16t8 16t10 11.5q36 30 65 48t49.5 33t31.5 32t11 45q0 4 -2.5 9.5l-5 11t-3.5 9t1 4.5q-7 14 -22 38.5t-40 63.5h1q-9 16 -25 30t-33.5 24t-34 16t-26.5 6q-8 0 -14 -3
v1q-11 -2 -17 -10t-9 -17zM124 254q1 14 -2 21t-5 12l16.5 16.5t27.5 26.5t28 26t19 16h-1q16 8 39 8h8q17 -12 28 -19.5t18 -14.5t11 -16t7 -24q-17 -35 -47.5 -64.5t-81.5 -37.5q-3 -3 -9.5 -5.5t-13 -4.5t-12 -5t-5.5 -7q-9 18 -15 35t-10 37zM193 801q-37 -8 -55 -21
t-18 -36q0 -10 5 -18.5t13 -15t17.5 -10t17.5 -3.5h7l96 -47l35 47z" />
    <glyph glyph-name="eacute" unicode="&#xe9;" horiz-adv-x="451" 
d="M210 484q-2 -4 -4 -7.5t-6 -8.5q-32 -20 -66 -42t-61.5 -46t-45 -50.5t-17.5 -55.5q0 -22 3 -40.5t11 -40.5t22 -49t37 -66q6 -25 19.5 -48.5t28.5 -41.5t28 -29t18 -11q10 0 18 2t13 2q2 0 8 -5.5t14 -12t18 -12.5t21 -7h8q22 0 41.5 10.5t36.5 33.5q-7 20 -17 28.5
t-22.5 12t-27 6t-30.5 10.5t-32.5 24.5t-32.5 49.5q-2 2 -4 8q14 -5 29.5 -7t20.5 -2q10 3 16 10.5t10 16t8 16t10 11.5q36 30 65 48t49.5 33t31.5 32t11 45q0 4 -2.5 9.5l-5 11t-3.5 9t1 4.5q-7 14 -22 38.5t-40 63.5h1q-9 16 -25 30t-33.5 24t-34 16t-26.5 6q-8 0 -14 -3
v1q-11 -2 -17 -10t-9 -17zM124 247q1 14 -2 21t-5 12l16.5 16.5t27.5 26.5t28 26t19 16h-1q16 8 39 8h8q17 -12 28 -19.5t18 -14.5t11 -16t7 -24q-17 -35 -47.5 -64.5t-81.5 -37.5q-3 -3 -9.5 -5.5t-13 -4.5t-12 -5t-5.5 -7q-9 18 -15 35t-10 37zM126 683q0 -25 37 -37
q84 22 151 79q-8 22 -19.5 43t-38.5 37q-3 -4 -7.5 -8t-6.5 -7l-10 -7q-5 -2 -10 -7l-17 -9h5q-8 -8 -11 -12l-1 1q-5 -8 -22 -23t-41 -32l-1 -1q-5 -3 -10 -6.5t-10 -6.5h12v-4z" />
    <glyph glyph-name="ecircumflex" unicode="&#xea;" horiz-adv-x="451" 
d="M210 487q-2 -4 -4 -7.5t-6 -8.5q-32 -20 -66 -42t-61.5 -46t-45 -50.5t-17.5 -55.5q0 -22 3 -40.5t11 -40.5t22 -49t37 -66q6 -25 19.5 -48.5t28.5 -41.5t28 -29t18 -11q10 0 18 2t13 2q2 0 8 -5.5t14 -12t18 -12.5t21 -7h8q22 0 41.5 10.5t36.5 33.5q-7 20 -17 28.5
t-22.5 12t-27 6t-30.5 10.5t-32.5 24.5t-32.5 49.5q-2 2 -4 8q14 -5 29.5 -7t20.5 -2q10 3 16 10.5t10 16t8 16t10 11.5q36 30 65 48t49.5 33t31.5 32t11 45q0 4 -2.5 9.5l-5 11t-3.5 9t1 4.5q-7 14 -22 38.5t-40 63.5h1q-9 16 -25 30t-33.5 24t-34 16t-26.5 6q-8 0 -14 -3
v1q-11 -2 -17 -10t-9 -17zM383 682l-155 116q-19 -5 -46 -18.5t-54.5 -31.5t-51.5 -38.5t-37 -38.5q7 -48 51 -48q13 0 29.5 8t34 19.5t33 24t25.5 21.5v-1q3 2 6 5q26 -15 51.5 -38.5t51.5 -52.5q61 12 67 67zM124 250q1 14 -2 21t-5 12l16.5 16.5t27.5 26.5t28 26t19 16
h-1q16 8 39 8h8q17 -12 28 -19.5t18 -14.5t11 -16t7 -24q-17 -35 -47.5 -64.5t-81.5 -37.5q-3 -3 -9.5 -5.5t-13 -4.5t-12 -5t-5.5 -7q-9 18 -15 35t-10 37z" />
    <glyph glyph-name="edieresis" unicode="&#xeb;" horiz-adv-x="451" 
d="M210 482q-2 -4 -4 -7.5t-6 -8.5q-32 -20 -66 -42t-61.5 -46t-45 -50.5t-17.5 -55.5q0 -22 3 -40.5t11 -40.5t22 -49t37 -66q6 -25 19.5 -48.5t28.5 -41.5t28 -29t18 -11q10 0 18 2t13 2q2 0 8 -5.5t14 -12t18 -12.5t21 -7h8q22 0 41.5 10.5t36.5 33.5q-7 20 -17 28.5
t-22.5 12t-27 6t-30.5 10.5t-32.5 24.5t-32.5 49.5q-2 2 -4 8q14 -5 29.5 -7t20.5 -2q10 3 16 10.5t10 16t8 16t10 11.5q36 30 65 48t49.5 33t31.5 32t11 45q0 4 -2.5 9.5l-5 11t-3.5 9t1 4.5q-7 14 -22 38.5t-40 63.5h1q-9 16 -25 30t-33.5 24t-34 16t-26.5 6q-8 0 -14 -3
v1q-11 -2 -17 -10t-9 -17zM124 245q1 14 -2 21t-5 12l16.5 16.5t27.5 26.5t28 26t19 16h-1q16 8 39 8h8q17 -12 28 -19.5t18 -14.5t11 -16t7 -24q-17 -35 -47.5 -64.5t-81.5 -37.5q-3 -3 -9.5 -5.5t-13 -4.5t-12 -5t-5.5 -7q-9 18 -15 35t-10 37zM380 802h-3l3 -1
q-4 1 -7 1.5t-7 0.5q-13 0 -25 -4h-12q-10 0 -20 -0.5t-18.5 -3t-13.5 -7t-5 -12.5q0 -2 0.5 -9t2.5 -10l-2 -2v-33q0 -14 3 -25t15 -16l-2 -2h7q3 -1 10 -1q4 0 8 2h2q3 1 6 1l2 -0.5t4 -1.5h-1q2 -2 4.5 -2.5l2.5 -0.5h11q11 0 28 2.5t29 15.5h1q2 2 4 6.5t3 6.5l-2 3
q0 10 -7 16t-7 11q0 1 1.5 6.5t3.5 12.5t3.5 14t1.5 10t-1 7.5t-3 9.5l-10 2q-5 2 -6.5 2.5t-3.5 0.5zM48 796q-4 -10 -4 -15q0 -4 1.5 -10.5t3.5 -13.5t3.5 -13t1.5 -7q0 -6 -7 -11.5t-7 -14.5l-2 -4l3 -5q2 -6 5 -8l1 1q8 -7 18.5 -11t21 -5.5t18 -2t9.5 -0.5t7.5 1.5
t5.5 3.5h1q2 0 8.5 -1t15.5 -1q15 4 19.5 17.5t4.5 25.5v34l-5 3q6 10 6 18q0 9 -13.5 14.5t-31 8t-32.5 3t-18 0.5q-7 0 -11 -1h-2q-5 0 -7 -1h-5zM275 757v2v-1q1 0 1 -1h-1z" />
    <glyph glyph-name="ograve" unicode="&#xf2;" horiz-adv-x="524" 
d="M83 449q-14 -17 -25.5 -44.5t-16.5 -62.5v1l-19 -88q-5 -20 -5 -40q0 -38 18 -78t50.5 -73t77.5 -54.5t99 -21.5q21 0 50 11t55.5 24t44.5 23.5l18 10.5h-1q35 12 46.5 50t19.5 93v-1q1 4 1 7q0 4 1 8l6 41q2 9 3 18t1 20v10q-2 25 -11.5 39.5t-20.5 25t-22.5 19.5
t-18.5 24q-12 36 -39.5 57t-57.5 32t-56.5 14.5t-36.5 3.5q-94 0 -160 -69h-1zM388 258q0 -81 -34.5 -127t-91.5 -46q-8 0 -21 6.5t-27 14.5t-27.5 15t-22.5 9q-8 1 -13.5 7.5t-9 20.5t-5 36.5t-1.5 56.5q0 59 15.5 101t52.5 49q13 3 22.5 6.5t17 7t14.5 6t15 2.5
q24 0 45 -11t36.5 -32t25 -52t9.5 -70zM217 801q-37 -8 -55 -21t-18 -36q0 -10 5 -18.5t13 -15t17.5 -10t17.5 -3.5h7l96 -47l35 47z" />
    <glyph glyph-name="oacute" unicode="&#xf3;" horiz-adv-x="524" 
d="M83 435q-14 -17 -25.5 -44.5t-16.5 -62.5v1l-19 -88q-5 -20 -5 -40q0 -38 18 -78t50.5 -73t77.5 -54.5t99 -21.5q21 0 50 11t55.5 24t44.5 23.5l18 10.5h-1q35 12 46.5 50t19.5 93v-1q1 4 1 7q0 4 1 8l6 41q2 9 3 18t1 20v10q-2 25 -11.5 39.5t-20.5 25t-22.5 19.5
t-18.5 24q-12 36 -39.5 57t-57.5 32t-56.5 14.5t-36.5 3.5q-94 0 -160 -69h-1zM388 244q0 -81 -34.5 -127t-91.5 -46q-8 0 -21 6.5t-27 14.5t-27.5 15t-22.5 9q-8 1 -13.5 7.5t-9 20.5t-5 36.5t-1.5 56.5q0 59 15.5 101t52.5 49q13 3 22.5 6.5t17 7t14.5 6t15 2.5
q24 0 45 -11t36.5 -32t25 -52t9.5 -70zM175 683q0 -25 37 -37q84 22 151 79q-8 22 -19.5 43t-38.5 37q-3 -4 -7.5 -8t-6.5 -7l-10 -7q-5 -2 -10 -7l-17 -9h5q-8 -8 -11 -12l-1 1q-5 -8 -22 -23t-41 -32l-1 -1q-5 -3 -10 -6.5t-10 -6.5h12v-4z" />
    <glyph glyph-name="ocircumflex" unicode="&#xf4;" horiz-adv-x="524" 
d="M83 449q-14 -17 -25.5 -44.5t-16.5 -62.5v1l-19 -88q-5 -20 -5 -40q0 -38 18 -78t50.5 -73t77.5 -54.5t99 -21.5q21 0 50 11t55.5 24t44.5 23.5l18 10.5h-1q35 12 46.5 50t19.5 93v-1q1 4 1 7q0 4 1 8l6 41q2 9 3 18t1 20v10q-2 25 -11.5 39.5t-20.5 25t-22.5 19.5
t-18.5 24q-12 36 -39.5 57t-57.5 32t-56.5 14.5t-36.5 3.5q-94 0 -160 -69h-1zM388 258q0 -81 -34.5 -127t-91.5 -46q-8 0 -21 6.5t-27 14.5t-27.5 15t-22.5 9q-8 1 -13.5 7.5t-9 20.5t-5 36.5t-1.5 56.5q0 59 15.5 101t52.5 49q13 3 22.5 6.5t17 7t14.5 6t15 2.5
q24 0 45 -11t36.5 -32t25 -52t9.5 -70zM424 682l-155 116q-19 -5 -46 -18.5t-54.5 -31.5t-51.5 -38.5t-37 -38.5q7 -48 51 -48q13 0 29.5 8t34 19.5t33 24t25.5 21.5v-1q3 2 6 5q26 -15 51.5 -38.5t51.5 -52.5q61 12 67 67z" />
    <glyph glyph-name="otilde" unicode="&#xf5;" horiz-adv-x="524" 
d="M83 442q-14 -17 -25.5 -44.5t-16.5 -62.5v1l-19 -88q-5 -20 -5 -40q0 -38 18 -78t50.5 -73t77.5 -54.5t99 -21.5q21 0 50 11t55.5 24t44.5 23.5l18 10.5h-1q35 12 46.5 50t19.5 93v-1q1 4 1 7q0 4 1 8l6 41q2 9 3 18t1 20v10q-2 25 -11.5 39.5t-20.5 25t-22.5 19.5
t-18.5 24q-12 36 -39.5 57t-57.5 32t-56.5 14.5t-36.5 3.5q-94 0 -160 -69h-1zM388 251q0 -81 -34.5 -127t-91.5 -46q-8 0 -21 6.5t-27 14.5t-27.5 15t-22.5 9q-8 1 -13.5 7.5t-9 20.5t-5 36.5t-1.5 56.5q0 59 15.5 101t52.5 49q13 3 22.5 6.5t17 7t14.5 6t15 2.5
q24 0 45 -11t36.5 -32t25 -52t9.5 -70zM253 712q3 -2 6.5 -2.5t5.5 -2.5v2q14 -8 26.5 -10.5t20.5 -2.5q23 0 54.5 10.5t58.5 44.5q-6 48 -64 53q-9 -14 -27 -23.5t-33 -9.5q-13 0 -27 9q-23 11 -43 16t-36 5q-48 0 -98 -71v-6q0 -33 32 -33q19 0 43 14l10 24q2 0 6 1t9 3
q22 -8 38 -14.5t18 -6.5z" />
    <glyph glyph-name="odieresis" unicode="&#xf6;" horiz-adv-x="524" 
d="M83 446q-14 -17 -25.5 -44.5t-16.5 -62.5v1l-19 -88q-5 -20 -5 -40q0 -38 18 -78t50.5 -73t77.5 -54.5t99 -21.5q21 0 50 11t55.5 24t44.5 23.5l18 10.5h-1q35 12 46.5 50t19.5 93v-1q1 4 1 7q0 4 1 8l6 41q2 9 3 18t1 20v10q-2 25 -11.5 39.5t-20.5 25t-22.5 19.5
t-18.5 24q-12 36 -39.5 57t-57.5 32t-56.5 14.5t-36.5 3.5q-94 0 -160 -69h-1zM388 255q0 -81 -34.5 -127t-91.5 -46q-8 0 -21 6.5t-27 14.5t-27.5 15t-22.5 9q-8 1 -13.5 7.5t-9 20.5t-5 36.5t-1.5 56.5q0 59 15.5 101t52.5 49q13 3 22.5 6.5t17 7t14.5 6t15 2.5
q24 0 45 -11t36.5 -32t25 -52t9.5 -70zM415 802h-3l3 -1q-4 1 -7 1.5t-7 0.5q-13 0 -25 -4h-12q-10 0 -20 -0.5t-18.5 -3t-13.5 -7t-5 -12.5q0 -2 0.5 -9t2.5 -10l-2 -2v-33q0 -14 3 -25t15 -16l-2 -2h7q3 -1 10 -1q4 0 8 2h2q3 1 6 1l2 -0.5t4 -1.5h-1q2 -2 4.5 -2.5
l2.5 -0.5h11q11 0 28 2.5t29 15.5h1q2 2 4 6.5t3 6.5l-2 3q0 10 -7 16t-7 11q0 1 1.5 6.5t3.5 12.5t3.5 14t1.5 10t-1 7.5t-3 9.5l-10 2q-5 2 -6.5 2.5t-3.5 0.5zM83 796q-4 -10 -4 -15q0 -4 1.5 -10.5t3.5 -13.5t3.5 -13t1.5 -7q0 -6 -7 -11.5t-7 -14.5l-2 -4l3 -5
q2 -6 5 -8l1 1q8 -7 18.5 -11t21 -5.5t18 -2t9.5 -0.5t7.5 1.5t5.5 3.5h1q2 0 8.5 -1t15.5 -1q15 4 19.5 17.5t4.5 25.5v34l-5 3q6 10 6 18q0 9 -13.5 14.5t-31 8t-32.5 3t-18 0.5q-7 0 -11 -1h-2q-5 0 -7 -1h-5zM310 757v2v-1q1 0 1 -1h-1z" />
    <glyph glyph-name="ugrave" unicode="&#xf9;" horiz-adv-x="462" 
d="M16 414q0 -19 2.5 -36.5t6 -37.5t6 -43.5t2.5 -54.5q0 -21 -3 -41.5t-3 -48.5q0 -36 21.5 -67.5t52 -54t65 -35.5t61.5 -13q19 0 40 2.5t41 8.5t37 17.5t29 29.5q15 22 28 49t22.5 55.5t15 56.5t5.5 53q0 60 -6.5 102t-6.5 56q0 31 12 55q-30 44 -61 44q-16 0 -29 -10.5
t-22 -27.5t-14 -39t-5 -46q0 -33 5.5 -62.5t5.5 -58.5q0 -174 -95 -174q-3 0 -11 1t-16.5 2l-17 2t-12.5 1h-2q-11 8 -19 18.5t-12.5 30t-6.5 52t-2 84.5v194q-8 2 -12.5 5.5t-9.5 7.5v-1q-7 7 -14 13t-16 6q-22 0 -58 -37v-14t-1 -13l-3 -29v-2zM212 801q-37 -8 -55 -21
t-18 -36q0 -10 5 -18.5t13 -15t17.5 -10t17.5 -3.5h7l96 -47l35 47z" />
    <glyph glyph-name="uacute" unicode="&#xfa;" horiz-adv-x="462" 
d="M16 407q0 -19 2.5 -36.5t6 -37.5t6 -43.5t2.5 -54.5q0 -21 -3 -41.5t-3 -48.5q0 -36 21.5 -67.5t52 -54t65 -35.5t61.5 -13q19 0 40 2.5t41 8.5t37 17.5t29 29.5q15 22 28 49t22.5 55.5t15 56.5t5.5 53q0 60 -6.5 102t-6.5 56q0 31 12 55q-30 44 -61 44q-16 0 -29 -10.5
t-22 -27.5t-14 -39t-5 -46q0 -33 5.5 -62.5t5.5 -58.5q0 -174 -95 -174q-3 0 -11 1t-16.5 2l-17 2t-12.5 1h-2q-11 8 -19 18.5t-12.5 30t-6.5 52t-2 84.5v194q-8 2 -12.5 5.5t-9.5 7.5v-1q-7 7 -14 13t-16 6q-22 0 -58 -37v-14t-1 -13l-3 -29v-2zM144 683q0 -25 37 -37
q84 22 151 79q-8 22 -19.5 43t-38.5 37q-3 -4 -7.5 -8t-6.5 -7l-10 -7q-5 -2 -10 -7l-17 -9h5q-8 -8 -11 -12l-1 1q-5 -8 -22 -23t-41 -32l-1 -1q-5 -3 -10 -6.5t-10 -6.5h12v-4z" />
    <glyph glyph-name="ucircumflex" unicode="&#xfb;" horiz-adv-x="462" 
d="M16 407q0 -19 2.5 -36.5t6 -37.5t6 -43.5t2.5 -54.5q0 -21 -3 -41.5t-3 -48.5q0 -36 21.5 -67.5t52 -54t65 -35.5t61.5 -13q19 0 40 2.5t41 8.5t37 17.5t29 29.5q15 22 28 49t22.5 55.5t15 56.5t5.5 53q0 60 -6.5 102t-6.5 56q0 31 12 55q-30 44 -61 44q-16 0 -29 -10.5
t-22 -27.5t-14 -39t-5 -46q0 -33 5.5 -62.5t5.5 -58.5q0 -174 -95 -174q-3 0 -11 1t-16.5 2l-17 2t-12.5 1h-2q-11 8 -19 18.5t-12.5 30t-6.5 52t-2 84.5v194q-8 2 -12.5 5.5t-9.5 7.5v-1q-7 7 -14 13t-16 6q-22 0 -58 -37v-14t-1 -13l-3 -29v-2zM397 682l-155 116
q-19 -5 -46 -18.5t-54.5 -31.5t-51.5 -38.5t-37 -38.5q7 -48 51 -48q13 0 29.5 8t34 19.5t33 24t25.5 21.5v-1q3 2 6 5q26 -15 51.5 -38.5t51.5 -52.5q61 12 67 67z" />
    <glyph glyph-name="udieresis" unicode="&#xfc;" horiz-adv-x="462" 
d="M16 405q0 -19 2.5 -36.5t6 -37.5t6 -43.5t2.5 -54.5q0 -21 -3 -41.5t-3 -48.5q0 -36 21.5 -67.5t52 -54t65 -35.5t61.5 -13q19 0 40 2.5t41 8.5t37 17.5t29 29.5q15 22 28 49t22.5 55.5t15 56.5t5.5 53q0 60 -6.5 102t-6.5 56q0 31 12 55q-30 44 -61 44q-16 0 -29 -10.5
t-22 -27.5t-14 -39t-5 -46q0 -33 5.5 -62.5t5.5 -58.5q0 -174 -95 -174q-3 0 -11 1t-16.5 2l-17 2t-12.5 1h-2q-11 8 -19 18.5t-12.5 30t-6.5 52t-2 84.5v194q-8 2 -12.5 5.5t-9.5 7.5v-1q-7 7 -14 13t-16 6q-22 0 -58 -37v-14t-1 -13l-3 -29v-2zM383 802h-3l3 -1
q-4 1 -7 1.5t-7 0.5q-13 0 -25 -4h-12q-10 0 -20 -0.5t-18.5 -3t-13.5 -7t-5 -12.5q0 -2 0.5 -9t2.5 -10l-2 -2v-33q0 -14 3 -25t15 -16l-2 -2h7q3 -1 10 -1q4 0 8 2h2q3 1 6 1l2 -0.5t4 -1.5h-1q2 -2 4.5 -2.5l2.5 -0.5h11q11 0 28 2.5t29 15.5h1q2 2 4 6.5t3 6.5l-2 3
q0 10 -7 16t-7 11q0 1 1.5 6.5t3.5 12.5t3.5 14t1.5 10t-1 7.5t-3 9.5l-10 2q-5 2 -6.5 2.5t-3.5 0.5zM51 796q-4 -10 -4 -15q0 -4 1.5 -10.5t3.5 -13.5t3.5 -13t1.5 -7q0 -6 -7 -11.5t-7 -14.5l-2 -4l3 -5q2 -6 5 -8l1 1q8 -7 18.5 -11t21 -5.5t18 -2t9.5 -0.5t7.5 1.5
t5.5 3.5h1q2 0 8.5 -1t15.5 -1q15 4 19.5 17.5t4.5 25.5v34l-5 3q6 10 6 18q0 9 -13.5 14.5t-31 8t-32.5 3t-18 0.5q-7 0 -11 -1h-2q-5 0 -7 -1h-5zM278 757v2v-1q1 0 1 -1h-1z" />
    <glyph glyph-name="ydieresis" unicode="&#xff;" horiz-adv-x="581" 
d="M521 400q21 0 30.5 8t13.5 22t5 34.5t5 45.5q-31 3 -49 4t-20 1q-44 0 -66 -18l-69 -139q-9 -16 -20 -41.5t-23 -52.5t-23 -52.5t-18 -41.5q-5 8 -9 24t-11 49q-15 77 -51.5 145.5t-96.5 116.5q-5 -2 -10 -2h-8l-42 3h1q-5 1 -12 1q-8 0 -15.5 -2t-21.5 -7q0 -17 1.5 -21
t1.5 -7q0 -8 -8 -42q19 -10 35.5 -20t30 -22.5t25.5 -29.5t23 -41q19 -40 42 -78.5t30 -71.5q3 -18 11.5 -31.5t17 -25t15 -22.5t6.5 -24v-7q-17 -35 -23 -56.5t-12.5 -39t-19.5 -36t-43 -46.5q-74 -68 -74 -124q0 -10 2 -20.5t6 -24.5l112 -2q32 78 77.5 179.5t95.5 204.5
l58 118q4 6 12.5 31t21 55t28 59.5t33.5 46.5h5zM442 802h-3l3 -1q-4 1 -7 1.5t-7 0.5q-13 0 -25 -4h-12q-10 0 -20 -0.5t-18.5 -3t-13.5 -7t-5 -12.5q0 -2 0.5 -9t2.5 -10l-2 -2v-33q0 -14 3 -25t15 -16l-2 -2h7q3 -1 10 -1q4 0 8 2h2q3 1 6 1l2 -0.5t4 -1.5h-1
q2 -2 4.5 -2.5l2.5 -0.5h11q11 0 28 2.5t29 15.5h1q2 2 4 6.5t3 6.5l-2 3q0 10 -7 16t-7 11q0 1 1.5 6.5t3.5 12.5t3.5 14t1.5 10t-1 7.5t-3 9.5l-10 2q-5 2 -6.5 2.5t-3.5 0.5zM110 796q-4 -10 -4 -15q0 -4 1.5 -10.5t3.5 -13.5t3.5 -13t1.5 -7q0 -6 -7 -11.5t-7 -14.5
l-2 -4l3 -5q2 -6 5 -8l1 1q8 -7 18.5 -11t21 -5.5t18 -2t9.5 -0.5t7.5 1.5t5.5 3.5h1q2 0 8.5 -1t15.5 -1q15 4 19.5 17.5t4.5 25.5v34l-5 3q6 10 6 18q0 9 -13.5 14.5t-31 8t-32.5 3t-18 0.5q-7 0 -11 -1h-2q-5 0 -7 -1h-5zM337 757v2v-1q1 0 1 -1h-1z" />
    <glyph glyph-name="igrave" unicode="&#xec;" horiz-adv-x="151" 
d="M145 461q0 26 -8.5 38.5t-34.5 12.5q-5 0 -15 -1t-15 -1q-10 0 -17 4q-41 -2 -41 -33q0 -5 2 -13q28 -127 28 -326l1 -4v-43t1 -36q-1 -5 -1 -7v-9q0 -8 1.5 -18t5.5 -19t11.5 -15t19.5 -6q29 0 56 43l-1 149q0 46 -3 89.5t-8 91.5l-3 26q21 27 21 77zM53 804
q-37 -8 -55 -21t-18 -36q0 -10 5 -18.5t13 -15t17.5 -10t17.5 -3.5h7l96 -47l35 47z" />
    <glyph glyph-name="iacute" unicode="&#xed;" horiz-adv-x="151" 
d="M145 461q0 26 -8.5 38.5t-34.5 12.5q-5 0 -15 -1t-15 -1q-10 0 -17 4q-41 -2 -41 -33q0 -5 2 -13q28 -127 28 -326l1 -4v-43t1 -36q-1 -5 -1 -7v-9q0 -8 1.5 -18t5.5 -19t11.5 -15t19.5 -6q29 0 56 43l-1 149q0 46 -3 89.5t-8 91.5l-3 26q21 27 21 77zM-12 683
q0 -25 37 -37q84 22 151 79q-8 22 -19.5 43t-38.5 37q-3 -4 -7.5 -8t-6.5 -7l-10 -7q-5 -2 -10 -7l-17 -9h5q-8 -8 -11 -12l-1 1q-5 -8 -22 -23t-41 -32l-1 -1q-5 -3 -10 -6.5t-10 -6.5h12v-4z" />
    <glyph glyph-name="icircumflex" unicode="&#xee;" horiz-adv-x="151" 
d="M145 461q0 26 -8.5 38.5t-34.5 12.5q-5 0 -15 -1t-15 -1q-10 0 -17 4q-41 -2 -41 -33q0 -5 2 -13q28 -127 28 -326l1 -4v-43t1 -36q-1 -5 -1 -7v-9q0 -8 1.5 -18t5.5 -19t11.5 -15t19.5 -6q29 0 56 43l-1 149q0 46 -3 89.5t-8 91.5l-3 26q21 27 21 77zM245 682l-155 116
q-19 -5 -46 -18.5t-54.5 -31.5t-51.5 -38.5t-37 -38.5q7 -48 51 -48q13 0 29.5 8t34 19.5t33 24t25.5 21.5v-1q3 2 6 5q26 -15 51.5 -38.5t51.5 -52.5q61 12 67 67z" />
    <glyph glyph-name="idieresis" unicode="&#xef;" horiz-adv-x="151" 
d="M145 461q0 26 -8.5 38.5t-34.5 12.5q-5 0 -15 -1t-15 -1q-10 0 -17 4q-41 -2 -41 -33q0 -5 2 -13q28 -127 28 -326l1 -4v-43t1 -36q-1 -5 -1 -7v-9q0 -8 1.5 -18t5.5 -19t11.5 -15t19.5 -6q29 0 56 43l-1 149q0 46 -3 89.5t-8 91.5l-3 26q21 27 21 77zM232 802h-3l3 -1
q-4 1 -7 1.5t-7 0.5q-13 0 -25 -4h-12q-10 0 -20 -0.5t-18.5 -3t-13.5 -7t-5 -12.5q0 -2 0.5 -9t2.5 -10l-2 -2v-33q0 -14 3 -25t15 -16l-2 -2h7q3 -1 10 -1q4 0 8 2h2q3 1 6 1l2 -0.5t4 -1.5h-1q2 -2 4.5 -2.5l2.5 -0.5h11q11 0 28 2.5t29 15.5h1q2 2 4 6.5t3 6.5l-2 3
q0 10 -7 16t-7 11q0 1 1.5 6.5t3.5 12.5t3.5 14t1.5 10t-1 7.5t-3 9.5l-10 2q-5 2 -6.5 2.5t-3.5 0.5zM-100 796q-4 -10 -4 -15q0 -4 1.5 -10.5t3.5 -13.5t3.5 -13t1.5 -7q0 -6 -7 -11.5t-7 -14.5l-2 -4l3 -5q2 -6 5 -8l1 1q8 -7 18.5 -11t21 -5.5t18 -2t9.5 -0.5t7.5 1.5
t5.5 3.5h1q2 0 8.5 -1t15.5 -1q15 4 19.5 17.5t4.5 25.5v34l-5 3q6 10 6 18q0 9 -13.5 14.5t-31 8t-32.5 3t-18 0.5q-7 0 -11 -1h-2q-5 0 -7 -1h-5zM127 757v2v-1q1 0 1 -1h-1z" />
    <glyph glyph-name="ntilde" unicode="&#xf1;" horiz-adv-x="490" 
d="M461 113q0 17 -3.5 32t-3.5 26v-1h1l1 1q4 2 3 9.5t-1 18.5v1q0 21 4.5 52.5t4.5 58.5v7q-1 13 -3.5 19.5t-6 11l-7 9t-6.5 14.5q-10 24 -18 37.5t-16.5 21t-18 11.5t-21.5 10q-24 57 -121 57q-30 0 -58.5 -4.5t-53.5 -29.5v5q-36 33 -59 33q-20 0 -31 -18.5t-16.5 -45.5
t-6.5 -57t-1 -54q0 -44 4.5 -104.5t12.5 -117.5q2 -17 3 -28t1 -17q0 -36 -11 -55q29 -44 60 -44q30 0 49.5 34.5t19.5 88.5q0 34 -5.5 67.5t-5.5 61.5q0 175 96 175q4 0 13 -1t18.5 -2.5t17 -2.5t8.5 -1h2q11 -9 18.5 -19t12 -29.5t6.5 -51.5t2 -85v-201q8 -2 12 -6t9 -8v1
q8 -8 15.5 -13.5t16.5 -5.5q6 0 15.5 3t18.5 11t16 20.5t9 32.5l3 27q1 11 1 18v27zM225 712q3 -2 6.5 -2.5t5.5 -2.5v2q14 -8 26.5 -10.5t20.5 -2.5q23 0 54.5 10.5t58.5 44.5q-6 48 -64 53q-9 -14 -27 -23.5t-33 -9.5q-13 0 -27 9q-23 11 -43 16t-36 5q-48 0 -98 -71v-6
q0 -33 32 -33q19 0 43 14l10 24q2 0 6 1t9 3q22 -8 38 -14.5t18 -6.5z" />
    <glyph glyph-name="ccedilla" unicode="&#xe7;" horiz-adv-x="419" 
d="M367 69l-1 1q-28 15 -57.5 33t-52.5 40q-4 5 -11 11l-14 12t-13.5 10.5t-8.5 5.5l5 -1q-23 17 -41.5 32.5t-18.5 26.5v4q4 7 13.5 17t30 26.5t55 42t88.5 63.5q23 11 42 32t27 41q-2 22 -16.5 35t-34.5 13q-7 0 -22 -7v1q-49 -25 -110 -80q-18 -10 -39 -23.5t-35 -27.5
q-2 -8 -15 -20.5t-27 -24t-26 -20l-12 -8.5q-3 -4 -6.5 -7.5l-8.5 -8.5l-47 -47q39 -43 78.5 -85t69.5 -68q-5 -3 -8 -4t-5 -2l-10 -4q-41 -26 -41 -55q0 -4 1 -7l1 -5q0 -8 6 -17t13.5 -17.5t13.5 -16t8 -11.5q64 -12 64 -34v-1q-1 -9 -22 -13t-46 -7.5t-46 -10t-21 -21.5
q0 -34 65 -56q25 3 55 5.5t55 10t42 23t17 44.5q0 9 -8.5 24.5t-19.5 31t-21.5 29.5t-13.5 22l-6 5q-2 1 -6.5 12.5t-4.5 17.5h28l29 -17q42 -14 60 -29v1l54 -49q32 12 32 44q0 3 -1 11t-1.5 17t-1.5 17t-1 11l-16 -9q-3 2 -9 9t-13 14h14q-4 2 -12 7.5t-16 10.5zM168 97
l1 3v-3h-1zM367 69v-1h-1v1h1z" />
    <glyph glyph-name="logicalnot" unicode="&#xac;" horiz-adv-x="1024" 
d="M41 -4h824q33 0 59 8.5t44 23.5t27.5 34.5t9.5 41.5q0 43 -22.5 68t-59.5 37q25 12 40.5 34.5t15.5 53.5q0 17 -4 31.5t-15 27.5h3v140h-47l-4 -93h-292v188h-231v125h53v48h-415l-9 -106h49l4 58h109v-313h-139v-407zM230 356v360h108v-173h232v-139h-53v-48h2l75 -186
h-192l-20 -47h230l32 -79h-554v312h140zM699 44h-3l-128 312h266q30 0 48 -6.5t28.5 -16t14 -20t3.5 -18.5q0 -28 -25 -46.5t-60 -18.5h-114v-48h103q8 0 28 -1.5t40.5 -8t36.5 -21t16 -40.5t-12.5 -39.5t-32 -20t-42 -7.5t-43.5 -1h-124v1zM914 623h46l-3 140h-294v-221
h153v-51h47v151h-47v-52h-103v125h193zM338 405l13 -178h48l12 178h-73z" />
    <glyph glyph-name="AE" unicode="&#xc6;" horiz-adv-x="930" 
d="M618 -9q23 18 23 47q0 21 -13.5 59.5t-30.5 80.5q46 -38 93.5 -71.5t98.5 -64.5q15 -30 64 -39h6q66 27 68 74q-98 63 -152.5 109t-85.5 70q-23 15 -45.5 31t-39.5 33q27 4 69.5 9.5t86.5 12.5t83 16.5t57 22.5v41q0 31 -26 42l-4 1q-9 -1 -32 -3t-50.5 -5.5t-56 -8.5
t-48.5 -11q-22 -8 -41 -11t-36 -3q3 2 8 7l36 25q3 11 17.5 28t31.5 34l22 22q14 18 28.5 31.5t29.5 26.5h-1q18 16 40 35.5t42.5 40t37 41t24.5 38.5q-1 4 -3 10h3q-2 2 -5 6t-6 6l-9 9q-6 7 -13.5 13t-17.5 6q-7 0 -22 -7v1q-38 -20 -74 -48t-72 -65l-123 -125
q-21 -11 -40.5 -26t-38.5 -33q-5 -18 -14 -31q-13 20 -26 47t-25 54.5t-22.5 52.5t-18.5 40q2 0 2 2q0 9 -1.5 24.5t-6 32.5t-13.5 33t-25 26h1q-6 5 -12 6t-12 1t-15 -7t-17 -17t-14 -19.5t-6 -14.5v-2q-17 -48 -35 -93t-33 -79q-17 -33 -30.5 -62.5t-27 -64t-28.5 -77
t-36 -100.5q-2 -6 -5 -12.5t-5 -14.5q0 -3 -13.5 -26t-29 -54t-29 -64.5t-13.5 -56.5v-22q21 -4 37.5 -5t27.5 -1q14 0 29.5 1t32.5 4l8 23v-1q8 16 12 31.5t4 28.5v9q0 5 -1 11q32 71 57 128t43 96q9 3 18.5 5t20.5 2q6 0 14 -0.5t16 -0.5t15 -0.5t11 -0.5q23 0 43 5.5
t31 5.5q5 0 11 -2l9 -9q38 -105 67 -187t47 -135q20 -26 49 -26q12 0 25 8zM305 502q5 20 9.5 35.5t7.5 26.5q19 -24 35.5 -61.5t30.5 -75.5h-3q-7 0 -20.5 1.5t-28.5 3.5t-29.5 3.5t-23.5 2.5q6 13 11.5 29t10.5 35z" />
    <glyph glyph-name="ordfeminine" unicode="&#xaa;" horiz-adv-x="618" 
d="M306 4q20 -2 36 -2h28q14 0 22 1t15 9q0 32 -3 51t-3 39v7q0 9 8 21.5t8 32.5v30q0 2 0.5 5t0.5 6q0 9 -6 16t-13 9q0 6 6 12t6 20q0 5 -2.5 17t-2.5 17q0 -1 1 3t1.5 9.5t1.5 11t1 8.5l4 86q5 0 11.5 -0.5t14.5 -0.5h13q15 -1 29 -1h25h18q23 1 41.5 4.5t29.5 8.5
q-5 17 -5 20q0 1 0.5 7t1.5 13t2 13.5t1 8.5q0 29 -24 30q-4 0 -13.5 -2t-20.5 -4.5t-20.5 -4.5t-12.5 -2q-4 0 -10.5 6.5t-20.5 6.5q-6 0 -18 -2t-26 -4q3 58 6.5 101.5t17.5 72.5t43.5 44t84.5 15h26q30 39 30 68q0 51 -65 68h-7q-11 0 -30.5 -4.5t-38.5 -10t-33.5 -10
l-14.5 -4.5l-11 -9q-4 -3 -11.5 -5.5t-8.5 -2.5h-1q-14 0 -25.5 -10t-21.5 -27q-9 4 -26.5 6.5t-47.5 4.5h-7q-11 0 -33.5 -7.5t-46 -17t-41 -17l-17.5 -7.5l2 -1q-5 2 -8 3t-4 1h-1q-20 0 -37.5 -23t-30 -53.5t-20.5 -61.5t-10 -47q0 -33 -6 -65t-6 -65q0 -11 4 -27t4 -40
q0 -14 -4.5 -33.5t-4.5 -41.5v-59q0 -29 -1 -55q0 -22 2.5 -28.5t2.5 -13.5q0 -12 -2 -31.5t-4 -39.5t-4 -36.5t-3 -23.5l9 -13q20 -2 36 -2h28q14 0 22 1t15 9q0 32 -3 51t-3 39v7q0 9 8 21.5t8 32.5v30q0 2 0.5 5t0.5 6q0 9 -6 16t-13 9q0 6 6 12t6 20q0 5 -2.5 17
t-2.5 17q0 -1 1 3t1.5 9.5t1.5 11t1 8.5l4 86q5 0 11.5 -0.5t14.5 -0.5h13q15 -1 29 -1h25h18q39 2 61 9q2 -8 3 -18.5t1 -22.5q0 -14 -4.5 -33.5t-4.5 -41.5v-59q0 -29 -1 -55q0 -22 2.5 -28.5t2.5 -13.5q0 -12 -2 -31.5t-4 -39.5t-4 -36.5t-3 -23.5zM297 516
q-4 0 -13.5 -2t-20.5 -4.5t-20.5 -4.5t-12.5 -2q-4 0 -10.5 6.5t-20.5 6.5q-6 0 -18 -2t-26 -4q8 46 12 77t17 49.5t40 26.5t82 8h18q-2 -7 -3 -12.5t-1 -10.5q0 -22 -3.5 -60.5t-6.5 -75.5q-3 2 -13 4z" />
    <glyph glyph-name="threequarters" unicode="&#xbe;" horiz-adv-x="801" 
d="M44 27q-3 -5 -5 -9t-2 -9q0 -25 34 -25q36 0 103 26l43 67q84 134 148 220t91 130q49 80 87 154.5t74 137.5h-1q8 11 8 19q0 31 -32 31q-13 0 -25 -9l2 -5q-22 -12 -53 -46t-66 -79t-70 -96t-65 -97.5t-51 -83.5t-27 -53q-18 -11 -45.5 -46.5t-67.5 -98.5v1l-6 -10
q-17 -26 -35.5 -55.5t-38.5 -63.5zM36 710h25q16 0 38 -3.5t41.5 -9t33 -12.5t13.5 -14q0 -5 -6 -11.5t-13.5 -12.5t-14 -10.5t-8.5 -4.5q-4 0 -8.5 1t-8.5 1q-11 0 -28 -6t-34 -15t-29 -19.5t-12 -19.5q0 -25 33 -41q80 -7 87 -9q5 -2 14.5 -6t19 -11t16.5 -16t7 -19
q0 -25 -25 -42.5t-57 -17.5q-8 0 -18 2.5t-21 6t-21.5 6t-19.5 2.5q-12 0 -20.5 -5.5t-14 -13t-8.5 -16.5t-3 -16q0 -22 24 -49q61 1 114 12.5t91.5 30t60.5 44.5t22 56q0 35 -25.5 62.5t-59.5 41.5q12 8 23.5 19t20.5 22.5t15 23t6 21.5q0 16 -15 35.5t-34.5 37t-39.5 29.5
t-29 12l-14 -3q-8 -3 -12 -3q-6 0 -17 3.5t-24 8t-26.5 8t-25.5 3.5zM642 92h15q9 0 20 -1h5q38 0 47 29q-6 32 -41 32q-12 0 -26 -2t-18 -2h-5q-1 9 -3 28t-3.5 41.5t-2.5 45.5t-1 41v19q2 8 3.5 20.5t1.5 21.5q0 7 -2.5 16t-7 17t-11.5 13.5t-17 5.5t-21 -11.5t-24 -28.5
t-28 -37.5t-33 -39.5q-26 -28 -41.5 -45t-26.5 -29h1q-7 -8 -20.5 -20.5t-26.5 -27t-23 -30.5t-10 -30q18 -29 71 -29q27 6 62 6h17q30 0 42.5 -1t22.5 -2l-1 -43q-3 -8 -3 -17q0 -32 54 -36q20 14 25 24.5t5 23.5v48h4zM550 201h9q0 -8 0.5 -18.5t1.5 -24.5h-15
q-4 0 -12.5 0.5t-19 1t-21 1.5t-17.5 2q9 9 19 22.5t21 29t22.5 31t22.5 26.5q0 -7 -1.5 -16.5t-3 -20t-3.5 -19.5t-3 -15z" />
    <glyph glyph-name="threesuperior" unicode="&#xb3;" horiz-adv-x="365" 
d="M136 592q-4 2 -8.5 4.5t-9.5 2.5t-14 -4t-19.5 -9.5t-20.5 -9.5t-17 -4q-14 -9 -21 -16.5t-7 -18.5q0 -25 32 -39q38 -4 58.5 -6t32 -5t16.5 -7.5t12 -12.5l-1 1q4 -5 10.5 -12.5t6.5 -16.5q0 -24 -22.5 -42t-54.5 -18q-16 0 -37 8.5t-39 8.5q-17 0 -23 -8t-8 -13l-1 -1
q-10 -11 -10 -27q0 -22 22 -48q58 1 108 12t86.5 30t57 44t20.5 54q0 33 -23 60t-57 41q15 11 29.5 25.5t22.5 29.5q-13 -2 -41.5 -1.5t-79.5 -1.5zM257 595q15 1 15 4q0 1 -10 3q5 12 5 20q0 13 -13 32.5t-31 37t-37 30t-31 12.5q-5 0 -13.5 -3t-11.5 -3q-7 0 -18 3.5
t-23 8t-24.5 8.5t-22.5 5l-11 -83h23q16 0 36.5 -4t39 -9.5t31 -12t12.5 -12.5l-5 -5l13 -13l9 -1.5t22 -3t27 -3.5t23 -4q-2 -2 -2.5 -3.5t-2.5 -3.5z" />
    <glyph glyph-name="thorn" unicode="&#xfe;" horiz-adv-x="414" 
d="M18 -153v-27q0 -5 -1 -15t-2 -20.5t-2 -19.5t-1 -13q0 -24 8.5 -38t31.5 -14q15 0 32 5t31.5 14t24 21t9.5 26q-20 57 -20 98q0 6 1 16.5t2 22.5t2 23.5t1 19.5t-0.5 15.5t-1.5 12.5l5 35q124 21 196 93l7 7q13 13 26 27.5t23.5 31.5t17 38t6.5 47q0 44 -14 83.5
t-47.5 70.5t-89 51.5t-138.5 26.5l-2 218q0 5 0.5 22t2.5 37l-22 22q-16 14 -33 14q-11 0 -21.5 -6t-24.5 -18q2 -42 2 -98v-121q0 -45 -0.5 -111.5t-1 -142t-1.5 -153t-2 -144.5h1q-3 -49 -4 -88.5t-1 -68.5zM199 378q46 -15 64 -15h6q9 -9 17.5 -16t14.5 -18.5t9.5 -31
t3.5 -55.5q0 -27 -16.5 -48t-33.5 -29q-8 -4 -40.5 -13.5t-91.5 -25.5q-1 15 -2 42t-2.5 62.5t-2.5 77.5t-2 88q14 -2 33 -6.5t43 -11.5z" />
    <glyph glyph-name="brokenbar" unicode="&#xa6;" horiz-adv-x="109" 
d="M102 734q-4 4 -4 13q0 8 1 20t1 21q0 31 -18 31q-6 0 -19.5 -12t-23.5 -24q-8 -14 -12.5 -75t-4.5 -178q0 -33 1 -61t3 -51h13q7 0 13.5 -4.5t12.5 -4.5q9 0 23 13t35 39h-23q1 0 2 13.5t2 31.5t1.5 37t0.5 30q0 23 -2 51.5t-2 62.5v47zM94 345q-5 0 -11 5t-12.5 10.5
t-12.5 10.5t-10 5q-10 0 -14.5 -11t-7.5 -32q4 -5 4 -20q0 -5 -1.5 -35.5t-3.5 -68t-3.5 -74t-1.5 -54.5q0 -123 37 -123q4 0 11 1t14 12t12 36.5t5 74.5v27q0 15 -0.5 33.5t-0.5 35.5q0 18 -0.5 32t-0.5 19q0 27 3 29v44v15t2 14z" />
    <glyph glyph-name="multiply" unicode="&#xd7;" horiz-adv-x="489" 
d="M17 184v-13q0 -35 31 -35h11q5 1 8 1q11 0 23 -9q5 2 10 5.5t10 8.5v-2q15 19 27 38t22 35t18.5 28.5t17.5 19.5l13 10q8 -10 28 -34t45 -49t51.5 -44.5t47.5 -19.5q43 0 43 56q0 7 -2 17q2 4 2 7q0 12 -36 48t-108 99q7 9 26.5 24.5t42 34t43.5 38.5t31 39
q-17 34 -70 72q-64 -48 -96.5 -81t-50.5 -56l-132 135q-80 -2 -80 -55q0 -14 3 -23q35 -30 56.5 -51t36.5 -36t25.5 -26t23.5 -22q-10 -8 -24 -22t-30 -32.5t-31.5 -41.5t-28.5 -48q-5 -5 -6 -8t-1 -8z" />
    <glyph glyph-name="minus" unicode="&#x2212;" horiz-adv-x="441" 
d="M0 291q0 -8 -2.5 -27.5t-2.5 -32.5q0 -9 12 -24l236 6l137 -6q17 19 17 39q0 21 -15 45h-382z" />
    <glyph glyph-name="twosuperior" unicode="&#xb2;" horiz-adv-x="430" 
d="M58 735q-14 -10 -21 -24t-7 -35q0 -9 2.5 -19.5t7 -19.5t11.5 -15t17 -6v6q6 2 15.5 4t21.5 2q13 0 31.5 -3t35 -10t28 -19t11.5 -30t-5.5 -35.5t-14.5 -31.5t-19.5 -23t-19.5 -9h-3q-1 0 -1.5 0.5l-0.5 0.5h-1q-7 0 -25 -12t-38.5 -28t-40.5 -33t-32 -28t-13 -12h1
l-7 -56h86q3 0 12 1t18.5 2t17.5 2l8 1q16 0 34 -6q32 -2 61 -3t52 -1h33q24 19 24 44q0 21 -11 33t-26 17t-31.5 6t-27.5 1q-9 0 -19.5 -1.5t-23.5 -3.5q102 86 102 173q0 34 -18 63.5t-49.5 52.5t-74.5 38t-92 20z" />
    <glyph glyph-name="onesuperior" unicode="&#xb9;" horiz-adv-x="267" 
d="M140 485l12 274q-9 10 -16 10q-11 0 -22.5 -2.5t-26 -14t-33 -35t-43.5 -64.5v-5q-7 -9 -7 -12q0 -11 10 -25t30 -34l15 17.5t3 5.5v1q0 5 3 10l6 10v-27q0 -37 -4.5 -52.5t-4.5 -26.5q0 -12 5 -18q-2 -29 -8.5 -60.5t-6.5 -61.5h13l-2 -3q-3 0 -5.5 -4.5t-2.5 -18.5
l-17 -13q42 -15 62 -15q5 0 8 2h8q2 -1 4 -1q3 0 6 -1q26 12 26 43q0 4 -2 18t-4 31t-4 34.5t-2 29.5v8zM62 382l8 -1l-4 -5z" />
    <glyph glyph-name="eth" unicode="&#xf0;" horiz-adv-x="549" 
d="M119 699q6 -10 16 -20t21.5 -19.5t23.5 -18t21 -14.5l-91 -41q-5 -9 -8 -16.5t-3 -12.5q0 -26 40 -48l123 58q10 -13 19 -25.5t17 -26.5q-33 12 -65 12q-34 0 -67.5 -10t-61 -31.5t-47 -55.5t-26.5 -82v1l-19 -89q-5 -22 -5 -42q0 -39 18.5 -80t51 -74.5t77.5 -54.5
t98 -21q20 0 46 9.5t50.5 21.5t44.5 23.5t27 14.5h-1q19 7 33.5 32t24.5 60t15 76t5 82q0 129 -141 300h5q32 7 48 13.5t17 25.5h3l-31 75l-105 -49q-13 11 -26.5 22.5t-27.5 22.5q-16 3 -31.5 5t-31.5 2q-6 0 -18 -2t-32 -6zM378 262q0 -79 -33.5 -127.5t-92.5 -48.5
q-8 0 -21 6.5t-27.5 14.5t-28 15t-21.5 9q-16 3 -22.5 29.5t-6.5 94.5q0 30 3.5 56t11.5 46t21 33.5t32 16.5q25 5 38.5 13.5t29.5 8.5q24 0 45.5 -11t37 -32.5t25 -52.5t9.5 -71z" />
    <glyph glyph-name="onehalf" unicode="&#xbd;" horiz-adv-x="898" 
d="M44 39q-6 -11 -6 -19q0 -23 32 -23q20 0 46.5 6.5t59.5 18.5l30 46q80 121 135.5 204t93 141t62 97.5t43.5 73t37 67.5t43 81q7 10 7 17q0 26 -24 31v1l-0.5 -0.5t-1.5 -0.5q-2 1 -7 1q-13 0 -26 -9l3 -5q-23 -14 -54.5 -48.5t-67 -80t-70.5 -96.5t-64.5 -97.5
t-50.5 -82.5t-27 -51q-26 -17 -73 -85t-120 -186v-1zM539 447q-27 -21 -27 -62q0 -15 4 -29.5t10 -31.5l2 -11l17 17q7 2 17.5 4.5t27.5 2.5q13 0 32 -3t36 -10.5t29.5 -19.5t12.5 -30q0 -20 -6 -38.5t-15 -32.5t-20.5 -22.5t-22.5 -8.5h-5q-6 0 -20 -8.5t-31.5 -21.5
t-35.5 -28t-33.5 -28t-25 -21.5l-9.5 -8.5h1l-7 -58h89q4 0 13 1l18 2t17.5 2t11.5 1q13 0 33 -6q33 -3 64 -4t58 -1h32q27 22 27 46q0 21 -10.5 33t-26.5 18t-33.5 7t-31.5 1q-17 0 -45 -5q107 89 107 177q0 34 -18 65t-50.5 55t-77.5 39.5t-99 20.5zM157 776q8 3 8 6
t-8 12t-19 9q-15 0 -28.5 -8.5t-28 -24.5t-32 -39t-41.5 -51v-3q-7 -7 -7 -17q0 -20 48 -63q4 6 12 19t17 29q1 -8 1 -15v-13q0 -35 -6 -54t-6 -27q0 -13 6 -19q-2 -36 -9.5 -75t-7.5 -74l4 4v-6l-18 -13q25 -8 43 -12.5t26 -4.5q5 0 8.5 0.5t6.5 1.5h6q2 -1 5 -1t6 -1
q29 13 29 44q0 5 -3 22v-1q-3 20 -7.5 48t-4.5 48v279z" />
    <glyph glyph-name="onequarter" unicode="&#xbc;" horiz-adv-x="800" 
d="M37 44q-8 -13 -8 -21q0 -23 33 -23q37 0 104 25q81 120 138.5 207t98.5 150.5t69 109t50.5 84t42 75.5t43.5 83q7 10 7 17q0 26 -23 31l2 2q-2 -1 -3 -1l-2 -1q-2 1 -7 1t-11 -2t-13 -7l2 -5q-23 -14 -54.5 -49t-66.5 -80.5t-70 -96.5t-64.5 -96.5t-50 -81.5t-26.5 -51
q-14 -8 -31 -28t-40 -53.5t-53 -80.5t-68 -109zM623 326q0 7 2 18.5t2 18.5q0 12 -7 26t-19 28q-9 -6 -32.5 -28t-53 -53t-61 -66.5t-58 -67t-43.5 -55t-17 -30.5q18 -28 72 -28q14 3 28 4t29 1h21q23 -2 39.5 -3t26.5 -1l-2 -43q0 6 -1 6v-11q-1 -4 -1 -7v-4q0 -32 53 -36
q20 14 25 24.5t5 23.5v48q0 1 8 1h13q8 0 17 -1h9q36 0 43 26q-2 34 -40 34q-11 0 -24.5 -2t-19.5 -2q-3 0 -6 17.5t-4.5 42t-2.5 51.5t-1 46v22zM158 493q1 36 4.5 107.5t8.5 171.5q-7 11 -18 11q-8 0 -19 -1t-24 -5.5t-27 -15.5t-28 -30l-44 -63l5 -2l-10 -10t-5 -8
q0 -11 12 -26t34 -35q11 12 14 17.5t8 12.5l9 15q1 -8 1.5 -15t0.5 -12q0 -31 -6.5 -52t-6.5 -28q0 -15 6 -21q-1 -18 -3 -33.5t-4.5 -32t-4 -36.5t-1.5 -48l-17 -13q25 -8 42.5 -12.5t26.5 -4.5t15 3h1q2 0 3 1l11 -4q30 16 30 44q0 4 -2 17t-5 30.5t-5 35.5t-2 31v11z
M538 204h9q0 -8 0.5 -18.5t1.5 -24.5h-14q-3 0 -11.5 0.5t-19 1t-21.5 1.5t-19 2q9 9 19 22.5t21.5 29t22.5 31t22 26.5q0 -7 -1.5 -17t-3 -20.5t-3.5 -19.5t-3 -14z" />
    <glyph glyph-name="Thorn" unicode="&#xde;" horiz-adv-x="442" 
d="M439 433q0 36 -31.5 70t-79 61t-103.5 44t-106 19l-6 37q-9 49 -9 85q0 40 22 62q-18 13 -29.5 22t-20.5 14.5t-17 8t-18 2.5q-16 0 -24.5 -11t-12.5 -31t-4.5 -47.5t-0.5 -61.5v-14q0 -143 14 -225q-1 -5 -1.5 -9.5t-0.5 -9.5q0 -21 5 -39q-2 -9 -2.5 -36.5t-1.5 -62
t-1 -70.5v-63q0 -58 0.5 -113.5t2.5 -99.5q72 -32 90 -32q36 0 36 37v3q0 4 -2 8l1 -1q-2 5 -4.5 14.5t-2.5 20.5v4h-10l10 1q-3 11 -4 19.5t-1 14.5l8 62q25 5 56.5 18t64 30.5t64 37t56 39t39.5 37t15 29.5q0 10 -1.5 15t-1.5 10t2 18t4 28.5t4 30.5t2 24zM249 503
q17 -6 28.5 -28.5t18 -50t9.5 -54t3 -41.5q0 -22 -24.5 -38.5t-57 -27.5t-63 -18t-42.5 -9v15q0 9 1 35.5t1.5 57.5t1.5 59t1 42q0 22 -1 39.5t-2 31.5q47 -1 78 -4.5t47 -8.5h1z" />
    <glyph glyph-name="Eth" unicode="&#xd0;" horiz-adv-x="720" 
d="M706 320q11 11 23 20h-1l27 21h-10q4 10 4 17q0 5 -8 23q-63 64 -120 111.5t-111 82.5q-15 25 -37 44t-51.5 35.5t-67.5 32.5t-86 36q-30 12 -45.5 23t-24.5 18.5t-14.5 11.5t-13.5 4q-6 0 -20 -4t-40 -13q-7 -32 -7 -66q0 -13 2.5 -38t6 -52.5t6 -52t2.5 -36.5
q0 -23 -4 -44.5t-6 -44.5q-14 -1 -26.5 -1.5t-22.5 -0.5h-30v-18q0 -3 0.5 -5t0.5 -4q0 -10 -1 -21.5t-2 -18.5v-7q0 -26 9.5 -38t36.5 -12q6 0 13 1.5t12 1.5h4v-64l-2 1q-4 -66 -4 -132q0 -65 -5 -131h78q11 14 26 22t37 13l80 17q45 39 87.5 68t88.5 57.5t98 62t116 80.5
h2zM304 454h-46h-9q-3 0 -8 1q-6 28 -8.5 57t-2.5 59q0 19 1 37t3 35q38 -23 76 -41t77 -29q22 -18 54.5 -47.5t71.5 -68.5q27 -27 47 -48.5t34 -32.5q-13 -15 -33 -28t-39 -28l-251 -171l-47 -12q-4 14 -5.5 29t-1.5 32q0 54 24 102q-5 8 -6 15t-1 13q0 9 2.5 13.5t7.5 6.5
t12.5 3.5t17.5 5.5q4 4 9 4l14 -2q7 -1 18 -2t10 -1q39 0 39 47q0 24 -6 38t-24 14q-13 0 -16.5 -2t-7.5 -2h-3z" />
    <glyph glyph-name="fraction" unicode="&#x2215;" horiz-adv-x="509" 
d="M522 763l-13 5h1q-4 2 -10 2q-11 0 -29.5 -11t-36 -24.5t-30.5 -26t-13 -16.5v-3q-16 -33 -46.5 -84.5t-67.5 -110.5t-76 -118.5t-72 -109.5t-55.5 -84.5t-26.5 -41.5q-2 -8 -10.5 -19.5t-17.5 -24.5t-16.5 -25t-7.5 -21q0 -15 9 -24.5t20.5 -14.5t21 -6.5t10.5 -1.5
q13 0 21 0.5t13.5 4t10.5 10.5t14 21q0 5 -2 9l113 149q6 50 29 96.5t70 103.5q34 41 55 69t28 39l-2 6q15 24 33 56.5t35 67t30 68.5t18 60z" />
    <glyph glyph-name="Yacute" unicode="&#xdd;" horiz-adv-x="571" 
d="M244 33q0 -29 10.5 -40.5t39.5 -11.5h7q6 0 11 1h16q7 0 11.5 -0.5t9.5 -2.5q47 2 47 34q0 4 -0.5 5l-1.5 3v3q-33 132 -33 334l-1 4v32t-1 31q22 36 42.5 77t39.5 78.5t36 66.5t31 40h4q17 0 26.5 5.5t14.5 16t7 25.5t4 35q0 5 1 14t2 14q-31 3 -49.5 4t-20.5 1
q-42 0 -65 -17l-69 -142v1q-17 -32 -32.5 -61t-29.5 -53q-3 7 -3.5 9.5t-2.5 7.5t-7 15.5t-18 31.5q-12 21 -29 49.5t-37.5 57.5t-43 56t-45.5 45q-11 -3 -17 -3q-13 0 -31 2.5t-22 2.5q-8 0 -16 -2t-22 -8v-12q0 -5 2 -9v1q1 -4 1 -7q0 -4 -2 -14.5t-5 -27.5
q25 -13 42.5 -24t33.5 -28t33.5 -43t44.5 -69q13 -22 27.5 -38.5t27.5 -30t23.5 -25t15.5 -23.5l2 -141q1 -47 5 -94t9 -98q-23 -28 -23 -78zM191 933q0 -25 37 -37q84 22 151 79q-8 22 -19.5 43t-38.5 37q-3 -4 -7.5 -8t-6.5 -7l-10 -7q-5 -2 -10 -7l-17 -9h5
q-8 -8 -11 -12l-1 1q-5 -8 -22 -23t-41 -32l-1 -1q-5 -3 -10 -6.5t-10 -6.5h12v-4z" />
    <glyph glyph-name="yacute" unicode="&#xfd;" horiz-adv-x="581" 
d="M521 400q21 0 30.5 8t13.5 22t5 34.5t5 45.5q-31 3 -49 4t-20 1q-44 0 -66 -18l-69 -139q-9 -16 -20 -41.5t-23 -52.5t-23 -52.5t-18 -41.5q-5 8 -9 24t-11 49q-15 77 -51.5 145.5t-96.5 116.5q-5 -2 -10 -2h-8l-42 3h1q-5 1 -12 1q-8 0 -15.5 -2t-21.5 -7q0 -17 1.5 -21
t1.5 -7q0 -8 -8 -42q19 -10 35.5 -20t30 -22.5t25.5 -29.5t23 -41q19 -40 42 -78.5t30 -71.5q3 -18 11.5 -31.5t17 -25t15 -22.5t6.5 -24v-7q-17 -35 -23 -56.5t-12.5 -39t-19.5 -36t-43 -46.5q-74 -68 -74 -124q0 -10 2 -20.5t6 -24.5l112 -2q32 78 77.5 179.5t95.5 204.5
l58 118q4 6 12.5 31t21 55t28 59.5t33.5 46.5h5zM193 683q0 -25 37 -37q84 22 151 79q-8 22 -19.5 43t-38.5 37q-3 -4 -7.5 -8t-6.5 -7l-10 -7q-5 -2 -10 -7l-17 -9h5q-8 -8 -11 -12l-1 1q-5 -8 -22 -23t-41 -32l-1 -1q-5 -3 -10 -6.5t-10 -6.5h12v-4z" />
    <glyph glyph-name="Zcaron" unicode="&#x17d;" horiz-adv-x="687" 
d="M668 19q3 14 6.5 31t6.5 33.5t5.5 30t3.5 21.5l-73 2q-89 -24 -196 -24q-10 0 -62.5 2.5t-150.5 8.5q14 17 29 40.5t26 55.5h1q38 68 102.5 167t157.5 233q31 17 53 57t50 96q-101 22 -159 22h-17t-15 -1l-21 -10h-20t-45 0.5t-59.5 1.5t-64.5 3t-60 4.5t-45 6.5
q-11 -4 -18.5 -10.5t-21.5 -8.5h-8q-5 0 -8.5 0.5t-6.5 0.5h-8q-16 0 -18.5 -6.5t-2.5 -18.5v-3q0 -6 2 -16.5t4.5 -21t4.5 -19.5t2 -11q0 -6 -7 -19l20 -20l40 3q47 5 86.5 11t65.5 26q15 5 27 5t19.5 -2.5l15 -5t16.5 -5t22 -2.5q3 0 10.5 0.5t16.5 0.5t17.5 0.5t14.5 0.5
q7 0 17 -2l-10 -29q-14 -13 -32 -38.5t-37 -53.5t-37.5 -52.5t-32.5 -36.5q-16 -22 -39 -59t-48.5 -80.5t-52 -90t-50 -87t-41.5 -71.5t-26 -44l48 -35q2 0 14 0.5t30 3.5t30 8q21 -2 45.5 -3.5t53.5 -1.5q19 0 55.5 2t75 4.5t73 4.5t49.5 2q27 -11 57 -11q7 0 20 1.5
t28 3.5t29 3.5t24 1.5h19zM330 906q10 6 19 10.5l19 9.5t22.5 11.5t29.5 17.5l44 10v23q0 30 -48 66l-90 -67q-9 8 -17.5 14.5t-19.5 14t-26 16t-36 20.5q-55 -19 -55 -43q0 -9 14 -20.5t30.5 -21.5t29.5 -16t12 -4q11 -17 62 -41h10z" />
    <glyph glyph-name="zcaron" unicode="&#x17e;" horiz-adv-x="430" 
d="M283 -10q7 0 19.5 1.5t27 3.5t28.5 3.5t25 1.5h18q4 16 7 27.5t5 22t4.5 22.5t4.5 31l-70 4q-118 -23 -156 -23h-16q5 8 18 24t21 30l6 8q20 31 29 53t17 33l-3 2q6 4 22.5 24t54.5 73q29 17 51.5 57t48.5 94q-51 11 -79.5 16.5t-55.5 5.5h-17q-8 0 -14 -1l-26 -11
q-10 1 -29 2.5t-39 3.5h-5q-19 0 -24 -2t-6 -4l-14 10h-6q-3 1 -7 2l-8 2q-6 0 -20.5 -1.5t-29.5 -6.5t-26.5 -14t-11.5 -23q0 -15 5 -24.5t7 -12.5v-2q0 -8 -6 -20l21 -22q33 5 49.5 10t20 8l3.5 3q5 2 29 2h15q5 -1 9.5 -1.5t11.5 -0.5q4 0 12 0.5t17 0.5t16.5 0.5
t11.5 0.5q7 0 17 -2l-11 -42l-7 -7q-11 -8 -21.5 -19.5t-26.5 -37.5l-1 1l-3 -7q-11 -8 -11.5 -10t1.5 -4t1.5 -7t-12.5 -18q-28 -34 -52.5 -68.5t-44 -65.5t-34 -56t-23.5 -40l48 -34l8.5 0.5t19.5 1.5t23 3.5t20 6.5q11 -4 19.5 -4.5t24.5 -1.5h50v6q0 1 2 1
q11 -4 23 -6.5t24 -2.5zM261 246q4 0 5.5 -0.5l1.5 -0.5h-8zM239 575q10 6 19 10.5l19 9.5t22.5 11.5t29.5 17.5l44 10v23q0 30 -48 66l-90 -67q-9 8 -17.5 14.5t-19.5 14t-26 16t-36 20.5q-55 -19 -55 -43q0 -9 14 -20.5t30.5 -21.5t29.5 -16t12 -4q11 -17 62 -41h10z" />
    <glyph glyph-name="Scaron" horiz-adv-x="413" 
d="M344 660q31 9 48 39.5t25 80.5q-11 2 -23 5.5t-24 6.5t-21.5 6t-15.5 5l-115 -108q-25 -24 -40.5 -42t-28.5 -34.5t-27 -33t-36 -36.5q-12 -12 -18 -23t-6 -25q0 -17 16.5 -37t39 -40t46 -37.5t37.5 -28.5q17 -13 33 -24.5t29 -22.5l6 -38q-12 -24 -31 -42.5t-42 -34
t-48.5 -29t-50.5 -25.5q-40 -28 -59 -57.5t-19 -58.5v-17q14 -5 23.5 -7t16.5 -2q32 0 57.5 17.5t60.5 47.5l21 18q6 6 13 9.5t13.5 7.5t12.5 9t11 16t14.5 19t20.5 14q2 10 18 21t34.5 25.5t33.5 33.5t16 43q-17 30 -39.5 59t-47.5 56t-52 51t-53 43q10 10 28.5 31t39 46
t40.5 50t33 43h10zM236 899q10 6 19 10.5l19 9.5t22.5 11.5t29.5 17.5l44 10v23q0 30 -48 66l-90 -67q-9 8 -17.5 14.5t-19.5 14t-26 16t-36 20.5q-55 -19 -55 -43q0 -9 14 -20.5t30.5 -21.5t29.5 -16t12 -4q11 -17 62 -41h10z" />
    <glyph glyph-name="Scaron" unicode="&#x160;" horiz-adv-x="413" 
d="M344 660q31 9 48 39.5t25 80.5q-11 2 -23 5.5t-24 6.5t-21.5 6t-15.5 5l-115 -108q-25 -24 -40.5 -42t-28.5 -34.5t-27 -33t-36 -36.5q-12 -12 -18 -23t-6 -25q0 -17 16.5 -37t39 -40t46 -37.5t37.5 -28.5q17 -13 33 -24.5t29 -22.5l6 -38q-12 -24 -31 -42.5t-42 -34
t-48.5 -29t-50.5 -25.5q-40 -28 -59 -57.5t-19 -58.5v-17q14 -5 23.5 -7t16.5 -2q32 0 57.5 17.5t60.5 47.5l21 18q6 6 13 9.5t13.5 7.5t12.5 9t11 16t14.5 19t20.5 14q2 10 18 21t34.5 25.5t33.5 33.5t16 43q-17 30 -39.5 59t-47.5 56t-52 51t-53 43q10 10 28.5 31t39 46
t40.5 50t33 43h10zM236 899q10 6 19 10.5l19 9.5t22.5 11.5t29.5 17.5l44 10v23q0 30 -48 66l-90 -67q-9 8 -17.5 14.5t-19.5 14t-26 16t-36 20.5q-55 -19 -55 -43q0 -9 14 -20.5t30.5 -21.5t29.5 -16t12 -4q11 -17 62 -41h10z" />
    <glyph glyph-name="scaron" horiz-adv-x="323" 
d="M246 442q60 15 69 100q-23 5 -41.5 8.5t-35.5 9.5q-29 -23 -65.5 -51t-68.5 -55.5t-54 -52.5t-22 -41q0 -14 16.5 -31.5t41 -36t53 -37t51.5 -33.5l6 -26q-12 -19 -21 -29.5t-19 -18t-24 -14.5t-35 -19q-37 -21 -56.5 -45.5t-18.5 -48.5v-18q12 -4 21 -5t17 -1
q18 0 30.5 4.5t26.5 12.5h-1l5 4.5t12.5 9t16.5 8.5t17 4h1q11 4 21 12t27 31l3 2q4 10 21 23t35 28.5t32.5 33t15.5 36.5q-31 46 -71 87t-85 71q23 24 41 43t31 35h7zM179 630q10 6 19 10.5l19 9.5t22.5 11.5t29.5 17.5l44 10v23q0 30 -48 66l-90 -67q-9 8 -17.5 14.5
t-19.5 14t-26 16t-36 20.5q-55 -19 -55 -43q0 -9 14 -20.5t30.5 -21.5t29.5 -16t12 -4q11 -17 62 -41h10z" />
    <glyph glyph-name="scaron" unicode="&#x161;" horiz-adv-x="323" 
d="M246 442q60 15 69 100q-23 5 -41.5 8.5t-35.5 9.5q-29 -23 -65.5 -51t-68.5 -55.5t-54 -52.5t-22 -41q0 -14 16.5 -31.5t41 -36t53 -37t51.5 -33.5l6 -26q-12 -19 -21 -29.5t-19 -18t-24 -14.5t-35 -19q-37 -21 -56.5 -45.5t-18.5 -48.5v-18q12 -4 21 -5t17 -1
q18 0 30.5 4.5t26.5 12.5h-1l5 4.5t12.5 9t16.5 8.5t17 4h1q11 4 21 12t27 31l3 2q4 10 21 23t35 28.5t32.5 33t15.5 36.5q-31 46 -71 87t-85 71q23 24 41 43t31 35h7zM179 630q10 6 19 10.5l19 9.5t22.5 11.5t29.5 17.5l44 10v23q0 30 -48 66l-90 -67q-9 8 -17.5 14.5
t-19.5 14t-26 16t-36 20.5q-55 -19 -55 -43q0 -9 14 -20.5t30.5 -21.5t29.5 -16t12 -4q11 -17 62 -41h10z" />
    <glyph glyph-name="Lslash" unicode="&#x141;" horiz-adv-x="556" 
d="M267 576l-36 -36q-3 60 -3 103v12q20 20 20 54v7q0 6 -1.5 18.5t-1.5 19.5t2.5 16t6.5 20q-14 5 -24 8t-16 3q-9 0 -22.5 -5.5t-26.5 -12.5t-24 -14t-14 -9q-6 -14 -10 -22.5t-4 -13.5l19 -293q-4 -5 -8.5 -10t-12.5 -12q-12 -14 -25 -17q-22 -22 -37 -40t-29 -32
l-20 -20l11 -10q1 -2 2.5 -2.5t2.5 -1.5q7 -8 10 -11.5t14 -16.5q19 -20 33 -16t28 18q4 4 8.5 9.5t7.5 9.5l4 4l1 0.5t2 1.5q1 -24 4.5 -57.5t6.5 -65.5t5.5 -57t2.5 -34q0 -14 -2 -32t-6 -39q92 2 173.5 3t138.5 1h64l27 17q0 1 3 10.5t10 21.5t17 17q-7 4 -17 9.5
t-20.5 10t-21 7.5t-17.5 3q-6 0 -20 -1.5t-30.5 -3t-32.5 -3t-27 -1.5h-6q-22 11 -63 14l-56 4q-5 40 -7 72.5t-3.5 67.5t-3 76.5t-5.5 98.5q13 10 24 21q13 13 22.5 26.5t18.5 30.5q2 6 4 8l11 8q5 4 13 11.5t8 6.5q28 28 0 54q-13 14 -25 18t-25 -9q-9 -9 -11 -12l-4 -6
l-3 -3z" />
    <glyph glyph-name="lslash" unicode="&#x142;" horiz-adv-x="358" 
d="M267 596l-34 -34l-6 -6t-6 -5l-3 36l4 170q-25 43 -55 43q-13 0 -20.5 -6t-11.5 -15t-5.5 -19.5t-1.5 -19.5v-53q0 -23 0.5 -52t1 -61l1 -64t1.5 -59q-4 -5 -9 -10l-12 -12q-12 -14 -25 -17q-22 -22 -37 -40t-29 -32l-20 -20l11 -10q1 -2 2.5 -2.5t2.5 -1.5
q7 -8 10 -11.5t14 -16.5q19 -20 33 -16t28 18q4 4 8.5 9.5t7.5 9.5l4 4q2 2 11 5q-5 -154 -27 -262q-3 -5 -3 -12q0 -32 41 -34q7 4 17 4q5 0 15 -1t15 -1q24 0 33.5 12t9.5 40q0 47 -20 78q6 75 9.5 142.5t3.5 127.5v33q10 8 19 15t17 15q13 13 22.5 26.5t18.5 30.5
q2 6 4 8l11 8q5 4 13 11.5t8 6.5q28 28 0 54q-13 14 -25 18t-25 -9q-9 -9 -11 -12l-4 -6l-3 -3z" />
    </font>
</defs>
</svg>
